<?xml version="1.0" standalone="no"?>
<!DOCTYPE svg PUBLIC "-//W3C//DTD SVG 1.1//EN" "http://www.w3.org/Graphics/SVG/1.1/DTD/svg11.dtd" >
<svg xmlns="http://www.w3.org/2000/svg">
<metadata></metadata>
<defs>
<font id="supercell-magicregular" horiz-adv-x="1777" >
<font-face units-per-em="2048" ascent="1638" descent="-410" />
<missing-glyph horiz-adv-x="827" />
<glyph horiz-adv-x="2048" />
<glyph horiz-adv-x="2048" />
<glyph unicode="&#xd;" horiz-adv-x="827" />
<glyph unicode=" "  horiz-adv-x="827" />
<glyph unicode="&#x09;" horiz-adv-x="827" />
<glyph unicode="&#xa0;" horiz-adv-x="827" />
<glyph unicode="!" horiz-adv-x="905" d="M113 86q2 41 7 79t9 62q6 37 40 66t77 47t86 29.5t69 15.5q25 4 56.5 1t64.5 -10t64.5 -18.5t52.5 -23.5q29 -74 43 -157t4 -165q-14 -25 -57 -46t-101.5 -34.5t-123 -19.5t-123 -5t-99.5 12t-53 34t-15 57.5t-1 75.5zM189 1304.5q4 319.5 4 632.5q160 20 317.5 25.5 t288.5 -43.5q-31 -199 -58.5 -391.5t-50 -356t-39 -288.5t-24.5 -191q-29 -8 -89.5 -15t-126 -13.5t-124 -8.5t-82.5 4q-20 326 -16 645.5z" />
<glyph unicode="&#x22;" horiz-adv-x="1183" d="M109 1622q102 63 209.5 83t216.5 -5v-203.5t-4.5 -199t-12.5 -183.5t-24 -153q-53 -27 -123 -46.5t-133 -13.5q-6 92 -22.5 193.5t-36 199t-39 183.5t-31.5 145zM666 1616q115 53 227.5 60.5t218.5 -27.5q-18 -96 -37.5 -195.5t-40 -194t-44 -177.5t-52.5 -146 q-59 -20 -134 -32.5t-136 3.5q10 88 12 188.5t0 197t-6 181.5t-8 142z" />
<glyph unicode="#" horiz-adv-x="1478" d="M102 1175.5q2 63.5 8.5 120t14.5 90.5q16 2 56 5.5t95 7.5q2 90 4.5 174t4.5 162q92 29 200.5 35t200.5 2q-2 -88 -2 -175.5t-4 -175.5q41 2 80 3t78 3q2 92 4 183.5t6 183.5q16 14 68.5 25.5t111.5 16.5t113.5 6t77.5 -3q2 -94 3 -194.5t3 -206.5q41 2 75.5 1t51.5 -3 q4 -37 6 -94.5t3 -122t0 -122t-7 -93.5q-23 -2 -57.5 -5.5t-73.5 -5.5q-2 -49 -2 -94t-2 -92q55 0 99 -1t60 -5q4 -37 7.5 -94.5t4.5 -121t-0.5 -121.5t-7.5 -95q-27 -2 -73.5 -4.5t-100.5 -8.5q-2 -90 -4 -174t-4 -159q-92 -29 -181 -23t-177 8v326q-49 -2 -98.5 -4 t-98.5 -4q-2 -66 -4 -125.5t-6 -120.5q-16 -16 -65.5 -24.5t-106.5 -13.5t-108.5 -5t-73.5 2q-2 123 -7 258q-41 -4 -74.5 -8t-56.5 -8q-10 59 -13 127.5t0 134t9 121t15 92.5q14 0 43.5 2t72.5 4v170q-51 -4 -90 -8t-65 -9q-10 57 -12.5 127t-0.5 133.5zM664 784 q43 2 87 5.5t87 5.5v176l-168 -10z" />
<glyph unicode="$" horiz-adv-x="1662" d="M100 825q0 80 6.5 170t23.5 181.5t46 177.5t72 159q63 20 136 38t191 32q-2 63 -4 114.5t-4 96.5t-4 86t-6 86q66 27 139.5 43t149.5 24.5t148.5 8.5t133.5 -6q-20 -121 -25 -220.5t-16 -189.5q135 12 224.5 20.5t165.5 2.5q4 -16 10 -54.5t11 -84.5t7 -90t-2 -79 q-72 -4 -163 -11t-184 -17t-180 -21.5t-149 -25.5q-18 -4 -33.5 -25.5t-22.5 -46.5t-3 -44.5t23 -23.5q59 -10 162.5 -25.5t217 -29.5t217 -26.5t162.5 -20.5q23 -55 26 -136t-9.5 -166t-40 -162t-68.5 -120q-43 -18 -81 -32.5t-76.5 -27.5t-79.5 -25.5t-91 -24.5 q-6 -104 -12 -194.5t-31 -182.5q-33 -10 -96 -18.5t-133 -14.5t-135.5 -6t-99.5 8q-2 106 -5.5 185t-7.5 149q-55 -8 -102 -15.5t-91 -13.5t-89 -11t-97 -9q-18 23 -32.5 69t-23.5 96t-14 96t-3 64q68 8 158 21.5t178 29t159.5 31t104.5 29.5q10 6 23.5 15.5t25.5 20.5 t20.5 22.5t6.5 19.5q-6 25 -24.5 38t-43.5 19t-53.5 8t-55.5 5q-49 6 -118.5 6t-146.5 1t-153.5 6t-138.5 21z" />
<glyph unicode="%" horiz-adv-x="2072" d="M100 1446.5q0 105.5 2 203t7 154.5q43 45 116.5 78t162.5 49.5t186.5 18.5t183.5 -14.5t155.5 -51.5t102.5 -88q4 -35 8 -96.5t8 -132.5q53 90 106.5 179t112.5 183q92 10 182.5 5t166 -15t130 -21.5t74.5 -17.5q-131 -205 -264 -437.5t-264 -479.5q92 23 195.5 27.5 t196.5 -10.5t168 -50t112 -92q6 -35 9 -97.5t6 -135.5t4 -151.5t1 -147t-1 -120.5t-3 -75q-35 -51 -107.5 -86t-162.5 -52.5t-189.5 -18.5t-189.5 17.5t-162 54t-106 89.5q-6 63 -9.5 163.5t-5.5 204.5q-70 -141 -136.5 -281.5t-129.5 -275.5q-90 -10 -179 -10t-163 4 t-127 11.5t-74 11.5q123 283 232.5 520t220.5 452q-84 -6 -170 -0.5t-163 24.5t-137.5 52t-90.5 82q-6 68 -10.5 168t-4.5 205.5zM438 1421q0 -41 2 -84t4 -96q27 -6 61 -9t67.5 -3t64.5 5t49 17q0 100 3 181t-13 176q-23 0 -50.5 3t-57 4t-59.5 -1t-54 -15 q-8 -53 -12.5 -95t-4.5 -83zM1370 463q0 -41 2 -84t4 -96q27 -6 60.5 -9.5t67.5 -3.5t65 5.5t49 19.5q0 98 3 180t-13 176q-45 0 -108.5 6.5t-113.5 -14.5q-8 -53 -12 -96t-4 -84z" />
<glyph unicode="&#x26;" horiz-adv-x="1613" d="M74 739q80 80 173 142.5t220 101.5q-45 12 -94 34.5t-93 51.5t-79 64.5t-51 72.5q4 39 22 88t42 96.5t50.5 88.5t46.5 59q70 20 135.5 37.5t126.5 32.5q-2 117 -6 195.5t-10 162.5q66 27 139.5 43t149.5 24.5t148.5 8.5t133.5 -6q-16 -104 -23 -193.5t-13 -169.5 q72 6 147.5 6h159.5q18 -10 38.5 -43.5t38 -74.5t27.5 -88.5t8 -86.5q-39 -6 -123.5 -10t-184 -12t-196 -23.5t-157.5 -42.5q-27 -45 -38 -81.5t5 -98.5q18 -8 68.5 -12t107 -6t109.5 -2h78q29 -51 44 -115.5t11 -122.5q-47 0 -119 -6t-143.5 -14.5t-131 -20.5t-81.5 -28 q-4 -80 -2 -122t24 -69q76 -20 165 -28.5t185.5 -12.5t199 -3t204.5 1q6 -39 2 -84t-16.5 -89t-29.5 -85t-34 -70q-53 -8 -140 -14t-194 -10q-4 -66 -12 -127.5t-25 -124.5q-33 -10 -96 -18.5t-133 -14.5t-135.5 -6t-99.5 8q-2 88 -4.5 156.5t-6.5 128.5q-106 6 -195 18.5 t-143 32.5q-80 100 -134 233.5t-66 247.5z" />
<glyph unicode="'" horiz-adv-x="753" d="M166 1671q129 53 256 60.5t246 -27.5q-20 -96 -41 -195.5t-44.5 -193.5t-51 -177t-58.5 -147q-33 -10 -72 -18t-78.5 -13.5t-79.5 -5.5t-75 9q12 88 14 188t-1 196.5t-7 181.5t-8 142z" />
<glyph unicode="(" horiz-adv-x="1032" d="M98 910.5q4 181.5 22.5 349t53.5 307t82 217.5q88 51 247 106.5t363 83.5q12 -23 26.5 -63.5t25 -88.5t17.5 -97.5t7 -86.5q-74 -8 -125 -35.5t-104 -62.5q-16 -55 -30.5 -157.5t-25 -224.5t-16.5 -252t-5 -246.5t11 -205.5t33 -132q29 -18 74 -48t104 -38 q-8 -98 -30.5 -189.5t-53.5 -132.5q-68 10 -141.5 30.5t-147 48t-143.5 56.5t-129 51q-43 57 -69.5 182.5t-38 286t-7.5 342z" />
<glyph unicode=")" horiz-adv-x="1032" d="M86 238q74 10 125 36.5t104 61.5q16 57 30.5 158.5t26 223.5t17.5 252t4 246.5t-12 206.5t-33 131q-29 20 -74 50t-102 36q6 98 28.5 189.5t53.5 134.5q68 -10 142.5 -31.5t147 -48t142.5 -56.5t129 -52q43 -55 69.5 -181.5t38 -287t7.5 -341t-22.5 -349t-52.5 -307 t-83 -218.5q-86 -49 -245.5 -105.5t-364.5 -82.5q-12 23 -26.5 62.5t-25 88.5t-17.5 97.5t-7 85.5z" />
<glyph unicode="*" horiz-adv-x="1241" d="M41 1483q16 18 45 42.5t65.5 50.5t78.5 49.5t81 39.5q16 -25 60.5 -55.5t91.5 -63.5q2 55 2 104.5t2 92.5q74 16 161 18t158 2v-192q31 29 58.5 54.5t44.5 43.5q10 4 45 -6t78 -28.5t89 -43t79 -53.5q-72 -78 -154 -142.5t-152 -148.5q43 -41 78 -70.5t69 -59.5t72 -67 t87 -94q-20 -16 -50 -40.5t-64 -47t-72 -41t-76 -24.5q-23 25 -64 58.5t-84 68.5q-2 -49 -3 -99.5t-5 -99.5q-14 -8 -53 -12t-84 -7t-86 -4t-60 1q-4 49 -5 103t-3 114q-37 -35 -75 -68t-56 -61q-37 -2 -79 11t-80 33.5t-70.5 46t-55.5 48.5q29 33 64 78t69.5 88t67.5 81 t59 62q-45 43 -82.5 73t-70.5 54.5t-62.5 50t-58.5 60.5z" />
<glyph unicode="+" horiz-adv-x="1110" d="M100 812q2 56 7.5 105.5t13.5 79.5q23 4 74 5.5t116 3.5q0 43 1 93t3 103t4.5 103.5t4.5 89.5q115 20 249 23t246 1v-101v-109.5v-106.5t-2 -92q68 0 119 -2t74 -7q4 -33 7 -83t5 -105t1 -105t-5 -83q-41 -4 -97.5 -5.5t-121.5 -3.5q-2 -37 -5 -82t-6.5 -92t-5.5 -95 t-6 -91q-20 -8 -81.5 -14t-130 -10.5t-132 -4.5t-92.5 2q-2 39 -6 88.5t-7 100.5t-5.5 98t-4.5 88q-61 -6 -113 -9t-89 -9q-10 51 -13.5 110.5t-1.5 115.5z" />
<glyph unicode="," horiz-adv-x="790" d="M51 -86q35 78 64.5 171t54.5 185t43 175t31 139q135 -2 256 -44t225 -120q-45 -84 -92 -170t-95.5 -166t-96.5 -148.5t-95 -115.5q-66 8 -148.5 29.5t-146.5 64.5z" />
<glyph unicode="-" horiz-adv-x="819" d="M108.5 762.5q2.5 66.5 7.5 123t11 93.5q43 6 122 9t165 6t163.5 0t118.5 -9q4 -37 7.5 -97.5t4.5 -125t-0.5 -122.5t-5.5 -95q-141 -18 -290.5 -19.5t-288.5 -27.5q-10 61 -13.5 129.5t-1 135z" />
<glyph unicode="." horiz-adv-x="905" d="M154 120q2 38 7 74.5t9 59.5q6 37 40 62.5t77 44t86 28.5t69 14q25 6 56.5 2t64.5 -11t64.5 -18t52.5 -22q29 -72 43 -149.5t4 -157.5q-12 -25 -56 -43t-102.5 -31.5t-123 -19.5t-123 -5t-99.5 12t-53 32q-12 18 -15 54t-1 74z" />
<glyph unicode="/" horiz-adv-x="1654" d="M41 -57q135 309 257 570t244 496.5t251 460t278 459.5q90 10 180 5t166 -15t130.5 -21.5t74.5 -17.5q-135 -209 -271.5 -448.5t-269.5 -492.5t-259 -511t-238 -502q-90 -10 -179.5 -10t-163 4t-127 11.5t-73.5 11.5z" />
<glyph unicode="0" horiz-adv-x="2002" d="M92 638v286.5t3 279.5t7 240q29 29 72 83t89 110.5t89 104.5t74 64q104 10 251.5 23.5t305.5 22t311.5 4t272.5 -28.5q43 -37 85 -90.5t82 -110.5t76.5 -116.5t69.5 -112.5q4 -70 8 -164t7 -197.5t5.5 -210t2.5 -202t-2.5 -171t-8.5 -120.5q-70 -92 -130 -190.5 t-134 -190.5q-74 -12 -173 -21.5t-212 -14.5t-235.5 -5t-241.5 4t-228.5 10t-199.5 19q-31 31 -66.5 86t-69.5 116.5t-62.5 123t-45.5 108.5q-2 119 -2 261zM762 842.5q0 -99.5 1 -191.5t3 -165.5t2 -108.5q47 -25 109.5 -31t126 2t120.5 30.5t90 55.5q4 190 10.5 424 t-22.5 479q-59 -2 -112.5 -3t-102.5 -6t-97 -17.5t-99 -36.5q-10 -23 -16.5 -89.5t-9.5 -154.5t-3 -187.5z" />
<glyph unicode="1" horiz-adv-x="995" d="M78 1479q2 84 19.5 176t39.5 157q68 14 163 30t196.5 28t197.5 19t162 7q0 -221 -4 -452.5t-11 -466t-16.5 -469t-19.5 -459.5q-16 -10 -55 -17t-89.5 -13.5t-106.5 -9.5t-108.5 -4t-94.5 -1t-64 2q-10 160 -16.5 343t-9.5 372.5t-3 377t2 359.5q-12 0 -37.5 2t-53.5 4 t-53.5 6.5t-37.5 8.5z" />
<glyph unicode="2" horiz-adv-x="1556" d="M74 394.5q-2 107.5 4 215t26 195.5q90 59 207 133t231.5 142.5t211 127t145.5 82.5q16 68 9 114t-36 81q-70 4 -172 0t-210.5 -11.5t-210 -16.5t-168.5 -17q2 45 7 101t13 112.5t19.5 107.5t25.5 86q63 18 157.5 34.5t202 29t221 22t219 10.5t195 -3.5t146.5 -16.5 q53 -92 85 -191.5t48 -206t20.5 -218t4.5 -228.5q-63 -61 -148.5 -125.5t-184 -129t-206 -130t-217.5 -129.5q-8 -6 -11 -22.5t0 -37t10 -35.5t15 -21q20 -8 70.5 -16.5t117 -11.5t144.5 -6t152.5 -3t140 2t108.5 2q2 -31 1 -81t-7 -106.5t-16 -111t-27 -90.5 q-143 -12 -318 -25.5t-354.5 -20t-347.5 1t-297 40.5q-8 68 -16 166t-10 205.5z" />
<glyph unicode="3" horiz-adv-x="1613" d="M109.5 220.5q-3.5 58.5 3.5 115.5q100 12 199.5 22.5t193.5 24.5t181 36.5t161 59.5q23 31 30 55.5t6 54t-6.5 66.5t-7.5 95q-20 18 -78.5 28t-129 15.5t-140 5.5t-116.5 -6q-4 76 11 170t42 167q25 2 77 8.5t107 14.5t103.5 20.5t66.5 26.5q16 86 6 137.5t-37 106.5 q-59 35 -153 45t-191.5 11t-181.5 -3t-121 -2q-2 55 8.5 121.5t26.5 129t36.5 111t39.5 62.5q154 16 285 23.5t255.5 0t251.5 -32t271 -67.5q20 -25 45.5 -78t48 -116.5t40 -130t23.5 -117.5q-16 -55 -50 -109.5t-77 -100.5t-91 -83t-93 -59q123 -41 232.5 -118t179.5 -210 q-8 -78 -26.5 -172t-44.5 -183.5t-59.5 -160t-70.5 -103.5q-55 -35 -150.5 -64.5t-211 -50t-240.5 -34.5t-240.5 -23.5t-210 -10.5t-149.5 3q-10 35 -22.5 83t-20.5 102.5t-11.5 113z" />
<glyph unicode="4" horiz-adv-x="1900" d="M74 752q29 78 76 179t103 211.5t118.5 222.5t122 212t112.5 181t90 130q45 8 117 9t157 -2t175 -11t174 -15t154.5 -14.5t115.5 -9.5q10 -61 16.5 -178t9.5 -263.5t3 -305v-305.5q61 0 112.5 -2.5t79.5 -8.5q4 -33 7.5 -80t4.5 -95t0 -94t-5 -83q-49 -6 -99.5 -7 t-103.5 -3q-4 -96 -6 -200.5t-6 -182.5q-35 -10 -91.5 -19.5t-120 -15.5t-128 -8t-118.5 -2t-92 5t-46 15q4 74 8 158t4 223q-74 2 -188.5 -1t-240.5 -5t-249 0t-213 14q-10 45 -20.5 94.5t-17.5 97.5t-11 90t-4 69zM686 850q18 -8 64.5 -13.5t97.5 -7.5t98 3.5t68 19.5 q4 37 5 92t1 117.5t1 129.5t1 126q0 47 -10.5 66.5t-27.5 18.5t-36.5 -18.5t-36.5 -48.5q-35 -57 -69.5 -127.5t-65.5 -138.5t-54.5 -125t-35.5 -94z" />
<glyph unicode="5" horiz-adv-x="1613" d="M82 829q-4 119 2 254.5t17.5 267.5t27.5 253.5t31 214.5q137 43 299 62.5t332 25.5t336.5 2t314.5 -13q29 -96 35 -202.5t4 -210.5q-80 -6 -175.5 -10.5t-194.5 -7.5t-196.5 -9t-177.5 -16q-29 -57 -33 -132t-6 -147q88 -16 187.5 -38.5t202 -43t203 -42t188.5 -38.5 q35 -88 46 -191t2 -208.5t-36 -207t-68 -181.5q-137 -76 -287.5 -129t-304 -91t-308 -63.5t-304.5 -46.5q-18 14 -32.5 75.5t-23.5 135.5t-13.5 142.5t-2.5 99.5q82 4 182.5 20.5t197 36t177 44t121.5 46.5q10 29 14.5 78t0.5 92q-25 18 -79 31.5t-127 25t-154 21.5 t-157.5 23.5t-140 32t-100.5 44.5z" />
<glyph unicode="6" horiz-adv-x="1810" d="M98 616.5q-4 163.5 5.5 345t30 346.5t50 297t64.5 201q59 25 154.5 48.5t209 43t236.5 35t238.5 25.5t216 14t167.5 0q8 -29 20.5 -76t24 -102t17.5 -112.5t2 -106.5q-72 -8 -173 -26.5t-209 -40t-208 -45t-170 -40.5q-29 -43 -39 -104.5t-10 -116.5q90 -8 218 -20.5 t265.5 -33t267.5 -51t224 -75.5q10 -84 5 -213t-24.5 -264t-50.5 -255t-71 -190q-119 -70 -284 -107.5t-349.5 -38.5t-377 37t-368.5 120q-37 72 -57.5 207t-24.5 298.5zM686 711q-2 -170 47 -299q43 -16 99.5 -20.5t108.5 -0.5t91 14.5t49 22.5q6 27 16.5 59.5t19.5 66.5 t12 65.5t-5 54.5q-29 18 -87 28.5t-124.5 13.5t-129 1t-97.5 -6z" />
<glyph unicode="7" horiz-adv-x="1556" d="M103.5 1683.5q5.5 102.5 25.5 194.5q160 23 329 33t334.5 10t322.5 -6t288 -14q18 -47 33.5 -102.5t27 -111t15.5 -105.5t0 -85q-55 -104 -141.5 -275t-188.5 -377t-215 -430.5t-221 -439.5q-61 -6 -139 -3t-158 14.5t-153 30t-124 42.5q86 219 176.5 418t175 380 t159.5 343t132 303q-68 6 -156.5 3t-182 -8t-181.5 -10t-156 3q-8 90 -2.5 192.5z" />
<glyph unicode="8" horiz-adv-x="1871" d="M78 682q29 37 66.5 74t77.5 71.5t81 67.5t74 63q-35 41 -77 82t-81 80t-70.5 74t-44.5 59q16 172 58.5 324t116.5 295q180 29 368.5 44t355 16t295.5 -10t193 -30q78 -53 136.5 -165.5t80.5 -247.5q-18 -63 -52 -129t-77 -123.5t-91 -103.5t-95 -70q33 -16 93 -48 t124.5 -79t122 -110.5t84.5 -145.5q4 -43 -12.5 -122t-48.5 -166t-76 -172t-95 -142q-66 -43 -176.5 -68t-241.5 -36t-272 -8t-272 15.5t-241 34t-175 43.5q-25 55 -47.5 127t-41 153t-29.5 171t-11 182zM682 607q-2 -50 1 -98t12.5 -87t23.5 -53q31 -12 75 -17.5t91 -5.5 t93 1t79 1q25 25 41 73t21 102.5t1 103t-20 75.5q-27 12 -78 17.5t-109.5 2.5t-117 -9t-103.5 -17q-8 -39 -10 -89zM712 1282q1 -45 7 -53q16 -23 57 -32t88 -9t92 6t68 14q12 29 19.5 68t9.5 79t-3.5 80.5t-17.5 71.5q-16 29 -52 39t-77 13.5t-80 -3t-63 -16.5 q-16 -14 -27.5 -61t-16.5 -99.5t-4 -97.5z" />
<glyph unicode="9" horiz-adv-x="1724" d="M74.5 1016q7.5 147 34 297.5t69.5 289t90 236.5q154 37 297.5 55.5t286.5 19.5t290.5 -14.5t307.5 -41.5q63 -145 103 -308.5t60.5 -327t23.5 -319t-7 -289t-31.5 -234t-52.5 -155.5q-152 -76 -296 -125t-289.5 -80.5t-295 -52t-313.5 -41.5q-20 14 -38.5 68.5t-34 118 t-23.5 125t-6 92.5q90 4 205.5 23.5t226.5 46t204 55t138 51.5q10 33 10 72.5t-4 83.5q-78 10 -198.5 17t-254 15t-262.5 21.5t-225 36.5q-23 117 -15.5 264zM670 1147q37 -6 84 -7t98 -3t99 -3.5t85 -7.5q12 86 11.5 172t-11.5 132q-27 0 -64.5 3t-78.5 4t-79 2t-64 -1 q-35 -53 -56.5 -136t-23.5 -155z" />
<glyph unicode=":" horiz-adv-x="905" d="M154 120q2 38 7 74.5t9 59.5q6 37 40 62.5t77 44t86 28.5t69 14q25 6 56.5 2t64.5 -11t64.5 -18t52.5 -22q29 -72 43 -149.5t4 -157.5q-12 -25 -56 -43t-102.5 -31.5t-123 -19.5t-123 -5t-100.5 12t-52 32q-12 18 -15 54t-1 74zM158 949q2 42 7 80t9 63q6 39 38 67.5 t73 48t82 30.5t65 15q23 6 52.5 2t61.5 -12t61.5 -19.5t49.5 -23.5q29 -76 42 -160t3 -170q-12 -25 -53 -45t-96 -33.5t-117.5 -21.5t-117 -5t-94.5 14.5t-50 31.5q-12 23 -15 59.5t-1 78.5z" />
<glyph unicode=";" horiz-adv-x="802" d="M14 -162q35 82 65 175t54.5 185.5t43 175.5t30.5 138q135 -2 256 -45t225 -121q-45 -84 -92 -170t-94 -165t-95.5 -147.5t-95.5 -115.5q-68 8 -150.5 28.5t-146.5 61.5zM137 1001.5q2 40.5 7.5 79.5t9.5 64q6 39 37.5 66.5t72.5 48t82 30.5t66 17q23 4 52.5 1t61 -12.5 t61 -20.5t50.5 -24q29 -76 42 -158.5t3 -168.5q-12 -25 -53 -46.5t-96.5 -35t-118 -19.5t-116.5 -5t-94 12.5t-50 33.5q-12 23 -15.5 60t-1.5 77.5z" />
<glyph unicode="&#x3c;" horiz-adv-x="1130" d="M98 903q129 258 243 508t234 514q82 10 163 5t149.5 -14t117 -20.5t66.5 -19.5q-61 -141 -119.5 -268t-115 -243t-111.5 -223.5t-109 -215.5q45 -102 100.5 -227.5t112 -251t111.5 -245.5t100 -214q-61 -8 -138 -19.5t-148.5 -20.5t-125 -14.5t-67.5 -1.5 q-131 244 -246.5 482.5t-216.5 488.5z" />
<glyph unicode="=" horiz-adv-x="819" d="M108.5 477.5q2.5 63.5 7.5 118.5t11 90q43 4 122 8t165 6t163.5 0t118.5 -10q4 -35 7.5 -92t4.5 -119.5t-0.5 -121t-5.5 -91.5q-70 -8 -143.5 -12t-147 -6t-146 -8.5t-142.5 -18.5q-10 59 -13.5 126t-1 130.5zM108.5 1125.5q2.5 64.5 7.5 119.5t11 90q43 4 122 8.5 t165 6.5t163.5 0t118.5 -11q4 -35 7.5 -92t4.5 -119.5t-0.5 -121t-5.5 -93.5q-70 -6 -143.5 -10t-147 -6t-146 -8t-142.5 -19q-10 59 -13.5 125t-1 130.5z" />
<glyph unicode="&#x3e;" horiz-adv-x="1130" d="M98 -2q59 143 117.5 269t116 242t112 223.5t107.5 215.5q-45 102 -99.5 227t-110.5 251t-111.5 246t-100.5 214q61 8 138 19.5t148.5 20.5t125 14.5t67.5 1.5q131 -244 247 -482.5t216 -488.5q-129 -260 -242.5 -509t-234.5 -513q-82 -10 -163 -5t-149.5 14t-117 20.5 t-66.5 19.5z" />
<glyph unicode="?" horiz-adv-x="1449" d="M66 1378q12 63 23 122t25.5 115t31 115.5t40.5 124.5q66 35 160 55.5t201.5 28t219.5 4t212 -15.5t180 -31.5t123 -44.5q12 -47 26.5 -131t23.5 -176t11 -181.5t-12 -150.5q-37 -35 -87 -76.5t-103.5 -82.5t-104.5 -75t-90 -56q-33 -78 -40 -152t-25 -160 q-39 -12 -116 -21t-162 -15.5t-164 -9.5t-120 -3q-8 41 -12 95.5t-4 110.5t4 111.5t8 94.5q27 27 66 59.5t87 65t102.5 65.5t109.5 62q10 49 7 100t-15 92q-27 18 -78 23.5t-111.5 2.5t-126 -10.5t-124 -17.5t-102.5 -19.5t-64 -17.5zM290 108.5q-1 49.5 3 92.5t14 55 q47 55 121 85t155 36t158.5 -6.5t135.5 -38.5q4 -10 13 -36t18.5 -62.5t13.5 -84t-4 -96.5q-37 -39 -120 -65.5t-177.5 -38.5t-179.5 -9t-126 31q-12 6 -18 47t-7 90.5z" />
<glyph unicode="@" horiz-adv-x="1810" d="M76 649.5q-4 155.5 5 319.5t28.5 309t48 264t63.5 180q72 45 180.5 81t235.5 59.5t265 35t270.5 13.5t249 -5.5t202.5 -23.5q55 -170 78.5 -366.5t29 -396t-2 -387t-13.5 -341.5q-16 -8 -77.5 -19.5t-133 -20.5t-136 -12t-87.5 -1q0 20 -1 51t-3 49h-125t-149.5 5.5 t-157.5 15.5t-148 30q-29 53 -40 171t-7 254.5t24.5 264.5t53.5 199q123 53 247 76t271 19q0 23 -4 43q-4 16 -7 34.5t-11 30.5q-45 2 -127 2t-173 -10t-177 -37t-140 -78q-33 -86 -53 -218t-26.5 -281.5t2 -298t32.5 -269.5q82 -49 175 -76.5t193.5 -46t206 -31 t212.5 -26.5q10 -98 -8.5 -156.5t-47.5 -107.5q-47 -12 -137 -13.5t-200.5 7t-231.5 27t-231.5 45t-199.5 59t-136 69.5q-39 86 -58.5 219.5t-23.5 289zM1050 778.5q3 -61.5 17 -98.5q37 -12 95.5 -1t107.5 11q-4 147 -5 271t1 264q-29 -2 -49.5 -4t-39 -8.5t-40 -16.5 t-52.5 -27q-10 -53 -20 -122.5t-14 -138t-1 -130z" />
<glyph unicode="A" horiz-adv-x="2078" d="M6 -31q18 135 67.5 325.5t114 401.5t136 422t135.5 389q-31 2 -58 6q-23 6 -45 11.5t-34 11.5q10 39 20 86t21.5 95t23.5 91t27 72q63 14 163.5 28.5t220.5 21.5q120 8 249 10q54 1 106 1q73 -1 145 -3q122 -4 227 -13.5t177 -30.5q49 -233 98 -460.5t95.5 -456.5 t89 -470t77.5 -501q-78 -16 -161.5 -24.5t-166.5 -13.5t-160 -6h-50q-48 0 -88 1q-16 51 -28.5 90t-22 73t-18.5 74t-19 93q-72 10 -165 12q-62 1 -124 1h-61q-92 -1 -174.5 -9t-135.5 -21q-20 -45 -35.5 -77.5t-27 -66.5t-20.5 -70.5t-21 -86.5q-57 -14 -135 -20t-159 -6 t-156 5t-128 15zM838 780q35 -8 95 -12q40 -3 81 -3q22 0 42 1q62 2 115.5 6t73.5 10q-6 68 -18.5 153t-28.5 170t-35.5 159.5t-40.5 124.5q-23 56 -51 56q-3 0 -5 -1q-32 -6 -54 -55q-6 -12 -21.5 -57.5t-35 -107t-41 -133t-39 -135t-27.5 -111.5t-10 -65z" />
<glyph unicode="B" horiz-adv-x="2105" d="M90 1468q4 119 15.5 221.5t21.5 194.5q98 12 223 24.5t266 21.5q142 8 294 12q97 2 193 3q55 0 109 -1q150 -2 292.5 -11.5t264.5 -25.5q23 -29 49.5 -86.5t51 -126t43 -141t24.5 -128.5q-18 -59 -54 -116.5t-82 -108.5t-96 -90t-97 -63q131 -41 246.5 -126.5 t189.5 -228.5q-8 -86 -27.5 -189.5t-47 -198.5t-62.5 -172t-76 -109q-55 -10 -143.5 -25.5t-192.5 -29t-215 -26t-207 -16.5q-182 -10 -352 -10q-43 0 -84 1q-209 3 -383 40q-12 94 -14 264q-1 68 -1 142q0 111 2 234q3 206 10 431t11 426q-14 2 -35.5 1t-46 -1t-49.5 3 t-41 11zM889 546q1 -28 2 -55q6 -116 18 -194q30 -6 64 -6h17q44 2 88 6t86 13t73 20q47 68 61 169q10 78 10 169q0 27 -1 55q-23 18 -73 30.5t-110 16.5q-26 2 -52 2l-66 -3q-60 -5 -101 -19q-15 -110 -16 -204zM891 1243q0 -41 2 -69q25 -6 76 -8h26q39 0 80 4 q55 4 104.5 15t67.5 25q7 42 7 89v11q-1 54 -11 104t-30.5 89t-51.5 62q-33 7 -69 7q-28 0 -58 -4q-70 -9 -129 -32q-2 -47 -6 -98.5t-6 -102.5t-2 -92z" />
<glyph unicode="C" horiz-adv-x="1679" d="M72 720q0 86 5 178q9 163 32.5 315.5t61.5 282.5t85 212q59 35 166.5 66.5t240 57.5t273.5 45t266 27q89 5 164 5q30 0 56 -1q96 -3 134 -24q4 -27 8.5 -72t6.5 -102q1 -23 1 -47q0 -37 -2 -75q-3 -64 -14 -132q-106 -8 -199 -13t-179 -12.5t-167 -24.5t-163 -54 q-23 -88 -44.5 -205t-31.5 -235q-6 -70 -6 -135q0 -45 3 -89q7 -104 40 -168q35 -25 100.5 -39t145.5 -21t166 -11.5t161.5 -6.5t132.5 -7t82 -17q1 -15 1 -31q0 -41 -4 -91q-5 -71 -14 -135.5t-24.5 -115.5t-35.5 -68q-158 2 -332 8.5t-349 24t-345 52t-322 92.5 q-43 59 -66.5 174.5t-30.5 261.5q-3 64 -3 130z" />
<glyph unicode="D" horiz-adv-x="2162" d="M78 1487q0 63 4 132t9 129t9 107.5t6 67.5q170 25 390 41t450 18q36 0 72 1h29q177 0 347 -11q218 -14 384 -49q49 -45 86 -90t67.5 -91t61 -99.5t67.5 -116.5q6 -45 9.5 -132t3.5 -194.5t-2.5 -226.5t-6.5 -227.5t-10 -197.5t-14 -136q-37 -55 -77 -118t-83 -123 t-89 -115.5t-93 -94.5q-72 -8 -175.5 -18.5t-226 -17.5t-260.5 -9q-40 -1 -80 -1q-98 0 -198 4q-140 5 -275 19.5t-254 43.5q-12 138 -15 324q-2 111 -2 229q0 77 1 159q2 202 5 406.5t5 376.5zM872 696.5q0 -100.5 3.5 -170t7.5 -80.5q51 -14 114.5 -21t126 -7t119.5 7 t98 21q37 109 54.5 239t19.5 260v41q-1 108 -9 208q-10 119 -28 199q-41 37 -105.5 56t-136.5 23q-19 1 -37 2q-53 0 -103 -10q-68 -12 -117 -37q-2 -27 -3.5 -106.5t-2.5 -185t-1 -222v-217z" />
<glyph unicode="E" horiz-adv-x="1736" d="M72 1522q4 94 16 192t33 184q106 23 230 36.5t256 20.5q131 7 267 8h90q89 0 176 -1q130 -2 248.5 -6t217.5 -8q12 -33 16 -87.5t5 -112.5v-38q0 -38 -1 -76q-2 -56 -4 -94q-104 -5 -207 -5q-51 0 -103 1q-31 1 -62 1q-124 0 -249 -13q-16 -25 -27 -74q-10 -48 -14 -106 q-1 -22 -2 -45q0 -35 4 -68q6 -55 19 -92q6 -2 43 -2t91 1t118.5 1h125t113 -1t78.5 -8q8 -74 12 -160q1 -25 2 -48q0 -57 -8 -107q-70 -8 -143.5 -9l-147 -2t-146 -5t-142.5 -19q-13 -31 -19 -81q-4 -37 -5 -76q0 -14 1 -29q2 -55 7.5 -107.5t11.5 -85.5q45 -14 128 -17 q42 -2 85.5 -2t90.5 2q93 3 183 5q22 0 43 1q62 0 105 -5q14 -93 16 -199v-17q0 -97 -22 -183q-168 -16 -329 -26.5t-326 -11.5h-37q-147 0 -300 7q-172 8 -360 31q-14 170 -20 362q-5 190 -6 388v99q0 149 2 299q3 200 7 386q-35 0 -81 1t-80 1z" />
<glyph unicode="F" horiz-adv-x="1626" d="M80 1538q6 111 8 206t4 138q111 29 242 45.5t270 22.5q104 4 208 5q36 0 70 -1q138 -2 262 -6t227 -10t171 -11q1 -35 1 -70q0 -69 -5 -141q-8 -108 -37 -203q-75 -16 -157 -18q-41 -1 -82.5 -1t-82.5 1q-83 2 -165 5q-27 1 -54 1q-54 0 -108 -4q-18 -14 -26 -60 q-7 -45 -9 -103q-1 -29 -1 -56.5t1 -53.5q2 -52 2 -79q47 -16 127 -19.5t169 -4.5q43 -1 87 -1h29q29 0 58 1h24q70 0 119 -5q12 -51 17 -93q4 -30 4 -59q0 -12 -1 -23q-2 -40 -9 -81t-22 -92q-76 -10 -149.5 -13t-147 -7.5t-148.5 -10.5t-149 -26q-2 -6 -3 -83 q-2 -78 -2 -184v-35q0 -91 2 -192q2 -121 7 -215q-39 -16 -115.5 -29.5t-165.5 -20.5t-181.5 -7t-163.5 10q-19 195 -23 405q-2 94 -2 187v62q0 83 1 165q3 205 11.5 394.5t16.5 340.5q-23 0 -65 11.5t-64 17.5z" />
<glyph unicode="G" horiz-adv-x="1945" d="M97 704v32q1 116 14.5 241t40 252t68.5 234.5t100.5 187.5t138.5 114q111 49 263 81t315 53.5t317.5 32t271.5 18.5q35 -100 52 -222q14 -91 14 -168q0 -26 -2 -51q-82 -10 -185.5 -19t-210 -22.5t-208 -35t-181.5 -50.5q-33 -33 -57.5 -93t-42 -136t-28.5 -160t-13 -165 v-35q0 -60 5 -114q7 -69 22 -116q47 -18 108.5 -34.5t122.5 -28t114 -14.5q33 -2 57 -2q16 0 28 1q14 49 22 82t10 64t-3 62.5t-17 78.5q-59 27 -130 31q-35 2 -67 2t-61 -2q-8 63 -8 119q0 16 1 32q3 70 27 150q84 20 193.5 33.5t222.5 21.5t216.5 12.5t174.5 4.5 q8 -139 14.5 -315.5t11.5 -356.5t7 -351.5t2 -302.5q-49 -6 -122 -10t-153.5 -4t-162.5 7t-150 26v123q-94 8 -214 17t-245.5 21.5t-246.5 33t-215 59.5q-76 33 -118 67.5t-63.5 80.5t-29.5 110.5t-15 153.5q-5 74 -5 169z" />
<glyph unicode="H" horiz-adv-x="1949" d="M118 799v103q1 208 4 400.5t7 352.5t6 252q37 12 95.5 20t126 13.5t137.5 7.5q35 1 67.5 1t62.5 -1q58 -2 99 -7.5t49 -17.5q-23 -153 -23 -323q1 -4 1 -7v-329q45 -14 113 -14h5q70 0 142.5 9t132 21t82.5 20q10 47 10 125t-3 165t-5 175q-1 29 -1 57q0 55 3 101 q33 16 113.5 28.5t172 18.5t174 6t117.5 -8q10 -127 14 -303q4 -144 4 -304v-71q-1 -200 -5 -405t-8.5 -387.5t-8.5 -324.5t-6 -218q-43 -8 -128 -11t-176 -3t-168 2t-103 4q-3 48 -3 104q0 28 1 59q2 91 5 188q2 58 2 116q0 38 -1 76q-2 94 -17 169q-28 1 -96 7 q-57 5 -118 5h-22q-72 -1 -133 -13.5t-77 -45.5q-10 -168 -16 -334q-2 -73 -2 -146q0 -93 4 -187q-68 -14 -143 -23.5t-153 -12.5q-46 -2 -92 -2q-31 0 -62 1q-77 2 -148 10q-12 86 -20 240q-7 156 -10 346q-2 143 -2 295z" />
<glyph unicode="I" horiz-adv-x="897" d="M161 922v157q0 155 1 307q2 228 8 416q68 16 143.5 23.5t152.5 10.5t150.5 3h139.5q0 -442 -13 -888.5t-36 -901.5q-16 -10 -55.5 -17t-89.5 -13.5t-106.5 -9.5t-108.5 -4t-94 -1t-65 2q-12 207 -19 442.5t-8 473.5z" />
<glyph unicode="J" horiz-adv-x="1568" d="M94 157q0 89 15 191q84 4 163.5 7t158.5 11.5t157 30t157 58.5q23 92 34.5 263t11.5 372.5t-8.5 410.5t-24.5 381q55 14 131 28.5t163 23.5q62 6 126 6q26 0 53 -2q92 -3 178 -21q12 -96 19 -245q5 -128 5 -278v-46q-1 -177 -6.5 -363t-13.5 -358t-16 -313.5t-17 -227.5 q-57 -37 -162.5 -69.5t-234.5 -57.5t-267 -41t-260 -22q-56 -2 -106 -2q-59 0 -110 4q-93 6 -131 24q-6 59 -13 173q-2 30 -2 62z" />
<glyph unicode="K" horiz-adv-x="1912" d="M114 525v72q1 183 5 373.5t9 357.5t9 300t6 201q57 12 149.5 15t185.5 3t171 -4t105 -6q-2 -63 -6.5 -139t-4.5 -154t4.5 -156.5t14.5 -150.5q4 -35 32 -38h2q26 0 60 50q33 49 85 131t109.5 173.5t113 181.5t93.5 155q26 2 52 2q44 0 92 -6q76 -10 154.5 -26.5 t157.5 -35t151 -34.5q-31 -57 -91.5 -164.5t-130 -234.5t-139 -255t-119.5 -227q47 -119 105.5 -226.5t120 -207.5t122 -199.5t111.5 -209.5q-55 -23 -140 -41.5t-174 -30.5t-170 -18.5t-128 -8.5q-74 102 -139.5 204.5t-119.5 192t-94 157t-65 100.5q-18 12 -33 12 q-12 0 -22 -9.5t-10 -37.5q0 -49 2 -122t2 -153t-2 -158.5t-7 -142.5q-20 -10 -67 -19t-107.5 -15.5t-126.5 -10.5t-128 -5h-40q-38 0 -70 1q-48 2 -73 8q-10 115 -14 280q-3 132 -3 276z" />
<glyph unicode="L" horiz-adv-x="1548" d="M116 1471v106q1 156 7 270q18 10 66.5 17.5t113 12.5t138 8t142 3t124 -2t84.5 -6q-4 -182 -6.5 -386t-2.5 -392.5v-342v-231.5q80 -20 167 -24q44 -2 87.5 -2t87.5 2q88 4 174 14.5t164 20.5q12 -125 14 -244v-15q0 -112 -22 -229q-51 -6 -140 -15t-199.5 -17.5 t-236.5 -15.5t-254 -11t-249 -4t-223 8q-2 100 -7.5 243.5t-10.5 310.5t-10 347t-7 352q-1 115 -1 222z" />
<glyph unicode="M" horiz-adv-x="2529" d="M82 112q0 66 1 140q3 172 9 361.5t15.5 381t19.5 358.5t19.5 295t15.5 187q57 16 135 32.5t162 27t166 19.5t150.5 12t116.5 3t60 -4q51 -158 96.5 -318.5t110.5 -310.5q12 -27 41 -41t55 7q12 10 36 56t52.5 113.5t60.5 147.5t60.5 152.5t50 131t29.5 83.5q61 14 166 22 q104 8 220 9h33q97 0 193 -5q110 -6 185 -18q20 -487 34.5 -968.5t43.5 -979.5q-45 -27 -122 -38t-166 -14q-33 -1 -67 -1q-56 0 -114 3q-92 5 -170 13q-2 35 -6.5 105.5t-9.5 161t-10 185.5t-10 177t-9 138.5t-6 66.5q-14 48 -38 48q-3 0 -5 -1q-27 -6 -44 -41 q-25 -55 -65.5 -149.5t-87.5 -205t-98.5 -227t-98.5 -221.5q-56 0 -114 -3q-13 -1 -27 -1q-44 0 -88 8q-55 98 -102.5 203.5t-88.5 207t-73.5 190.5t-59.5 157q-10 29 -38.5 38t-45.5 -26q-10 -20 -17 -80.5t-12 -141.5t-8.5 -173t-5.5 -175t-3 -149.5t-3 -97.5 q-129 -27 -254 -28h-14q-119 0 -254 16q-2 74 -2 161z" />
<glyph unicode="N" horiz-adv-x="2117" d="M119 1196q0 176 3 337t7 282q12 12 70.5 24t143.5 24.5t185.5 22.5t193.5 14.5t170 6.5h29q55 0 85 -6q66 -209 146.5 -410t160.5 -399q8 -16 23.5 -27.5t34 -9.5t34.5 19.5t25 53.5q2 8 4 50.5t3 106t4 141t4 153.5t3 142.5t4 109.5q192 50 384 50q71 0 142 -7 q3 -301 3 -603q0 -151 -1 -303q-2 -454 -14 -902q-66 -10 -157 -21.5t-196.5 -23t-220 -19.5t-227.5 -10q-111 184 -202 383.5t-168 408.5q-8 23 -29 34t-41 7t-36.5 -22.5t-20.5 -54.5q-19 -181 -19 -411v-23q0 -142 6 -302q-123 -33 -247 -39q-22 -1 -45 -1 q-103 0 -213 22q-8 78 -14.5 210t-10.5 293.5t-5 342t-1 356.5z" />
<glyph unicode="O" horiz-adv-x="2109" d="M96 669.5q0 151.5 1 303t3 295t9 250.5q29 33 73.5 90t94 116.5t95.5 109.5t77 69q74 6 168 15t199.5 17.5t218 13.5t221 5t210 -6t183.5 -25q45 -39 90 -94t87 -115.5t81 -124t71 -121.5q4 -70 9.5 -170t8.5 -208.5t5 -221t2 -213t-3 -180.5t-9 -125 q-72 -100 -136.5 -203.5t-142.5 -197.5q-76 -16 -180.5 -24.5t-224 -14.5t-247.5 -6t-253 4t-240.5 11t-210.5 20q-31 35 -68.5 92t-74.5 122.5t-67.5 129t-47.5 112.5q-2 123 -2 274.5zM802 685q1 -95 3 -173t2 -115q49 -25 115 -32q30 -3 61 -3q37 0 73 4q68 8 127.5 32 t96.5 59q2 100 6 211.5t4 233.5t-5 250t-19 255q-63 -2 -118.5 -3t-108 -6t-102.5 -17.5t-103 -39.5q-12 -25 -18.5 -94t-9.5 -161q-3 -94 -4 -200v-103v-98z" />
<glyph unicode="P" horiz-adv-x="2056" d="M82 1495q2 61 11 122.5t19.5 116t19.5 98.5t11 71q53 14 165 25t254 16q144 6 302 8q79 1 155 1q77 0 149 -1q146 -2 263 -6t181 -11q84 -88 141 -177t98 -183t69.5 -199.5t55.5 -228.5q-4 -41 -39.5 -110.5t-88 -147.5t-113 -151.5t-113.5 -119.5q-98 -31 -207.5 -55 t-218.5 -42.5t-209 -31t-180 -16.5v-44q0 -100 7 -206q5 -68 5 -134q0 -59 -4 -116q-57 -6 -132 -12t-154.5 -10t-158.5 -4t-147 4q-6 41 -11 130t-6 212t-1 271.5t2 305t6 311t8 289.5q-23 0 -63.5 6.5t-75.5 18.5zM843 1102q0 -64 9 -119q10 -1 22 -1q29 0 70 4 q57 5 119.5 21.5t121 42t95.5 60.5q-4 104 -26.5 195.5t-43.5 132.5q-20 23 -63 35t-92 15q-18 1 -37 1q-30 0 -60 -3q-48 -5 -79 -13q-6 -37 -14.5 -95.5t-14.5 -125t-7 -137.5v-13z" />
<glyph unicode="Q" horiz-adv-x="2101" d="M105 1006v43q0 119 5 232q5 134 13 247q72 78 145.5 174t151.5 180q88 16 202.5 27.5t236.5 18.5t243 10.5t223 3.5t177 1t106 1q45 -37 89 -90.5t86 -110.5t81 -116.5t71 -113.5q10 -72 18.5 -168t13.5 -200.5t8 -212t3 -202.5t-2 -171t-6 -121q-51 -70 -96 -143.5 t-92 -144.5q41 -39 74.5 -72t56.5 -58q-29 -43 -76 -78.5t-105.5 -62t-126 -48t-139.5 -36.5q-41 49 -85 103.5t-87 113.5q-135 -8 -267 -9q-66 -1 -128.5 -1t-122.5 1q-119 1 -218 5t-167 6q-33 35 -70.5 88.5t-72.5 115t-64.5 121.5t-48.5 110q-14 131 -21.5 273t-8.5 284 zM793 945q0 -118 4 -235.5t10 -228.5q43 -8 96 -15t109 -9q-41 74 -66.5 137t-36.5 111q41 45 114 64t140 30q39 -66 107 -142q2 94 4 195q1 51 1 102t-1 102q-2 101 -8 194t-21 169q-43 0 -96 6.5t-109 9.5q-20 1 -40 1l-74 -4q-56 -5 -103 -27q-16 -109 -23 -225.5 t-7 -234.5z" />
<glyph unicode="R" horiz-adv-x="2011" d="M70 1456q0 49 3 103.5t9 109.5t14 106.5t19 92.5q55 18 163.5 29.5t246 17.5t292 6t300 -4t271 -12.5t205.5 -24.5q59 -53 120 -141t109 -201t74 -240q18 -87 19 -178q0 -41 -4 -82q-45 -57 -124 -150t-167 -179q18 -29 45 -82.5t57.5 -114.5t62.5 -128t59.5 -124 t48 -101.5t28.5 -64.5q-35 -23 -103.5 -44t-151.5 -39.5t-170 -33t-155 -16.5q-47 57 -84.5 108.5t-73.5 103.5t-72 104.5t-79 113.5q-16 23 -34.5 48.5t-38 45t-42 28.5t-45.5 -1q-29 -12 -35 -49t-6 -72q1 -64 1 -128v-63q-1 -96 -5 -194q-39 -12 -102 -23.5t-141 -17.5 t-167 -6t-179 10q-14 176 -21.5 364.5t-10.5 376.5q-2 112 -2 224q0 74 1 150q2 188 4 362q-25 2 -65 2t-74 8zM825 1183.5q0 -65.5 3 -122.5t12 -94q41 0 98 5t115.5 17t110.5 33.5t85 58.5q2 18 2 38q0 25 -3 53q-5 50 -12 95.5t-15.5 81t-10.5 48.5q-20 23 -72.5 38 t-110.5 21q-35 4 -68 4q-23 0 -45 -2q-54 -4 -80 -24q-4 -53 -6.5 -119t-2.5 -131.5z" />
<glyph unicode="S" horiz-adv-x="1699" d="M80 921q0 187 32 375q40 234 132 443q147 57 307 96t323.5 63.5t327.5 32.5q94 5 185 5q68 0 135 -3q31 -98 37 -217q5 -89 5 -170q0 -27 -1 -53q-174 -27 -349.5 -42t-349.5 -50q-35 -59 -45 -128t-12 -140q188 -37 375.5 -68t378.5 -66q37 -89 48 -193q6 -57 6 -115 q0 -47 -4 -94q-9 -105 -38 -204.5t-72 -181.5q-147 -76 -305 -130t-320.5 -92t-327.5 -63.5t-323 -46.5q-18 14 -33.5 79t-24.5 140.5t-15 145.5q-3 36 -3 61v12q0 16 1 27q88 4 191 17.5t201.5 32t180.5 41t125 44.5q10 31 14 79q2 24 2 47t-2 44q-25 18 -82 31.5t-131 25 t-157.5 22.5t-161.5 24.5t-143.5 31t-104.5 43.5q-2 47 -2 94z" />
<glyph unicode="T" horiz-adv-x="1828" d="M57 1409q1 79 7 162q10 131 40 254q27 12 106 23.5t189.5 19.5t245.5 14t275.5 10t276.5 6q85 2 162 2h89q115 -2 196.5 -6t114.5 -10q4 -47 4 -108.5t-4 -123t-11 -116.5t-13 -92q-111 -14 -217.5 -23.5t-217.5 -13.5q-10 -51 -20 -148.5t-19.5 -221.5t-16.5 -264 t-12 -276.5t-6 -258.5q-2 -61 -2 -115q0 -11 1 -21q0 -42 1 -79q-156 -27 -312 -51q-97 -15 -194 -15h-12q-52 0 -104 4q-18 209 -26.5 381t-10.5 332q-1 80 -1 160t1 162q2 162 4 350q-46 3 -97 3h-26q-66 -1 -134 -4.5t-133.5 -11.5t-121.5 -12q-2 43 -2 88z" />
<glyph unicode="U" horiz-adv-x="1994" d="M122 1130v138.5v130.5q1 127 5 234.5t12 170.5q163 20 317 24q27 1 55 1q129 0 273 -17q-14 -196 -18 -368q-3 -137 -3 -266v-63q1 -157 8 -300t15 -289q40 -20 100 -28q36 -5 73 -6q23 0 47 2q60 6 117 25.5t91 55.5q0 147 -2 308t-3 324t-1 318.5t2 291.5 q162 37 323 37h4q33 0 65 -1q132 0 268 2q-2 -158 -6 -345t-6.5 -377.5t-2.5 -368.5t5 -320q-14 -45 -43 -100t-65 -113.5t-74 -114t-72 -98.5q-117 -4 -272.5 -12t-322.5 -14t-332 -6t-302 14q-29 31 -65 83t-71.5 111.5t-64.5 118t-43 101.5q0 76 -2 191.5t-5 249 t-4 275.5z" />
<glyph unicode="V" horiz-adv-x="1880" d="M70 1829q76 10 170 23.5t182 23.5t154 15q22 2 38 2q33 0 43 -7q8 -59 23.5 -138t33 -165t36 -173t36 -165t31.5 -136t21 -91q2 -10 11 -36t20.5 -52.5t24.5 -48t24 -21.5q16 0 29.5 14.5t23.5 33t17 38t11 31.5q61 219 137 454.5t144 452.5q75 9 145 9q23 0 45 -1 q90 -4 162 -14t123.5 -23.5t71.5 -25.5q-72 -201 -153 -427t-164 -461.5t-165.5 -473.5t-158.5 -461q-74 -10 -160 -17t-173 -11.5t-173 -5.5h-34q-67 0 -126 3q-41 121 -87 273.5t-91 320.5t-87 343t-78 341t-63.5 314.5t-43.5 261.5z" />
<glyph unicode="W" horiz-adv-x="2678" d="M80 1855q148 27 300 39q41 3 83 3q114 0 235 -23q37 -199 70 -397.5t63 -401.5q4 -20 29 -25.5t31 9.5q31 82 63.5 192.5t65.5 225t62.5 225t54.5 192.5q141 12 287 20q21 1 43 1h21q113 0 222 -21q63 -199 124.5 -393t119.5 -397q4 -10 13 -21.5t20.5 -10.5t22.5 19.5 t18 63.5q49 373 90 756q93 20 195 20h17q18 0 36 -1q131 -6 270 -19q-6 -143 -23.5 -315.5t-42 -353.5t-52.5 -362.5t-55.5 -344t-52 -299t-43.5 -226.5q-111 -8 -211 -14t-197 -10t-194.5 -5t-203.5 -1q-4 20 -12.5 72t-19.5 124t-24.5 153t-26 154.5t-23.5 134t-17 87.5 q-8 37 -23.5 54t-32 16t-31 -19.5t-24.5 -50.5q-12 -49 -33.5 -130t-47 -180.5t-52.5 -209t-51 -216.5q-113 -8 -208 -12q-76 -3 -148 -3h-36q-89 1 -179.5 6t-190.5 9q-51 238 -89 473.5t-71 470t-65.5 471t-75.5 471.5z" />
<glyph unicode="X" horiz-adv-x="1916" d="M47 -57q37 104 88 225t113.5 249t131.5 256t138 238q-29 41 -65.5 114t-78.5 160t-83 185t-77 190.5t-63.5 174.5t-41.5 137q55 8 132.5 17t159.5 18.5t161 12.5q34 1 64 1q40 0 72 -2q27 -57 54.5 -114.5t53 -111t46 -97.5t33.5 -72q2 -8 11 -22.5t21.5 -31t25.5 -28.5 t24 -12q33 0 53 28.5t29 42.5q18 35 46.5 86t62.5 109.5t69 118t65 114.5q67 7 134 7q32 0 66 -2q100 -5 184.5 -15t145 -21.5t83.5 -17.5q-74 -143 -146.5 -269t-142.5 -242t-138.5 -224.5t-134.5 -216.5q55 -102 123 -226t137.5 -251t138 -246t124.5 -215 q-76 -8 -171.5 -18.5t-183.5 -20.5q-89 -9 -155 -15q-29 -2 -48 -3q-25 0 -34 4q-27 51 -62.5 113.5t-72.5 124t-69 111.5t-50 76q-6 12 -19.5 35t-35.5 23q-33 0 -52.5 -30t-29.5 -44q-57 -94 -124 -204.5t-110 -215.5q-100 -10 -199.5 -10t-181.5 4t-140 11.5t-81 11.5z " />
<glyph unicode="Y" horiz-adv-x="1974" d="M74 1872q78 4 177 13t191.5 15.5t161.5 8.5q22 1 40 1q34 0 46 -3q12 -55 46 -132t72 -154t70.5 -141.5t43.5 -90.5q2 -8 11 -22.5t21.5 -32t25.5 -30t26 -12.5q35 0 57 27t31 41q63 133 120.5 273.5t128.5 271.5q89 5 172 5h27q96 -1 172 -7.5t129 -14.5t76 -16 q-74 -119 -155 -264.5t-166 -301t-170 -310t-164 -287.5q-4 -190 -8.5 -365.5t-10.5 -327.5q-70 -14 -145 -19q-63 -4 -127 -4h-26q-77 1 -151.5 5t-142.5 4q0 184 -5 365.5t-9 365.5q-45 57 -100.5 147.5t-112.5 195t-114.5 218t-104.5 221t-83 200.5t-50 157z" />
<glyph unicode="Z" horiz-adv-x="1556" d="M76 337.5q0 22.5 2 41.5q92 139 194.5 301t199.5 317.5t178 295t126 229.5q-52 4 -106 4q-28 0 -54 -1q-82 -3 -163 -5q-41 -1 -82 -1t-81 1q-81 2 -157 18q-27 94 -33 192q-4 58 -4 120q0 41 2 83q100 4 258 20.5t340 24.5q96 5 194 5h35q70 0 141 -3q189 -8 353 -53 q2 -45 6.5 -103.5t6.5 -118.5q1 -40 1 -79v-38q-1 -58 -10 -105q-80 -172 -161.5 -316.5t-163.5 -276.5t-164 -257t-162 -258q68 -8 158 -9t185 -1t184 -0.5t157 -6.5q4 -44 4 -89q0 -50 -5 -101q-9 -96 -30 -195q-160 -25 -328.5 -33t-334.5 -8t-321.5 6.5t-288.5 14.5 q-16 49 -32 107.5t-27 117t-15 111.5q-2 26 -2 48.5z" />
<glyph unicode="[" horiz-adv-x="1077" d="M166 942q0 252 4 490.5t10 429.5q84 16 187.5 32.5t209 24.5t206 8t180.5 -14q4 -35 9 -82t9 -97.5t5 -96.5t-3 -81q-51 -6 -114.5 -12t-116.5 -8q-12 -121 -19.5 -275.5t-11.5 -316.5t-3 -316.5t7 -275.5q84 -23 154.5 -30t107.5 -15q8 -72 7 -165t-11 -165 q-190 -20 -396 -13t-399 26q-12 207 -17 453.5t-5 498.5z" />
<glyph unicode="\" horiz-adv-x="1456" d="M45 1870q51 6 121 16t143.5 18.5t144 12.5t124.5 0q31 -90 83 -223t119.5 -298t145.5 -348.5t161.5 -368.5t168.5 -362t165 -329q-68 -8 -154.5 -19.5t-165.5 -20.5t-138.5 -14.5t-75.5 -1.5q-23 51 -77 160t-121.5 245t-140.5 286.5t-134 285.5q-20 45 -53 119t-70 162 t-76 184t-72.5 187.5t-59.5 171t-38 137.5z" />
<glyph unicode="]" horiz-adv-x="1077" d="M159 1737q1 92 11 164q190 20 396 14t399 -25q12 -207 17 -454.5t5 -498.5t-4 -489.5t-10 -427.5q-84 -18 -187.5 -33.5t-209 -25.5t-206 -10t-180.5 14q-4 35 -9 83t-9 97.5t-5 97.5t3 81q51 6 114.5 12t116.5 8q12 121 19.5 275.5t11.5 316.5t3 317.5t-7 272.5 q-84 25 -154.5 32t-107.5 15q-8 72 -7 164z" />
<glyph unicode="^" horiz-adv-x="1458" d="M47 831q29 88 68 193.5t86 216.5t99 221.5t106 206.5q53 10 141 14.5t181 5.5t177 -2.5t127 -5.5q43 -88 94.5 -194.5t104.5 -216t104.5 -213t94.5 -187.5q-57 -6 -130 -15t-139.5 -17.5t-118 -12.5t-63.5 2q-20 43 -47 97.5t-54.5 105.5t-52 96t-39.5 66q-4 12 -14 30.5 t-27 18.5q-27 0 -42 -24.5t-21 -36.5q-43 -80 -94 -176.5t-84 -186.5q-76 -8 -152 -9t-138 3t-106.5 10t-60.5 10z" />
<glyph unicode="_" horiz-adv-x="1302" d="M103 224.5q3 64.5 13.5 119.5t22.5 90q53 2 136 5t180.5 5t203 3.5t201.5 0t178 -3.5t131 -8q6 -33 12.5 -91t9.5 -120.5t2 -122t-9 -92.5q-127 -8 -260 -12t-267.5 -6t-267.5 -8.5t-258 -18.5q-18 59 -24.5 127t-3.5 132.5z" />
<glyph unicode="`" horiz-adv-x="790" d="M51 1532q104 53 227 83t261 30q12 -37 30.5 -93.5t43 -119t54 -127t66.5 -117.5q-33 -12 -70.5 -23.5t-77.5 -18.5t-79 -12.5t-72 -7.5q-96 66 -193.5 179.5t-189.5 226.5z" />
<glyph unicode="a" horiz-adv-x="1708" d="M63 317q4 133 37 264.5t80 221.5q49 31 140.5 58.5t202 54t231 49t231.5 41.5q-6 25 -12 56.5t-12 43.5q-47 29 -131.5 43t-183.5 18q-79 3 -161 3h-41q-102 -1 -184 -1q-1 15 -1 33q0 34 3 72q4 56 13.5 109t22.5 93t32 58q140 14 286 22q96 6 192 6q52 0 102 -2 q148 -4 290.5 -24t276.5 -57q39 -49 64.5 -148.5t41.5 -228.5t23.5 -276.5t8.5 -289.5v-57q0 -112 -3 -215q-4 -129 -10 -219q-72 -20 -178.5 -38.5t-229.5 -32t-255 -22.5t-254 -12q-46 -1 -89 -1q-72 0 -136 3q-104 5 -171 17q-27 37 -60.5 83t-65.5 95t-58.5 96.5 t-41.5 83.5zM688 458q2 -38 9.5 -75t17.5 -66q38 -16 95 -16q14 0 30 1q78 5 188 15q-2 92 -3 176.5t-5 172.5q-82 -16 -157 -25.5t-150 -46.5q-15 -26 -21 -62q-4 -22 -4 -46v-10v-18z" />
<glyph unicode="b" horiz-adv-x="1847" d="M144 480v73q0 129 2 273q4 186 7 371t7 357t6 308q66 20 145.5 37.5t158.5 27.5q80 9 152 15q42 3 76 3q25 0 47 -1q-2 -47 -6 -135.5t-6 -182.5t-2 -172t2 -106q35 8 105.5 13t153.5 10t167 7t146 2q59 -23 125.5 -78t131 -128.5t119.5 -154.5t88 -153 q-8 -86 -25.5 -208.5t-42 -240.5t-56 -214.5t-68.5 -128.5q-49 -10 -129 -25.5t-173 -29t-192.5 -25.5t-187.5 -17q-164 -10 -317 -10q-38 0 -76 1q-188 3 -342 40q-8 61 -11.5 186t-4.5 286zM732 603q1 -81 5 -148.5t11 -106.5q28 -6 58 -6h16q38 2 78 6t77 13.5t65 19.5 q23 33 36.5 94.5t20.5 135t8 149.5v49q0 47 -1 88q-20 18 -65.5 30.5t-99.5 16.5q-24 2 -48 2q-31 0 -59 -3q-52 -5 -89 -19q-8 -72 -11 -156q-2 -63 -2 -124v-41z" />
<glyph unicode="c" horiz-adv-x="1511" d="M65 575q1 69 5 143q8 130 29.5 252t55 226t76.5 168q53 29 150.5 55.5t215.5 47t245 35.5q128 16 240 22q68 4 125 4q39 0 73 -2q86 -4 121 -19q6 -45 13 -139q2 -24 2 -50q0 -73 -15 -153q-94 -6 -179 -10t-162 -11t-149.5 -20.5t-146.5 -44.5q-20 -72 -40 -165 q-18 -93 -28 -186q-6 -57 -6 -111q0 -34 2 -66q6 -84 37 -135q33 -18 91.5 -29.5t130 -18t148.5 -9.5t145.5 -5t121 -6t72.5 -12q1 -14 1 -30q0 -32 -3 -70q-4 -56 -13.5 -107t-23 -92t-31.5 -53q-143 0 -300 5t-314.5 18t-310 42t-287.5 74q-39 47 -60.5 139t-27.5 209 q-3 51 -3 104z" />
<glyph unicode="d" horiz-adv-x="1898" d="M85 467q0 51 7 111q14 122 50 248t90.5 238t121.5 177q92 18 188.5 40t195.5 38q98 17 200 25q60 5 121 5q43 0 86 -3q0 57 2 129.5t4 146.5t5 142.5t5 119.5q59 25 138 33q57 6 116 6q22 0 45 -1q82 -3 158 -16.5t129 -33.5q0 -209 1 -457v-249.5v-253.5 q-1 -255 -6 -495.5t-22 -434.5q-106 -27 -228 -41.5t-247 -19.5q-78 -3 -156 -3q-47 0 -93 1q-124 3 -235.5 12.5t-204.5 18.5t-157 17q-86 74 -163.5 189.5t-143.5 218.5q-7 41 -7 92zM707 490q0 -75 14 -140q37 -12 88 -18t108.5 -6t113.5 6t104 18q6 14 8 88q1 49 1 106 v59q-1 91 -3 177t-4 123q-72 20 -157 20q-16 0 -30 -1q-102 -4 -186 -45q-34 -147 -50 -283q-6 -55 -7 -104z" />
<glyph unicode="e" horiz-adv-x="1771" d="M75 580q0 70 5 144q8 130 29.5 252t54.5 226.5t76 167.5q53 29 158.5 55.5t235.5 47t272 35.5q140 16 264 22q74 4 138 4q42 0 80 -2q94 -4 130 -19q47 -82 81.5 -188t56.5 -224t32 -242q7 -80 7 -157v-19q0 -33 -1 -65q-66 -10 -182.5 -22t-255 -22.5t-285 -18.5 t-269.5 -12q4 -37 12.5 -68t22.5 -53q31 -18 94.5 -33.5t141.5 -25t163 -17.5t159.5 -14t131 -12.5t76.5 -14.5q1 -14 1 -30q0 -32 -3 -69q-4 -56 -13 -107.5t-22.5 -92.5t-31.5 -53q-141 0 -307 10t-334 30.5t-330 55.5t-297 80q-39 47 -60.5 139t-27.5 209q-3 50 -3 103z M711 854q22 -1 44 -1h12q82 0 156 13q99 16 171 35q2 24 2 49q0 36 -4 72q-6 64 -31 113q-35 -2 -66.5 -3.5t-65.5 -5.5t-72 -12t-85 -29q-18 -59 -34.5 -105t-26.5 -126z" />
<glyph unicode="f" horiz-adv-x="1597" d="M107 980q0 22 1 45q3 54 8 100t11 75q41 4 125 7t182 3q4 111 12.5 211.5t20.5 183.5t29.5 141t40.5 89q133 49 244.5 74.5t220 38t223 14.5t254.5 4q18 -12 31.5 -49t22.5 -84t13 -101q3 -35 3 -65q0 -15 -1 -29q-115 -8 -237.5 -34.5t-216.5 -87.5q-18 -33 -30.5 -89.5 t-21.5 -177.5q57 -10 106.5 -12t96.5 -2t95 1h20q39 0 80 -3q12 -53 16 -94q3 -33 3 -66v-16q-1 -41 -9 -82t-20 -92q-74 -10 -118 -13.5t-83 -7.5t-83 -10t-118 -21q-2 -102 -2 -223v-233.5t1 -207.5t3 -144q-66 -14 -143.5 -22.5t-156.5 -12.5q-63 -3 -122 -3h-30 q-72 1 -127 9q-4 53 -8.5 142t-8.5 199.5t-6 237.5t-2 261q-84 -4 -162 -8.5t-141 -14.5q-10 49 -13 105q-3 32 -3 64z" />
<glyph unicode="g" horiz-adv-x="1751" d="M65 696q0 66 5 134q8 122 29.5 237t55 216t76.5 165q74 39 181.5 68.5t232.5 48t259 29t265 10.5t250 -8.5t211 -24.5q2 -29 3 -131q1 -50 1 -109t-1 -127q-1 -135 -3 -290.5t-6 -296t-11 -250t-16 -152.5q-16 -84 -40.5 -165t-59.5 -147.5t-82 -116.5t-106 -73 q-100 -37 -237.5 -62.5t-283 -43t-286 -26.5t-244.5 -13q-31 78 -47 175q-12 71 -12 132q0 23 2 45q74 6 167 13.5t189 18.5t187.5 27.5t162.5 40.5q18 16 33.5 69.5t26.5 125.5q-100 -5 -200 -5q-111 0 -220 6q-209 11 -391 60q-39 41 -60.5 127t-27.5 196q-3 48 -3 97z M690 782q0 -27 2 -52q6 -64 37 -114q37 -18 109 -24q55 -4 118 -4h43q8 158 10.5 317.5t2.5 317.5q-66 -8 -126.5 -21.5t-121.5 -38.5q-20 -72 -39.5 -147.5t-28.5 -147.5q-6 -45 -6 -86z" />
<glyph unicode="h" horiz-adv-x="1755" d="M105 648v74q1 167 4.5 320.5t6.5 281.5t5 202q33 8 85 15t114 13q60 5 124 6h61h56q53 -1 89 -6.5t44 -15.5q-20 -123 -20 -263v-265q42 -10 106 -10q5 0 9 -1q61 1 121 7q66 6 118.5 16t73.5 18q8 37 8 99.5t-2 132t-4 141.5q-1 24 -1 46q0 44 3 79q29 14 101.5 24.5 t155.5 15.5t156.5 5t106.5 -8q10 -101 13 -243q2 -107 2 -223v-78q-1 -159 -4 -323.5t-7 -309t-8 -259t-6 -174.5q-37 -6 -114 -9t-158.5 -3t-151.5 1t-94 5q-2 31 -2 69q0 28 1 59q3 73 5 151q1 39 1 77t-1 76q-2 76 -15 137q-27 2 -87 6q-49 4 -102 4h-24 q-66 -1 -121 -11.5t-67 -37.5q-10 -133 -14 -267q-2 -67 -2 -133.5t2 -133.5q-122 -25 -266 -28q-33 -1 -65 -1q-108 0 -208 8q-10 68 -16 192q-5 124 -9 276q-3 119 -3 246z" />
<glyph unicode="i" horiz-adv-x="806" d="M128 1686q0 14 1 30q2 39 7 76t9 57q6 37 40 63.5t77 45t87 28t71 15.5q12 2 26 2q12 0 28 -2q32 -4 64.5 -12.5t64.5 -18.5t52 -22q29 -70 43 -148q8 -45 8 -90q0 -32 -4 -65q-12 -25 -56 -45.5t-102 -33.5q-56 -12 -122 -19q-46 -5 -88 -5q-18 0 -35 1q-57 3 -99 12.5 t-55 29.5q-12 23 -15 57q-2 21 -2 44zM143 818q0 278 11 525q61 12 128.5 18.5t136 9.5t135.5 3h126q0 -178 -3 -340t-9 -322.5t-13.5 -325.5t-17.5 -347q-23 -12 -88.5 -19.5t-139 -12.5t-142 -5t-97.5 2q-23 334 -26 684q-1 66 -1 130z" />
<glyph unicode="j" horiz-adv-x="882" d="M-455 -213q0 71 15 156q76 2 147.5 3t142 9t141 24.5t142.5 47.5q14 49 22.5 149t12.5 228t4 273.5t-3 287t-9 267.5t-17 218q49 12 118 24.5t147 18.5q51 4 105 4q27 0 55 -1q83 -3 161 -17q12 -76 15 -209q3 -78 3 -164q0 -62 -1 -129q-3 -160 -10 -332t-15 -328.5 t-17.5 -283.5t-17.5 -193q-39 -61 -129 -108t-203.5 -79t-238.5 -50.5t-237 -24.5q-55 -3 -104.5 -3t-93.5 3q-86 6 -120 23q-6 47 -14 137q-1 24 -1 49zM161 1786q0 15 1 30q2 39 7 76t9 58q6 37 40 63.5t77 45t86 27.5t70 15q13 2 27 2t30 -2q31 -4 63.5 -12t63.5 -18.5 t53 -22.5q29 -70 43 -148q8 -46 8 -93q0 -33 -4 -66q-14 -25 -57 -43.5t-101.5 -31.5t-122.5 -20q-42 -4 -82 -4q-21 0 -42 2q-58 3 -99 12t-53 30q-12 23 -15 58q-2 20 -2 42z" />
<glyph unicode="k" horiz-adv-x="1722" d="M103 513v69q1 194 4.5 398t7.5 383t8 315.5t6 191.5q51 10 134 12q55 1 112 1h56q85 -1 153.5 -4t93.5 -5q-2 -35 -4 -102.5t-3 -153.5t-1 -180.5t1 -180.5t5 -157.5t10 -110.5q4 -27 28 -29h2q23 0 56 39q29 39 76 104.5t98 139.5t101.5 146.5t85.5 123.5h27 q48 0 100 -5q68 -7 139 -19t141.5 -27.5t136.5 -29.5q-29 -43 -83 -131.5t-116.5 -188.5t-125 -203.5t-105.5 -181.5q41 -96 93.5 -181t107.5 -165t110.5 -160t100.5 -168q-49 -16 -126 -31.5t-157 -24.5t-152.5 -15.5t-115.5 -10.5q-66 84 -125 167t-107.5 153.5t-84 125 t-58.5 79.5q-18 10 -31 10q-10 0 -19 -6t-9 -31q0 -39 1 -97.5t1 -122t-1 -128t-5 -113.5q-29 -14 -107 -22.5t-166 -13.5t-166.5 -5t-111.5 8q-9 92 -13 253q-3 106 -3 225v60z" />
<glyph unicode="l" horiz-adv-x="905" d="M157 1498v104q1 152 7 245q16 6 59 13.5t101.5 11.5t125 5t128.5 2h39q38 0 72 -1q50 -2 75 -4q-2 -96 -4 -262t-3 -358.5t-1 -397.5v-380v-303v-169q-70 -8 -116 -13t-102 -6h-23q-49 0 -111 3q-78 4 -216 10q-2 80 -6 222t-8 316.5t-9 366t-7 369.5q-1 119 -1 226z" />
<glyph unicode="m" horiz-adv-x="2275" d="M75 71q0 59 1 129q2 140 8 290.5t14 304t16.5 286.5t16.5 235.5t14 147.5q53 16 123 28.5t144.5 22t149.5 15.5t136.5 10t104.5 4t53 -2q47 -129 87 -258t99 -246q10 -25 37 -36t51 6q10 8 31 46t47.5 93t55 117.5t54 121t45 103.5t28.5 65q55 14 149 20.5t198 7.5h34 q86 0 168 -4q100 -5 165 -15q20 -389 33.5 -774.5t38.5 -786.5q-41 -18 -110.5 -27.5t-149.5 -11.5q-23 -1 -46 -1q-58 0 -117 4q-83 5 -152 9q-2 27 -5.5 85.5t-8.5 129t-9 147.5t-9 141.5t-8 110.5t-6 52q-14 43 -39.5 38t-37.5 -32q-23 -45 -60 -119.5t-80 -163 t-88 -182.5t-88 -180q-53 0 -104 -1h-11q-45 0 -92 7q-49 78 -92 163t-79.5 165t-66.5 152.5t-52 125.5q-10 23 -35 30t-41 -19q-8 -14 -15.5 -63.5t-11.5 -114t-7 -139.5t-5 -141.5t-3 -119.5t-1 -76q-117 -20 -229 -21h-18q-105 0 -224 11q-1 50 -1 110z" />
<glyph unicode="n" horiz-adv-x="1904" d="M106 956.5q0 141.5 2.5 270.5t6.5 225q10 10 63 19.5t130 19.5t167 17.5t174 12.5t153.5 5t102.5 -6q59 -166 132 -326t145 -320q6 -14 20.5 -23t30.5 -6t30.5 16t22.5 40q2 10 5 79t5 160t5.5 182t5.5 142q117 27 235 35q59 4 118.5 4t119.5 -4q3 -240 3 -482 q0 -121 -1 -241q-2 -364 -13 -723q-59 -8 -141 -17t-177 -19.5t-197.5 -16.5t-204.5 -8q-100 147 -181.5 308t-152.5 327q-8 18 -25.5 27.5t-36 6t-34 -17.5t-19.5 -45q-14 -124 -17 -268q-1 -33 -1 -68q0 -116 8 -250q-110 -29 -222 -33q-19 -1 -40 -1q-93 0 -193 16 q-8 61 -14 166.5t-9 236.5t-4.5 274.5t-1.5 285z" />
<glyph unicode="o" horiz-adv-x="1802" d="M82 550v231.5t3 224t7 190.5q25 25 64 68t81 87t80.5 81.5t65.5 54.5q94 6 226 17q133 12 275 18q107 4 211 4h69q138 -2 245 -23q78 -61 150.5 -159.5t132.5 -184.5q6 -84 11 -208t7 -251q1 -85 1 -161v-73q-1 -108 -9 -159q-59 -74 -115.5 -152.5t-122.5 -152.5 q-98 -18 -246.5 -26.5t-311.5 -8.5t-322.5 6.5t-280.5 20.5q-27 27 -58.5 69.5t-62 92t-57.5 98.5t-41 86q-2 94 -2 210zM686 573.5q0 -73.5 2 -131t2 -86.5q44 -20 100 -25q26 -2 51 -2q31 0 63 3q58 6 108.5 24t81.5 43q4 153 8 341q1 26 1 52q0 163 -22 332 q-53 -2 -101 -3t-92 -5t-87 -13t-88 -30q-10 -20 -15.5 -72.5t-8.5 -123t-3 -150.5v-153.5z" />
<glyph unicode="p" horiz-adv-x="1851" d="M143 604q0 182 1 350t7.5 310.5t14.5 240.5q47 14 143.5 24.5t216 15.5t251.5 6q66 1 129.5 1t125.5 -1q123 -1 224.5 -5t156.5 -10q76 -84 128 -169t89 -175t62.5 -190.5t50.5 -215.5q-4 -37 -36 -104.5t-79 -141t-101 -143t-104 -112.5q-88 -27 -186 -50.5t-196.5 -41 t-188.5 -29.5t-162 -17q0 -57 2 -123.5l4 -133t3 -130.5v-26q0 -50 -3 -96q-51 -6 -118.5 -12.5t-139 -10.5t-143.5 -4t-131 4q-4 129 -9 291t-8.5 339t-3.5 359zM723 728q0 -83 8 -155q11 -1 24 -1q25 0 58 4q51 8 107.5 26.5t109.5 48t86 70.5q-4 123 -24.5 231.5 t-38.5 157.5q-18 27 -57.5 40t-83.5 17q-20 2 -39 2q-24 0 -48 -3q-43 -5 -71 -17q-4 -43 -12.5 -112.5t-13.5 -147.5t-5 -161z" />
<glyph unicode="q" horiz-adv-x="1847" d="M94 639q6 86 23.5 208t43 239.5t57.5 215t67 132.5q49 8 129 22t174 27.5t192.5 26t186.5 16.5q176 10 339 10h54q188 -2 344 -41q8 -61 11 -186t3 -285t-2 -345t-5 -370.5t-7 -357.5t-6 -307q-68 -20 -146.5 -39t-158.5 -29t-152 -15q-40 -3 -74 -3q-26 0 -49 2 q4 47 7 135t4 183t3 174v34q0 51 -4 72q-35 -8 -104.5 -14.5t-152.5 -11.5t-168 -7t-146 -2q-57 23 -124.5 79t-132 130t-119 154.5t-87.5 152.5zM757 694q0 -47 1 -88q20 -18 65 -29.5t99 -15.5q23 -2 47 -2q30 0 59 3q53 5 90 20q10 72 12 156q2 41 2 82t-2 81 q-2 80 -6 147.5t-10 106.5q-33 8 -73 8t-79.5 -6t-76.5 -15t-66 -20q-20 -33 -33.5 -94t-20.5 -135t-8 -150v-49z" />
<glyph unicode="r" horiz-adv-x="1798" d="M126 906q0 98 2 188q3 150 10 264.5t20 159.5q51 14 144 22t208 11q46 2 95 2q12 -1 24 -1q61 0 125 -1q129 -3 252.5 -9t232.5 -14t182 -21q53 -45 108.5 -114.5t97.5 -157.5q43 -89 65 -191q15 -67 15 -135v-9q0 -33 -3 -66q-41 -49 -113.5 -124t-154.5 -147 q25 -37 66.5 -111.5t85.5 -154.5t80 -148.5t46 -91.5q-31 -16 -95.5 -34.5t-141 -35t-156.5 -27.5t-143 -13q-43 47 -78 89t-69 85t-66.5 87t-73.5 95q-14 20 -31.5 39.5t-36 35t-38 24t-42.5 -0.5q-27 -10 -32.5 -40.5t-4.5 -57.5v-157.5t-4 -159.5q-37 -10 -96 -18.5 t-131 -14.5t-154.5 -6t-166.5 8q-6 68 -11.5 198t-9.5 288.5t-6 330.5q-1 69 -1 134zM700 955.5q0 -52.5 3.5 -100.5t9.5 -81q39 0 91 5t106.5 15.5t102.5 28.5t79 47q2 16 2 33q0 19 -2 40q-4 40 -11.5 79t-14.5 67.5t-9 38.5q-20 20 -68.5 33t-102.5 18q-30 3 -59 3 q-23 0 -45 -2q-49 -4 -73 -19q-4 -45 -6.5 -99t-2.5 -106.5z" />
<glyph unicode="s" horiz-adv-x="1529" d="M72 746q0 146 28 292q36 188 119 355q133 45 277.5 76.5t292 50t293.5 25.5q93 4 185 4q52 0 103 -1q27 -80 33 -175q5 -71 5 -135q0 -21 -1 -42q-158 -23 -314.5 -36t-314.5 -40q-33 -47 -41 -102t-10 -111q170 -31 338 -56.5t340 -51.5q33 -70 43 -153q6 -46 6 -93 q0 -37 -4 -75q-8 -85 -33.5 -166t-64.5 -146q-131 -61 -274.5 -104.5t-290 -72t-294 -50t-290.5 -35.5q-18 10 -31.5 61t-21.5 111q-9 60 -13 118q-3 38 -3 61q0 11 1 19q78 6 171 15.5t181 25t163 34t114 34.5q8 25 12 63q2 19 2 37.5t-2 34.5q-23 16 -74 26.5t-117.5 20.5 t-142 18.5t-146.5 18.5t-129 24.5t-93 37.5q-2 41 -2 82z" />
<glyph unicode="t" horiz-adv-x="1609" d="M35 1010q0 58 5 122q9 106 38 205q63 27 405 45q0 49 1 116t2 135.5t3.5 133t4.5 107.5q59 12 138 18t159.5 9.5t158.5 3.5h138v-117t-1.5 -139.5t-2.5 -138t-1 -115.5h160t142.5 -1t112 -3.5t67.5 -8.5q4 -37 4 -86t-3 -98t-9.5 -93t-12.5 -73q-49 -6 -109.5 -10 t-122 -8t-122 -6t-109.5 -7q-14 -61 -20 -181t-9 -262q-2 -106 -2 -214v-72q1 -144 3 -254q-139 -18 -279 -40q-84 -13 -166 -13h-12q-50 0 -100 4q-16 168 -24 286q-7 117 -9 223q-1 53 -1 107q0 55 1 109q2 110 2 258q-55 5 -112 5q-52 0 -105 -4q-113 -9 -211 -19 q-2 37 -2 76z" />
<glyph unicode="u" d="M110 1048v70q1 104 4 189.5t11 136.5q147 18 285 21h40q121 0 257 -15q-12 -158 -16 -295q-4 -112 -4 -217v-46q1 -126 7 -241.5t15 -230.5q37 -14 90 -20q36 -4 73 -5q16 0 34 1q54 3 104.5 19.5t83.5 43.5q0 119 -2 248t-3.5 259t-1.5 255t3 231q147 29 293 29t300 4 q-2 -127 -6 -276.5t-6 -302t-2 -295t4 -255.5q-12 -37 -37.5 -81t-58.5 -91t-67.5 -91t-65.5 -79q-104 -2 -243.5 -8t-290 -11t-299 -5t-273.5 10q-25 25 -57.5 67t-64.5 89t-57.5 94t-37.5 82q0 61 -2 153.5t-4 198.5t-4 218q-1 74 -1 146z" />
<glyph unicode="v" horiz-adv-x="1691" d="M61 1464q68 8 154 17.5t164 18.5q78 8 137 12q20 1 34 2q30 0 40 -5q12 -72 34.5 -175t48 -205.5t48 -189.5t31.5 -124q2 -6 10 -27.5t18.5 -43t22.5 -38t20 -16.5q16 0 28.5 10.5t22 24.5t16.5 30.5t9 24.5q53 178 122 364.5t130 360.5q75 8 144 8h27q81 -2 145.5 -11 t110.5 -19.5t64 -18.5q-63 -162 -135.5 -343t-148.5 -369.5t-150.5 -378t-142.5 -369.5q-66 -6 -142.5 -12t-155.5 -10.5t-155.5 -4.5t-144.5 3q-57 145 -119.5 342.5t-119 406.5t-101.5 403.5t-66 331.5z" />
<glyph unicode="w" horiz-adv-x="2410" d="M72 1485q133 19 270 29q41 3 82 3q99 0 203 -18q35 -160 63.5 -318.5t57.5 -320.5q2 -8 9 -14t16 -7t17.5 0t10.5 9q29 63 58.5 152.5t59 182.5t56 181t49.5 152q127 12 259 16q22 1 44 1q109 0 213 -17q55 -160 110.5 -316t108.5 -317q4 -10 12.5 -18.5t18.5 -7.5 t19.5 15.5t15.5 51.5q23 147 43 299.5t39 304.5q87 17 183 17q19 0 39 -1q118 -4 243 -16q-6 -115 -22.5 -252t-38 -282.5t-46 -289t-49.5 -274.5t-47.5 -239.5t-38.5 -182.5q-98 -8 -188.5 -12t-178.5 -7t-175 -3h-183q-4 14 -11.5 56t-17.5 99.5t-22.5 122t-23.5 123.5 t-20.5 106.5t-15.5 69.5q-15 57 -45 57h-4q-33 -4 -49 -57q-12 -39 -31.5 -103.5t-42 -143t-47 -166t-47.5 -173.5q-100 -6 -186 -10t-166 -4t-161 4t-173 8q-47 188 -81 377t-62.5 378.5t-58 376.5t-68.5 378z" />
<glyph unicode="x" horiz-adv-x="1724" d="M41 -45q33 80 80 178t103.5 200.5t117.5 205t125 192.5q-39 49 -94.5 149.5t-110.5 215t-100 225.5t-64 176q51 6 120 14.5t142.5 15.5t143.5 11q35 2 66.5 2t58.5 -2q49 -94 97 -182t71 -137q2 -6 10 -18.5t19.5 -25t22.5 -21.5t21 -9q29 0 47.5 21.5t26.5 33.5 q16 31 42 71t56.5 87t62.5 95t58 89q65 6 131 6q26 0 50 -1q90 -3 165.5 -10t130 -17.5t74.5 -14.5q-68 -115 -132 -216t-127.5 -193t-125 -179.5t-121.5 -175.5q49 -84 110.5 -182t124 -198.5t124 -196.5t112.5 -172q-68 -6 -153.5 -15.5t-165.5 -16.5t-140 -11 q-30 -2 -48 -2t-25 2q-25 41 -56.5 92t-64.5 99t-61.5 88t-44.5 63q-8 8 -19.5 26.5t-32.5 18.5q-29 0 -47 -22.5t-26 -34.5q-53 -76 -112.5 -164t-98.5 -174q-90 -9 -180 -9h-17q-79 0 -145 4q-74 4 -127.5 8.5t-73.5 10.5z" />
<glyph unicode="y" d="M66 1497q72 6 160.5 12.5t171.5 11.5t146 7q20 1 36 1q31 0 41 -3q12 -43 42.5 -105.5t64.5 -124t62.5 -112.5t38.5 -74q2 -6 10.5 -18.5t19.5 -25.5t23.5 -22.5t22.5 -9.5q31 0 51.5 21.5t26.5 34.5q57 104 109.5 216.5t115.5 215.5q85 7 162 7h20q85 -1 152.5 -6 t115.5 -12.5t68 -13.5q-66 -92 -138 -210t-149 -242.5t-154 -247.5t-148 -230q-4 -154 -8.5 -294t-8.5 -259q-61 -12 -129.5 -16t-137.5 -4t-136.5 4t-128.5 4q0 147 -4 291.5t-9 292.5q-41 47 -90 118.5t-101 154.5t-103.5 175t-95.5 178t-74.5 160t-44.5 125z" />
<glyph unicode="z" horiz-adv-x="1400" d="M68 270.5q0 17.5 2 32.5q84 111 176 240t179 254t159.5 235.5t113.5 184.5q-63 3 -127 3q-79 0 -163 -4q-39 -2 -78 -2q-108 0 -209 15q-25 79 -31 155q-4 46 -4 95q0 33 2 67q90 6 232 18q144 13 306 20q81 4 164.5 4t168.5 -4q171 -7 319 -42q2 -37 5 -84t5 -95 q1 -24 1 -47.5t-1 -46.5q-2 -46 -8 -83q-72 -137 -144.5 -253t-146.5 -221.5t-147.5 -207t-145.5 -205.5q57 -8 133 -8q5 1 9 1h167h166t140 -5q4 -36 4 -71v-12q0 -36 -5 -71q-10 -76 -28 -153q-143 -20 -294.5 -26.5t-301 -6.5t-290 5t-259.5 9q-16 39 -30.5 87t-23.5 95 t-13 89q-2 21 -2 38.5z" />
<glyph unicode="{" horiz-adv-x="1032" d="M94 950q41 33 76 70q29 31 54.5 68.5t29.5 78.5q10 86 -6.5 170t-31.5 162t-14 145.5t44 116.5q90 102 253 147.5t367 69.5q12 -23 28.5 -58.5t31 -76.5t23.5 -84t9 -80q-74 -8 -134 -44t-101 -91q-16 -20 -7 -71.5t26.5 -115t34 -133t9.5 -130.5q-2 -29 -24.5 -53.5 t-48.5 -43.5q-31 -25 -70 -47q35 -45 62 -84q23 -35 42 -68.5t19 -58.5q0 -74 -20.5 -141.5t-40 -123.5t-30.5 -97t5 -64q10 -14 31.5 -31.5t49 -33t58.5 -27.5t60 -18q-8 -98 -31 -183.5t-53 -125.5q-68 10 -149 31.5t-160.5 51t-151.5 63.5t-121 64q-33 20 -37 76t5 132.5 t24.5 166.5t23.5 180q4 35 -16 83.5t-47 95.5q-31 53 -72 112z" />
<glyph unicode="|" horiz-adv-x="1175" d="M75 1655.5q3 66.5 11 123t20 91.5q47 2 125 6t171.5 5t193.5 2t192.5 1t169 -2t119.5 -8q6 -37 11.5 -95.5t8.5 -121t1 -121.5t-8 -96q-41 -4 -94.5 -6t-98.5 -4q-4 -252 -12 -506t-19 -512q47 0 97.5 -1t78.5 -5q6 -33 10.5 -88.5t7.5 -113t1 -111.5t-8 -87 q-104 -6 -223 -10t-241 -6t-241 -7.5t-223 -17.5q-14 53 -19.5 116.5t-2.5 123t10.5 112t17.5 82.5q14 0 36.5 2t48.5 3.5t52.5 2.5t46.5 1q-8 248 -10 504.5t2 494.5q-20 0 -48 -1t-56.5 -3t-56 -5t-48.5 -5q-16 59 -21 127.5t-2 135z" />
<glyph unicode="}" horiz-adv-x="1032" d="M80 211q74 10 135 46t100 89q16 23 7 73t-26 115.5t-33.5 135t-10.5 129.5q4 27 26.5 52.5t49.5 45.5q31 25 69 45q-35 43 -61 82q-23 35 -43.5 70.5t-20.5 58.5q2 74 21.5 141.5t40 124t31 97t-6.5 61.5q-10 16 -31.5 32.5t-49 33t-57.5 30t-58 15.5q6 98 28.5 183 t53.5 128q68 -10 148.5 -32.5t160.5 -52.5t151.5 -62.5t120.5 -65.5q33 -18 38 -73.5t-4 -133.5t-24.5 -167t-25.5 -181q-4 -31 17.5 -80t47.5 -96q31 -55 70 -113q-41 -33 -76 -70q-29 -33 -54.5 -70.5t-29.5 -76.5q-8 -84 7.5 -169t31 -163t14.5 -145.5t-44 -116.5 q-45 -53 -108.5 -88t-143.5 -58.5t-173.5 -40t-195.5 -30.5q-12 23 -28.5 58.5t-31 75.5t-23.5 83t-9 80z" />
<glyph unicode="~" horiz-adv-x="1454" d="M78 1120q31 74 73 159t90 162t100 138t101 88q53 31 111.5 13.5t121 -56.5t129 -88t136.5 -86q47 -25 94 2t84 68q43 49 84 118q57 -35 109.5 -84t81.5 -112q-14 -25 -45 -75t-69 -111.5t-83 -126t-91 -116.5t-90 -83t-81 -29q-61 8 -140 46t-153 81t-133 72.5t-82 17.5 q-14 -8 -33.5 -26.5t-40 -44t-41 -55t-39.5 -58.5q-76 41 -124 89t-70 97z" />
<glyph unicode="&#xa1;" horiz-adv-x="905" d="M113 -6q31 199 58.5 390t50 356t38.5 289t25 192q29 4 88 12t125.5 14t125 9.5t83.5 -5.5q23 -324 17.5 -643t-5.5 -637q-162 -20 -317.5 -23t-288.5 46zM225 1901q12 25 56.5 45t101.5 34.5t122.5 20.5t123 4t99.5 -12.5t54 -32.5q12 -23 15.5 -58.5t1.5 -75.5t-7.5 -79 t-9.5 -64q-8 -39 -40.5 -65.5t-75.5 -45t-86 -29.5t-72 -15q-23 -6 -54.5 -2t-64.5 11t-63.5 19.5t-53.5 22.5q-29 74 -43 156t-4 166z" />
<glyph unicode="&#xa2;" horiz-adv-x="1589" d="M101 705q-1 153 17.5 307.5t52.5 289t77 207.5q31 10 59.5 18.5t61 17.5t74.5 17.5t102 16.5q-2 63 -4 114.5t-4 96.5t-4.5 86t-6.5 86q66 27 139.5 43t149.5 24.5t148.5 8.5t134.5 -6q-20 -121 -25.5 -220.5t-15.5 -189.5q68 8 120 13t95 8.5t81 5.5t77 -2 q4 -16 9 -54.5t10 -84.5t7 -90t-2 -79q-72 -4 -154.5 -16t-165.5 -29.5t-161 -35t-142 -31.5q-25 -47 -44 -118t-27 -148.5t-1 -154.5t36 -134q31 -14 111.5 -27.5t179 -25t197.5 -21.5t167 -16q2 -20 -3 -65.5t-14.5 -96.5t-23.5 -97.5t-33 -68.5q-51 4 -87 6t-68.5 2 t-70.5 3t-93 11q-4 -70 -4 -139t-2 -178q-37 -10 -102.5 -16t-137.5 -7.5t-135.5 1t-95.5 12.5q-25 92 -31 182t-12 195q-49 12 -104.5 18t-109 17.5t-104.5 31t-92 53.5q-25 106 -26 259z" />
<glyph unicode="&#xa3;" horiz-adv-x="1556" d="M101 352.5q1 55.5 10 100.5q86 127 134 200.5t79 116.5q-59 -6 -102.5 -9t-69.5 -9q-20 123 -15.5 212t19.5 158q23 6 88 7t159 4q-51 39 -113.5 90t-121.5 90q10 88 23.5 200.5t48.5 217.5q285 102 601 144t615 30q14 -45 22.5 -94.5t12.5 -100.5t4 -102.5v-98.5 q-82 -12 -154.5 -22t-142.5 -18.5t-141.5 -19.5t-155.5 -26q-33 -51 -33 -108.5t19 -89.5q68 -20 118 -31.5t98 -19t101 -13.5t127 -20q8 -72 9 -160t-9 -160q-25 -2 -51.5 -10t-63 -16.5t-86 -15.5t-118.5 -7q-57 -80 -113.5 -166t-140.5 -190q78 -2 159.5 -1t163.5 2 t163 -1t157 -15q29 -92 35 -184t2 -192q-68 -2 -162 -12.5t-204.5 -18.5t-232.5 -14.5t-247 -4.5t-247 14.5t-230 39.5q-2 45 -6.5 99t-6.5 111.5t-1 113z" />
<glyph unicode="&#xa5;" horiz-adv-x="1880" d="M63 1927q23 6 80.5 15.5t137 16.5t177 8t195.5 -7q49 -154 111.5 -292t122.5 -277q8 -16 28.5 -45t53.5 -29q23 0 36 23.5t17 37.5q10 29 41 100.5t67.5 158.5t72.5 176.5t61 150.5q16 4 76.5 3t140.5 -7t168.5 -13.5t162.5 -13.5q-57 -111 -128.5 -266.5t-147.5 -327.5 q45 0 82 -3t61 -7q4 -35 7.5 -92t4.5 -118.5t0 -120t-5 -91.5q-84 -12 -172.5 -15t-178.5 -7q-49 -111 -92 -199q55 2 119.5 3t124 1t111 -2t81.5 -8q4 -35 7.5 -92.5t4.5 -118.5t0 -118.5t-5 -92.5q-113 -14 -233 -16t-236 -15l-13 -250q-16 -10 -59 -18t-99.5 -14 t-120 -10.5t-122 -5.5t-104.5 -1t-66 2q-4 76 -7 155t-8 161q-111 -6 -224 -9.5t-220 -23.5q-10 59 -13 126t-1 130t7 118.5t11 90.5q31 2 82 6t109.5 5t121 2t117.5 -1v45q-45 68 -94 154q-86 -2 -172 -7t-168 -20q-10 59 -13 126t-1 130.5t7 118.5t11 90q41 2 119 6 q-72 166 -132.5 320.5t-101.5 273.5z" />
<glyph unicode="&#xa7;" horiz-adv-x="1662" d="M98 1060q4 122 18.5 244.5t37 232.5t52.5 196t66 135q59 16 152.5 33.5t205 33t232.5 30.5t235.5 23.5t213 13.5t164.5 3q4 -20 10 -59t11 -85t7 -91.5t-2 -79.5q-70 -4 -165 -15.5t-195.5 -25t-194.5 -26.5t-164 -24q-29 -27 -39 -71.5t7 -85.5q35 -8 96 -17.5 t137 -20.5t159 -22.5t160.5 -22.5t142 -19.5t103.5 -12.5q39 -145 47.5 -302t-7 -308.5t-50.5 -289.5t-82 -247q-131 -51 -279.5 -90t-304 -67.5t-312.5 -47t-304 -32.5q-18 23 -31.5 70.5t-22.5 99t-14.5 98.5t-3.5 65q45 6 108.5 14.5t135.5 18.5t145.5 19.5t138 21.5 t112.5 23.5t69 21.5q14 6 26.5 23.5t15.5 37t-8.5 37t-45.5 19.5q-37 6 -96.5 14.5t-112.5 14.5q-47 4 -117 11t-146.5 17.5t-152.5 23.5t-137 30q-16 90 -20.5 202.5t-0.5 234.5zM636 989q-3 -37 11 -88q41 -16 98.5 -27.5t113.5 -17.5t105.5 -9t73.5 -3q16 55 19 94 t-13 84q-29 0 -74.5 6t-98 15.5t-105.5 19.5t-100 18q-27 -55 -30 -92z" />
<glyph unicode="&#xa8;" horiz-adv-x="1339" d="M128 1312q1 46 5 89t8 69q6 43 32 74t59.5 52.5t68.5 33.5t57 19q18 4 44 1t51.5 -13.5t50 -22.5t41.5 -25q23 -84 35 -176t2 -184q-10 -29 -45 -51.5t-80 -38t-97.5 -23.5t-97.5 -6t-78.5 14.5t-42.5 34.5q-8 25 -11 66t-2 87zM798 1324q1 42 5 84t6 67q6 41 29.5 70.5 t54.5 49t62.5 31.5t52.5 16q35 8 87 -11t85 -44q23 -80 32.5 -168t1.5 -176q-14 -39 -74.5 -66.5t-130 -39t-129 -1t-71.5 45.5q-8 23 -10 61.5t-1 80.5z" />
<glyph unicode="&#xa9;" horiz-adv-x="2101" d="M105 970.5q-1 141.5 4.5 275.5t13.5 247q72 80 145.5 175t151.5 179q88 16 202.5 27.5t236.5 19t243 10.5t223 3t177 1t106 1q45 -37 89 -90.5t86 -110.5t81 -116.5t71 -112.5q10 -72 18.5 -167t13.5 -199.5t8 -213t3 -203t-2 -171t-6 -119.5q-68 -98 -128 -199 t-134 -193q-170 -23 -361.5 -34t-371.5 -12t-334 3t-250 9q-33 35 -70.5 89t-72.5 115.5t-64.5 121t-48.5 108.5q-14 131 -21.5 273t-8.5 283.5zM492.5 950q-3.5 -176 17 -346t63.5 -282q102 -35 233.5 -57.5t263.5 -25.5t251 11t195 51q35 150 45 324t0.5 346t-35 332.5 t-60.5 285.5q-106 29 -238 39t-258 2t-227.5 -34.5t-144.5 -69.5q-51 -86 -76.5 -243t-29 -333zM599 762q-3 86 3 175t19.5 170t34 146.5t42.5 100.5q147 78 307 107.5t334 31.5q10 -10 20.5 -35.5t17.5 -61.5t11.5 -73t4.5 -68q-18 -10 -68.5 -20t-108 -22.5t-112.5 -28 t-84 -37.5q-18 -37 -25.5 -94.5t-7.5 -124t7 -133t20 -117.5q43 -23 91 -31t100 -11t107.5 -4t112.5 -5q10 -80 7 -149.5t-7 -104.5q-33 -8 -93 -9.5t-135 5t-157 16.5t-156.5 24.5t-135 33t-93.5 38.5q-27 47 -40 121t-16 160z" />
<glyph unicode="&#xaa;" horiz-adv-x="1290" d="M103 224.5q3 64.5 13.5 119.5t22.5 90q53 2 136 5t180.5 5t203 3.5t201.5 0t178 -3.5t131 -8q6 -33 12.5 -91t9.5 -120.5t2 -122t-9 -92.5q-127 -8 -260 -12t-267.5 -6t-267.5 -8.5t-258 -18.5q-18 59 -24.5 127t-3.5 132.5zM123 1156q4 136 24.5 264t53.5 200 q41 16 113.5 33.5t161.5 33t187.5 30t190.5 23.5t170 14t127 5q16 -139 25.5 -291.5t13.5 -301t3 -285.5t-5 -248q-16 -8 -77.5 -19.5t-133.5 -20.5t-136.5 -12t-86.5 -1q0 20 -1 51t-3 49h-125t-150 5t-157.5 15.5t-147.5 30.5q-29 53 -40 171t-7 254zM521 1019.5 q3 -61.5 18 -97.5q37 -12 95 -1t107 11q-4 147 -5 271t1 263q-29 -2 -49 -4t-38.5 -8t-40 -16.5t-52.5 -26.5q-10 -53 -20.5 -122.5t-14.5 -138.5t-1 -130.5z" />
<glyph unicode="&#xab;" horiz-adv-x="1884" d="M98 874q129 207 243 408t234 412q82 6 163 3t149.5 -10.5t117 -17.5t66.5 -14q-61 -117 -119.5 -217.5t-115 -192.5t-111.5 -178t-109 -174q45 -84 100.5 -182.5t112 -199.5t111.5 -196.5t100 -171.5q-61 -8 -138 -16t-148.5 -16.5t-125 -11.5t-67.5 1 q-131 193 -246.5 384.5t-216.5 389.5zM829 874q129 207 244 408t236 412q82 6 162.5 3t148.5 -10.5t116 -17.5t66 -14q-59 -117 -117.5 -217.5t-115 -192.5t-111.5 -178t-108 -174q45 -84 99 -182.5t110.5 -199.5t111.5 -196.5t101 -171.5q-61 -8 -138.5 -16t-148 -16.5 t-124.5 -11.5t-67 1q-133 193 -248.5 384.5t-216.5 389.5z" />
<glyph unicode="&#xac;" horiz-adv-x="1888" d="M113 982q0 71 2 148.5t7 145t11 119t14 69.5q98 6 228.5 7.5t275 -1t295 -7.5t290.5 -10t261 -9t205 -8q6 -104 6 -233.5t-3 -263.5t-9 -267t-13.5 -250t-14.5 -210t-13 -146q-104 -23 -204 -22t-204 13q8 82 16.5 173.5t12.5 183.5t0 184t-21 174h-195.5h-285.5t-330 -1 t-325 -5q-2 29 -4 87t-2 129z" />
<glyph unicode="&#xad;" horiz-adv-x="819" d="M108.5 762.5q2.5 66.5 7.5 123t11 93.5q43 6 122 9t165 6t163.5 0t118.5 -9q4 -37 7.5 -97.5t4.5 -125t-0.5 -122.5t-5.5 -95q-141 -18 -290.5 -19.5t-288.5 -27.5q-10 61 -13.5 129.5t-1 135z" />
<glyph unicode="&#xae;" horiz-adv-x="2101" d="M105 970.5q-1 141.5 4.5 275.5t13.5 247q72 80 145.5 175t151.5 179q88 16 202.5 27.5t236.5 19t243 10.5t223 3t177 1t106 1q45 -37 89 -90.5t86 -110.5t81 -116.5t71 -112.5q10 -72 18.5 -167t13.5 -199.5t8 -213t3 -203t-2 -171t-6 -119.5q-68 -98 -128 -199 t-134 -193q-170 -23 -361.5 -34t-371.5 -12t-334 3t-250 9q-33 35 -70.5 89t-72.5 115.5t-64.5 121t-48.5 108.5q-14 131 -21.5 273t-8.5 283.5zM492.5 950q-3.5 -176 17 -346t63.5 -282q102 -35 233.5 -57.5t263.5 -25.5t251 11t195 51q35 150 45 324t0.5 346t-35 332.5 t-60.5 285.5q-106 29 -238 39t-258 2t-227.5 -34.5t-144.5 -69.5q-51 -86 -76.5 -243t-29 -333zM635 679q0 99 1 212t4 217t6 188t7 125q25 8 74 15.5t108.5 13.5t127 10t129 5t113.5 1t81 -4q78 -94 119 -203.5t68 -242.5q-2 -20 -25 -55t-48.5 -72t-49 -69t-27.5 -46 q20 -37 46 -94t50.5 -110.5t43 -98.5t24.5 -59q-51 -39 -128 -50.5t-151 -1.5q-31 41 -54.5 76t-42.5 70t-38.5 68.5t-44.5 72.5q-14 29 -34.5 44.5t-43.5 2.5q-6 -2 -11 -15t-8 -29.5t-4 -32t-1 -23.5q-2 -63 0 -101t-2 -104q-27 -2 -63 -2t-73.5 1t-75.5 5t-69 6 q-4 31 -6 106t-2 174zM936 999.5q0 -36.5 4 -69.5q16 -2 44 2t56.5 12t56.5 21.5t46 31.5q6 59 -11.5 102.5t-21.5 74.5q-10 12 -30.5 18t-43 7t-45 -1t-39.5 -6q-2 -20 -6 -52t-7 -68t-3 -72.5z" />
<glyph unicode="&#xb0;" horiz-adv-x="1122" d="M100 1281q0 105 2 202.5t7 154.5q43 45 116.5 78t162.5 49.5t186.5 18.5t183.5 -14.5t155.5 -51.5t102.5 -88q8 -53 13 -161.5t7 -224.5t1 -213t-5 -128q-35 -51 -107.5 -86t-162.5 -52t-189.5 -18.5t-189.5 17t-161.5 54.5t-106.5 89q-6 68 -10.5 168.5t-4.5 205.5z M438 1255q0 -41 2 -84t4 -96q27 -6 61 -9t67.5 -3t64.5 5t49 17q0 100 3 181.5t-13 175.5q-23 0 -50.5 3t-57 4t-59.5 -1t-54 -14q-8 -53 -12.5 -95.5t-4.5 -83.5z" />
<glyph unicode="&#xb1;" horiz-adv-x="1110" d="M100 1143.5q2 56.5 7.5 105.5t13.5 78q23 6 74 7t116 3q0 43 1 93.5t3 102.5t4.5 103.5t4.5 89.5q115 18 249 22.5t246 2.5v-101.5v-109.5v-106.5t-2 -94.5q68 0 119 -1t74 -5q4 -33 7 -83t5 -105t1 -105.5t-5 -83.5q-41 -4 -97.5 -5t-121.5 -5q-2 -37 -5 -81t-6.5 -92 t-5.5 -95t-6 -90q-20 -10 -81.5 -16.5t-130 -9.5t-132 -3t-92.5 2q-2 39 -6 88t-7 99.5t-5.5 98.5t-4.5 87q-61 -4 -113 -8t-89 -8q-10 51 -13.5 110t-1.5 115.5zM103 229.5q3 61.5 11.5 115.5t18.5 85q43 4 112.5 6t151.5 4t170 2h170t149.5 -2t108.5 -6q6 -33 11.5 -88 t8.5 -115.5t1 -115.5t-8 -90q-106 -6 -218 -9.5t-223.5 -5.5t-223.5 -8t-218 -18q-14 57 -19.5 120.5t-2.5 125z" />
<glyph unicode="&#xb4;" horiz-adv-x="790" d="M51 1178q35 53 64.5 117.5t54.5 127t43 118.5t31 93q139 0 262 -29.5t227 -82.5q-92 -113 -189.5 -226.5t-193.5 -179.5q-68 4 -151.5 19.5t-147.5 42.5z" />
<glyph unicode="&#xb6;" horiz-adv-x="2101" d="M51 1038q-10 133 12.5 260t64.5 238t97.5 200t108.5 142q74 10 210 16.5t302 10.5t344 2t337 -6.5t280.5 -16t172.5 -29.5q4 -209 8.5 -442t4.5 -476t-7.5 -488.5t-23.5 -479.5q-84 -10 -166 -10t-153.5 6t-130 17.5t-95.5 23.5q-2 49 -6 107.5t-8 120t-6 121t-2 106.5 q-41 6 -121 14q-6 -236 -6 -493q-117 -2 -235 -8.5t-236 22.5q-4 127 -7.5 262t-7.5 279q-129 20 -234.5 40.5t-158.5 40.5q-43 37 -89 88.5t-91 108.5t-86 115.5t-72 107.5zM659 1081q16 -8 47 -18t72 -19q0 96 1 193t3 193q-72 -16 -86 -33q-2 -12 -9 -48t-15 -82 t-12.5 -95.5t-0.5 -90.5zM1286 975q84 -8 121 -8q6 37 9 94t3 122.5t-2 131.5t-6 119q-12 10 -44 15t-79 7q2 -125 1 -244.5t-3 -236.5z" />
<glyph unicode="&#xb7;" horiz-adv-x="905" d="M164 703.5q2 37.5 7 74.5t9 60q6 37 40 62.5t77 44t86 28.5t70 14q25 6 56.5 2t64 -11t64.5 -18.5t52 -21.5q29 -72 43 -149.5t4 -157.5q-12 -25 -56 -43.5t-102.5 -31.5t-123 -19.5t-123 -5.5t-99 12.5t-53.5 31.5q-12 18 -15 54.5t-1 74z" />
<glyph unicode="&#xb8;" horiz-adv-x="1658" d="M342 -8q45 4 98.5 10t104.5 13.5t94 19.5t70 33q16 33 24 86t11.5 119.5t2 140t-3.5 143.5q37 6 99.5 6t130 -4t127 -12t90.5 -12q6 -76 7 -178.5t-5 -204t-23.5 -189.5t-48.5 -131q-74 -31 -170 -47t-196.5 -24.5t-197.5 -10.5t-175 -2q-10 8 -17.5 37t-12.5 65.5 t-7 75.5t-2 66z" />
<glyph unicode="&#xba;" horiz-adv-x="1290" d="M103 224.5q3 64.5 13.5 119.5t22.5 90q53 2 136 5t180.5 5t203 3.5t201.5 0t178 -3.5t131 -8q6 -33 12.5 -91t9.5 -120.5t2 -122t-9 -92.5q-127 -8 -260 -12t-267.5 -6t-267.5 -8.5t-258 -18.5q-18 59 -24.5 127t-3.5 132.5zM117 1193q0 120 2 227.5t6 170.5 q47 53 132 90t186.5 56.5t211 20.5t209 -17.5t177 -56t116.5 -99.5q6 -39 10 -109.5t8.5 -152.5t5.5 -169t1 -165t-1 -137t-5 -84q-41 -55 -123 -95t-184.5 -60.5t-215 -20.5t-215 19.5t-184.5 60.5t-121 102q-8 74 -12 186.5t-4 232.5zM500 1165q0 -45 3 -94t5 -110 q31 -4 68.5 -9.5t76.5 -5.5t72.5 7.5t56.5 21.5q0 109 4.5 202t-16.5 197q-25 0 -56.5 3t-65.5 4t-67.5 -1t-62.5 -14q-10 -59 -14 -107.5t-4 -93.5z" />
<glyph unicode="&#xbb;" horiz-adv-x="1847" d="M98 143q59 117 117.5 217.5t116 192.5t112 179t107.5 177q-45 82 -99.5 180.5t-110.5 200t-111.5 196.5t-100.5 173q61 4 138 14t148.5 17.5t125 10.5t67.5 -1q131 -193 247 -384.5t216 -391.5q-129 -207 -242.5 -404.5t-234.5 -413.5q-82 -6 -163 -3t-149.5 11.5 t-117 16.5t-66.5 12zM811 143q59 117 117.5 217.5t115 192.5t111.5 179t109 177q-45 82 -99.5 180.5t-111 200t-111.5 196.5t-100 173q61 4 138 14t147.5 17.5t125 10.5t66.5 -1q133 -193 248.5 -384.5t216.5 -391.5q-129 -205 -244 -405t-235 -413q-82 -6 -163 -3 t-148.5 11.5t-116 16.5t-66.5 12z" />
<glyph unicode="&#xbf;" horiz-adv-x="1449" d="M66 520.5q-2 90.5 12 151.5q37 33 87 74.5t103.5 82.5t104.5 75t90 57q33 80 40 153.5t25 159.5q39 12 116 20.5t163 14.5t164 10t119 4q10 -41 13 -96.5t3 -111.5t-4 -110.5t-8 -95.5q-27 -25 -66 -57.5t-87 -66t-102.5 -66.5t-109.5 -64q-10 -49 -7 -100t15 -90 q27 -18 78 -22.5t111.5 -3.5t126 8.5t124 18.5t103.5 20.5t63 17.5q-12 -63 -23 -121.5t-25.5 -115t-31 -115t-40.5 -125.5q-66 -35 -160 -55.5t-200.5 -27.5t-218.5 -4t-212 15t-180 32.5t-125 45.5q-12 49 -26.5 131t-23.5 174t-11 182.5zM488 1733q-4 47 4 96 q25 25 70.5 46t104 36.5t122 24t123 8.5t107.5 -7.5t75 -23.5q12 -8 18 -49t7 -90.5t-3 -92.5t-14 -55q-45 -55 -119 -85t-154.5 -36t-159.5 7.5t-137 37.5q-2 10 -12 36t-19 63t-13 84z" />
<glyph unicode="&#xc0;" horiz-adv-x="2078" d="M6 -27q53 -8 128 -14t156 -6t158.5 6t135.5 18q12 45 21 79t20.5 64t27 59.5t35.5 68.5q53 12 135 18t174.5 8t185.5 -1t165 -11q10 -47 19 -82t18.5 -65.5t21.5 -65.5t29 -82q61 -2 138 -1t160 5t166.5 12.5t161.5 20.5q-35 236 -77.5 453t-89 423.5t-95.5 411.5 t-98 414q-72 16 -177.5 24.5t-227 12.5t-250.5 2t-249 -8t-220.5 -17.5t-163.5 -25.5q-14 -29 -26.5 -67t-24 -81t-21.5 -86t-20 -78q12 -4 34.5 -9t44.5 -9q27 -6 58 -8q-63 -158 -135 -349.5t-136.5 -381t-113.5 -361.5t-68 -291zM641 2218q211 109 487 115 q12 -41 31 -96.5t43.5 -118t54 -126t66.5 -118.5q-33 -14 -71 -23.5t-77.5 -17.5t-78.5 -12t-72 -9q-47 33 -96 80t-97.5 99.5t-96.5 112t-93 114.5zM838 702q0 14 10 57.5t27.5 102t39 122t41 118.5t35 97t21.5 52q23 43 54.5 48.5t55.5 -48.5q20 -45 40 -112.5t36 -143 t28.5 -154t18.5 -139.5q-20 -4 -73.5 -8t-116 -4t-123 2t-94.5 10z" />
<glyph unicode="&#xc1;" horiz-adv-x="2078" d="M6 -27q18 119 67.5 291t114 361.5t136 381t135.5 349.5q-31 2 -58 8q-23 4 -45 9t-34 9q10 35 20 78t21.5 86t23.5 81t27 67q63 14 163.5 25.5t220.5 17.5t249 8t250.5 -2t227 -12.5t177.5 -24.5q49 -209 98 -414t95.5 -411.5t89 -423.5t77.5 -453q-78 -12 -161.5 -20.5 t-166.5 -12.5t-160 -5t-138 1q-16 47 -28.5 82t-22 65.5t-18.5 65.5t-19 82q-72 8 -165 11t-185.5 1t-174.5 -8t-135 -18q-20 -39 -35.5 -68.5t-27 -59.5t-20.5 -63.5t-21 -79.5q-57 -12 -135 -18t-159 -6t-156 6t-128 14zM838 702q35 -8 95 -10t122.5 -2t116 4t73.5 8 q-6 61 -18.5 139.5t-28.5 154t-35.5 143t-40.5 112.5q-25 53 -56.5 48t-53.5 -48q-6 -10 -21.5 -52t-35 -97t-41 -118.5t-39 -122t-27.5 -101.5t-10 -58zM874 1868q37 53 67 117.5t54.5 127t43 118t30.5 93.5q137 -2 260 -31.5t227 -82.5q-92 -115 -189 -227.5t-193 -178.5 q-68 4 -152 20.5t-148 43.5z" />
<glyph unicode="&#xc2;" horiz-adv-x="2078" d="M6 -27q18 119 67.5 291t114 361.5t136 381t135.5 349.5q-31 2 -58 8q-23 4 -45 9t-34 9q10 35 20 78t21.5 86t23.5 81t27 67q63 14 163.5 25.5t220.5 17.5t249 8t250.5 -2t227 -12.5t177.5 -24.5q49 -209 98 -414t95.5 -411.5t89 -423.5t77.5 -453q-78 -12 -161.5 -20.5 t-166.5 -12.5t-160 -5t-138 1q-16 47 -28.5 82t-22 65.5t-18.5 65.5t-19 82q-72 8 -165 11t-185.5 1t-174.5 -8t-135 -18q-20 -39 -35.5 -68.5t-27 -59.5t-20.5 -63.5t-21 -79.5q-57 -12 -135 -18t-159 -6t-156 6t-128 14zM551 1825q20 55 50 118.5t65.5 131t75.5 135 t79 127.5q39 4 105.5 7t137.5 4t133.5 0t94.5 -3q31 -55 70 -119.5t79 -131t77.5 -131.5t70.5 -116q-43 -2 -97 -8t-104.5 -11t-88 -7t-48.5 0q-14 27 -34.5 60.5t-41 65t-39 58.5t-28.5 41q-4 6 -12.5 18.5t-20.5 12.5q-18 0 -29.5 -15.5t-17.5 -23.5q-33 -49 -70.5 -107.5 t-62.5 -113.5q-57 -6 -113.5 -7.5t-103.5 0.5t-81 7.5t-46 7.5zM838 702q35 -8 95 -10t122.5 -2t116 4t73.5 8q-6 61 -18.5 139.5t-28.5 154t-35.5 143t-40.5 112.5q-25 53 -56.5 48t-53.5 -48q-6 -10 -21.5 -52t-35 -97t-41 -118.5t-39 -122t-27.5 -101.5t-10 -58z" />
<glyph unicode="&#xc3;" horiz-adv-x="2078" d="M6 -27q18 119 67.5 291t114 361.5t136 381t135.5 349.5q-31 2 -58 8q-23 4 -45 9t-34 9q10 35 20 78t21.5 86t23.5 81t27 67q63 14 163.5 25.5t220.5 17.5t249 8t250.5 -2t227 -12.5t177.5 -24.5q49 -209 98 -414t95.5 -411.5t89 -423.5t77.5 -453q-78 -12 -161.5 -20.5 t-166.5 -12.5t-160 -5t-138 1q-16 47 -28.5 82t-22 65.5t-18.5 65.5t-19 82q-72 8 -165 11t-185.5 1t-174.5 -8t-135 -18q-20 -39 -35.5 -68.5t-27 -59.5t-20.5 -63.5t-21 -79.5q-57 -12 -135 -18t-159 -6t-156 6t-128 14zM500 1956q29 49 65.5 104.5t79.5 105.5t90 92 t92 58q47 20 99.5 9t110 -36.5t116.5 -58t123 -57.5q43 -16 84 1t76 44q39 33 75 80q51 -23 97 -55.5t75 -75.5q-20 -25 -69 -85.5t-108.5 -122t-123 -106.5t-112.5 -43q-55 6 -126 31t-137.5 52.5t-119.5 47t-74 13.5q-27 -10 -66.5 -47t-72.5 -76q-135 55 -174 125z M838 702q35 -8 95 -10t122.5 -2t116 4t73.5 8q-6 61 -18.5 139.5t-28.5 154t-35.5 143t-40.5 112.5q-25 53 -56.5 48t-53.5 -48q-6 -10 -21.5 -52t-35 -97t-41 -118.5t-39 -122t-27.5 -101.5t-10 -58z" />
<glyph unicode="&#xc4;" horiz-adv-x="2078" d="M6 -27q53 -8 128 -14t156 -6t158.5 6t135.5 18q12 45 21 79t20.5 64t27 59.5t35.5 68.5q53 12 135 18t174.5 8t185.5 -1t165 -11q10 -47 19 -82t18.5 -65.5t21.5 -65.5t29 -82q61 -2 138 -1t160 5t166.5 12.5t161.5 20.5q-35 236 -77.5 453t-89 423.5t-95.5 411.5 t-98 414q-72 16 -177.5 24.5t-227 12.5t-250.5 2t-249 -8t-220.5 -17.5t-163.5 -25.5q-14 -29 -26.5 -67t-24 -81t-21.5 -86t-20 -78q12 -4 34.5 -9t44.5 -9q27 -6 58 -8q-63 -158 -135 -349.5t-136.5 -381t-113.5 -361.5t-68 -291zM605 2016q1 46 5 89t8 70q6 43 32 73.5 t59.5 52t68.5 34t58 16.5q18 6 43.5 2t51 -14t50.5 -22.5t41 -24.5q23 -82 35 -174.5t2 -186.5q-10 -27 -45 -50t-80 -37.5t-97.5 -23t-97.5 -6t-77.5 14.5t-43.5 37q-8 25 -11 64.5t-2 85.5zM838 702q0 14 10 57.5t27.5 102t39 122t41 118.5t35 97t21.5 52q23 43 54.5 48.5 t55.5 -48.5q20 -45 40 -112.5t36 -143t28.5 -154t18.5 -139.5q-20 -4 -73.5 -8t-116 -4t-123 2t-94.5 10zM1275 2028q1 43 5 84.5t6 66.5q6 43 29.5 70.5t54.5 47t62.5 32t52.5 18.5q16 4 39.5 1t48 -12t47 -21.5t37.5 -24.5q23 -78 33 -165t2 -177q-10 -27 -41 -47.5 t-74 -36t-90 -22.5t-89 -4t-73 13.5t-39 32.5q-8 23 -10 62t-1 82z" />
<glyph unicode="&#xc5;" horiz-adv-x="2078" d="M6 -27q18 119 67.5 291t114 361.5t136 381t135.5 349.5q-31 2 -58 8q-23 4 -45 9t-34 9q10 35 20 78t21.5 86t23.5 81t27 67q63 14 163.5 25.5t220.5 17.5t249 8t250.5 -2t227 -12.5t177.5 -24.5q49 -209 98 -414t95.5 -411.5t89 -423.5t77.5 -453q-78 -12 -161.5 -20.5 t-166.5 -12.5t-160 -5t-138 1q-16 47 -28.5 82t-22 65.5t-18.5 65.5t-19 82q-72 8 -165 11t-185.5 1t-174.5 -8t-135 -18q-20 -39 -35.5 -68.5t-27 -59.5t-20.5 -63.5t-21 -79.5q-57 -12 -135 -18t-159 -6t-156 6t-128 14zM637 2072.5q0 51.5 2 96.5t6 72q43 23 121 37 t171 23t194.5 9t192.5 -7t163 -23.5t106 -41.5q8 -25 13.5 -76t7.5 -106t1 -102.5t-5 -61.5q-37 -25 -113 -41t-170 -24t-197.5 -8t-197.5 8t-168 25.5t-111 41.5q-8 33 -12 80t-4 98.5zM838 702q35 -8 95 -10t122.5 -2t116 4t73.5 8q-6 61 -18.5 139.5t-28.5 154t-35.5 143 t-40.5 112.5q-25 53 -56.5 48t-53.5 -48q-6 -10 -21.5 -52t-35 -97t-41 -118.5t-39 -122t-27.5 -101.5t-10 -58zM989.5 2059q1.5 -34 7.5 -87q27 -2 62 -3t70.5 -1t67.5 1t52 9q0 49 3 87t-15 83q-47 0 -112.5 3t-118.5 -7q-18 -51 -16.5 -85z" />
<glyph unicode="&#xc6;" horiz-adv-x="2826" d="M8 -31q33 135 102.5 325.5t157.5 401.5t183.5 422t177.5 389q-31 2 -58 6q-23 6 -46 11.5t-33 11.5q4 37 12 85t20.5 96t26.5 90t31 71q61 14 160.5 25.5t218 18.5t244.5 12t243 5q150 10 323 15.5t344 5.5t328.5 -4t274.5 -8q12 -33 16 -87.5t5 -112.5t-1 -115.5 t-4 -94.5q-78 -2 -161 -2h-168t-166.5 -2t-159.5 -10q-16 -25 -24.5 -74t-7.5 -106.5t9 -112.5t27 -92q6 -2 44 -2t93 1t120.5 1h128t115 -1t78.5 -8q8 -74 12.5 -159.5t-3.5 -157.5q-70 -6 -141.5 -7t-144.5 -3t-144.5 -5t-139.5 -18q-12 -31 -14 -81t3 -105t14.5 -108.5 t17.5 -84.5q47 -14 123.5 -17t162.5 0t170 5t142 -6q14 -92 16 -197.5t-20 -199.5q-166 -16 -325 -24.5t-315.5 -9.5t-315 3t-324.5 8q-16 80 -31.5 158t-22.5 160q-70 25 -162 31.5t-185 3.5t-176 -15t-136 -25q-27 -45 -45.5 -77.5t-33.5 -66.5t-28.5 -70.5t-29.5 -86.5 q-57 -14 -136 -20t-160 -6t-156 5t-126 15zM928 780q29 -16 88 -19t122.5 -1t120 9t76.5 13q2 68 -1 153t-11 170t-19.5 159.5t-25.5 124.5q-18 61 -50 55t-61 -55q-8 -12 -28.5 -57.5t-46 -107t-54 -133t-53 -135t-40 -111.5t-17.5 -65z" />
<glyph unicode="&#xc7;" horiz-adv-x="1679" d="M75 762q-7 129 2 272.5t32.5 278.5t61.5 249.5t85 186.5q59 31 166.5 58.5t240 51t273.5 40t266 22.5t220.5 4t133.5 -18q4 -25 8.5 -66t6.5 -90t-1 -105.5t-14 -115.5q-106 -10 -199 -13.5t-179 -11.5t-167 -23.5t-163 -47.5q-23 -76 -44.5 -179.5t-31.5 -208t-3 -196.5 t40 -148q35 -23 100.5 -35t145.5 -18t166 -10t161.5 -6t132.5 -6.5t82 -14.5q2 -45 -3 -106.5t-14 -119.5t-24.5 -102t-35.5 -59q-78 0 -158 1t-166 3q-4 -123 -20.5 -233.5t-55.5 -163.5q-74 -31 -170 -47t-196.5 -24.5t-197.5 -10.5t-175 -2q-10 8 -17.5 37t-12.5 65.5 t-7 75.5t-2 66q45 4 98.5 10t104.5 13.5t94 19.5t70 33q16 29 23 80t11 112q-152 16 -296 45t-275 74q-43 53 -66.5 153.5t-30.5 229.5z" />
<glyph unicode="&#xc8;" horiz-adv-x="1736" d="M72 1370q35 0 81 -1t80 -1q-4 -166 -7 -346t-2 -358.5t6.5 -350.5t19.5 -325q188 -20 360 -27.5t337 -6.5t326 10t329 24q25 84 22.5 179t-16.5 177q-57 6 -147.5 4t-183.5 -3t-176 0t-128 15q-6 31 -11.5 77t-7.5 96.5t3.5 97.5t19.5 71q70 12 142.5 16.5t146 4.5 t147.5 1t143 7q10 68 6.5 144.5t-12.5 142.5q-27 4 -79 6t-112.5 2t-125 -1t-118.5 -2t-91 -1t-43 2q-14 33 -19.5 83t-2 101.5t14.5 96.5t27 65q156 16 310.5 12t310.5 0q2 35 4 85.5t1 104.5t-5 102t-16 77q-98 6 -217 9t-249 5t-265.5 2t-267.5 -6t-256 -20.5t-230 -32.5 q-20 -76 -32.5 -165t-16.5 -173zM471 2243q104 55 227 84.5t260 31.5q12 -39 31 -94t43.5 -118.5t54 -127t66.5 -116.5q-33 -16 -71 -25.5t-77.5 -19t-78.5 -13.5t-72 -8q-96 68 -193.5 180.5t-189.5 225.5z" />
<glyph unicode="&#xc9;" horiz-adv-x="1736" d="M72 1370q4 84 16 173t33 165q106 18 230 32.5t256 20.5t267.5 6t265.5 -2t248.5 -5t217.5 -9q12 -29 16 -77t5 -102t-1 -104.5t-4 -85.5q-156 -4 -310.5 0t-310.5 -12q-16 -20 -27 -65t-14.5 -96.5t2 -101.5t19.5 -83q6 -2 43 -2t91 1t118.5 2t125 1t113 -2t78.5 -6 q8 -66 12.5 -142.5t-6.5 -144.5q-70 -6 -143.5 -7t-147 -1t-146 -4t-142.5 -17q-14 -25 -19.5 -71.5t-3.5 -97t7.5 -96.5t11.5 -77q45 -14 128 -15t176 0t183 3t148 -4q14 -82 16 -177t-22 -179q-168 -14 -329 -23.5t-326 -10.5t-337 6t-360 28q-14 154 -19.5 325.5 t-6.5 350t2 358.5t7 346q-35 0 -81 1t-80 1zM700 1884q37 55 67 118.5t54.5 126t43 118t30.5 94.5q137 -2 260 -32t227 -83q-92 -113 -189 -226.5t-194 -178.5q-33 2 -71.5 7t-78.5 13t-78 18.5t-71 24.5z" />
<glyph unicode="&#xca;" horiz-adv-x="1736" d="M72 1370q4 84 16 173t33 165q106 18 230 32.5t256 20.5t267.5 6t265.5 -2t248.5 -5t217.5 -9q12 -29 16 -77t5 -102t-1 -104.5t-4 -85.5q-156 -4 -310.5 0t-310.5 -12q-16 -20 -27 -65t-14.5 -96.5t2 -101.5t19.5 -83q6 -2 43 -2t91 1t118.5 2t125 1t113 -2t78.5 -6 q8 -66 12.5 -142.5t-6.5 -144.5q-70 -6 -143.5 -7t-147 -1t-146 -4t-142.5 -17q-14 -25 -19.5 -71.5t-3.5 -97t7.5 -96.5t11.5 -77q45 -14 128 -15t176 0t183 3t148 -4q14 -82 16 -177t-22 -179q-168 -14 -329 -23.5t-326 -10.5t-337 6t-360 28q-14 154 -19.5 325.5 t-6.5 350t2 358.5t7 346q-35 0 -81 1t-80 1zM399 1847q20 55 50 119t66 131.5t76 135t79 126.5q39 4 105.5 7.5t137 4.5t133 0t95.5 -6q31 -53 69.5 -119.5t78.5 -133t78 -129t71 -113.5q-43 -2 -97.5 -8.5t-104.5 -11.5t-88 -7t-48 0q-14 27 -35 59.5t-41 65.5t-38.5 59.5 t-29.5 40.5q-4 6 -12 18.5t-20 12.5q-18 0 -29.5 -16.5t-17.5 -24.5q-33 -49 -71 -106.5t-63 -114.5q-57 -4 -113.5 -5t-103.5 1t-80.5 7t-46.5 7z" />
<glyph unicode="&#xcb;" horiz-adv-x="1736" d="M72 1370q35 0 81 -1t80 -1q-4 -166 -7 -346t-2 -358.5t6.5 -350.5t19.5 -325q188 -20 360 -27.5t337 -6.5t326 10t329 24q25 84 22.5 179t-16.5 177q-57 6 -147.5 4t-183.5 -3t-176 0t-128 15q-6 31 -11.5 77t-7.5 96.5t3.5 97.5t19.5 71q70 12 142.5 16.5t146 4.5 t147.5 1t143 7q10 68 6.5 144.5t-12.5 142.5q-27 4 -79 6t-112.5 2t-125 -1t-118.5 -2t-91 -1t-43 2q-14 33 -19.5 83t-2 101.5t14.5 96.5t27 65q156 16 310.5 12t310.5 0q2 35 4 85.5t1 104.5t-5 102t-16 77q-98 6 -217 9t-249 5t-265.5 2t-267.5 -6t-256 -20.5t-230 -32.5 q-20 -76 -32.5 -165t-16.5 -173zM374 2041q1 46 5 89t8 70q6 43 32.5 73.5t60.5 52t69 34t55 16.5q18 6 44 2t51.5 -14.5t50 -22.5t41.5 -25q23 -82 34.5 -174t3.5 -186q-16 -41 -81.5 -71t-141.5 -41t-140.5 -1t-78.5 47q-8 25 -11 65t-2 86zM1043 2052q1 43 5.5 85t6.5 67 q6 43 30.5 70.5t55 47t62.5 31.5t52 19q16 4 40 1t47.5 -12.5t46 -21.5t36.5 -25q23 -78 33 -165t2 -177q-10 -27 -40.5 -47t-73.5 -35.5t-90.5 -22.5t-89.5 -4t-72.5 13t-38.5 33t-10.5 61.5t-1.5 81.5z" />
<glyph unicode="&#xcc;" horiz-adv-x="897" d="M39 2161q213 106 487 112q12 -39 30.5 -94t43.5 -118.5t54.5 -127t66.5 -116.5q-63 -29 -147.5 -43.5t-151.5 -18.5q-47 31 -96.5 78t-97.5 99.5t-95 112t-94 116.5zM161 830q1 -214 8 -424.5t19 -399.5q23 -2 65 -3t94 0t108.5 5t106.5 9.5t89 11.5t56 14 q23 412 36 813.5t13 800.5h-139.5t-150.5 -4t-152.5 -11.5t-143.5 -19.5q-6 -170 -8 -374t-1 -418z" />
<glyph unicode="&#xcd;" horiz-adv-x="897" d="M161 830q-1 214 1 418t8 374q68 12 143.5 19.5t152.5 11.5t150.5 4h139.5q0 -399 -13.5 -800.5t-35.5 -813.5q-16 -8 -55.5 -14t-89.5 -11.5t-106.5 -9.5t-108.5 -5t-94 0t-65 3q-12 188 -19 399t-8 425zM246 1819q35 53 64.5 117.5t54 127t43 118.5t30.5 93 q137 0 260.5 -29.5t227.5 -82.5q-45 -57 -93.5 -114.5t-96.5 -112t-97 -101.5t-96 -78q-33 2 -72 7t-79 12.5t-78 17.5t-68 25z" />
<glyph unicode="&#xce;" horiz-adv-x="897" d="M27 1759q16 53 40.5 118t53.5 132.5t60.5 134t64.5 123.5q31 6 85 8t110.5 3t107.5 0t78 -1q25 -53 56.5 -118.5t63 -132t63 -129t58.5 -113.5q-35 -2 -79 -8.5t-84.5 -11.5t-71.5 -9t-39 0q-12 27 -28.5 60.5t-33 66.5t-32 58.5t-23.5 39.5q-4 4 -9 16.5t-15 12.5 q-16 0 -25.5 -15.5t-13.5 -23.5q-27 -49 -57.5 -106.5t-51.5 -114.5q-47 -4 -92 -4t-84 1t-65.5 6t-36.5 7zM161 830q-1 214 1 418t8 374q68 12 143.5 19.5t152.5 11.5t150.5 4h139.5q0 -399 -13.5 -800.5t-35.5 -813.5q-16 -8 -55.5 -14t-89.5 -11.5t-106.5 -9.5t-108.5 -5 t-94 0t-65 3q-12 188 -19 399t-8 425z" />
<glyph unicode="&#xcf;" horiz-adv-x="897" d="M17 1948q1 45 5.5 88t6.5 69q4 45 25.5 76t49 51.5t55 32.5t44.5 19q16 4 35.5 -0.5t41 -13.5t41 -21.5t33.5 -24.5q20 -84 29.5 -176t1.5 -186q-12 -41 -65.5 -71t-115 -41t-113.5 -1t-62 47q-8 25 -10.5 66t-1.5 86zM161 830q1 -214 8 -424.5t19 -399.5q23 -2 65 -3 t94 0t108.5 5t106.5 9.5t89 11.5t56 14q23 412 36 813.5t13 800.5h-139.5t-150.5 -4t-152.5 -11.5t-143.5 -19.5q-6 -170 -8 -374t-1 -418zM560 1960q1 43 4 85t5 66q4 41 24.5 70t45.5 48.5t50.5 31.5t41.5 16q29 10 71 -10t68 -45q16 -80 25.5 -167t1.5 -175 q-12 -39 -60.5 -67.5t-104.5 -40t-104 -1t-59 45.5q-6 20 -8 60t-1 83z" />
<glyph unicode="&#xd1;" horiz-adv-x="2117" d="M119 1078.5q0 158.5 3 303t7 252.5q12 10 70.5 22.5t143.5 22t185.5 18.5t193.5 14t170 5t114 -6q66 -186 146.5 -366.5t160.5 -360.5q8 -16 23.5 -25.5t34 -8.5t34.5 17.5t25 49.5q2 6 4 44t3 96t4 127t4 137.5t3 129t4 99.5q260 60 526 37q4 -403 2 -812t-14 -815 q-66 -10 -157 -21t-196.5 -20.5t-220 -17.5t-227.5 -8q-111 164 -202 345t-168 368q-8 23 -29 33t-41 5.5t-36.5 -19.5t-20.5 -50q-31 -272 -13 -662q-123 -33 -246.5 -37t-258.5 17q-8 72 -14.5 189.5t-10.5 264t-5 310.5t-1 322.5zM514 1913q29 49 65.5 104.5t79.5 106.5 t90.5 92t92.5 59q47 20 99 9t108.5 -36.5t117 -59.5t123.5 -58q43 -16 84 2t76 45q39 33 76 80q51 -23 97 -56.5t75 -74.5q-20 -25 -69.5 -85.5t-109 -123t-123 -107.5t-112.5 -43q-55 4 -126 30t-137.5 54.5t-119.5 47t-74 10.5q-27 -8 -66.5 -45t-72.5 -74 q-66 27 -111 58.5t-63 64.5z" />
<glyph unicode="&#xd2;" horiz-adv-x="2109" d="M96 603q0 -136 2 -247q16 -45 47 -102t68 -116.5t75 -111t68 -83.5q94 -8 210 -16.5t241 -10.5t253 -2t247.5 5t224 13.5t180.5 20.5q78 86 142.5 179t136.5 183q10 61 11 188.5t-2 278t-9 297t-13 244.5q-33 51 -71.5 107.5t-80.5 111.5t-87 103.5t-90 85.5 q-82 14 -183.5 20t-210 7t-221 -5t-218 -12t-200 -14.5t-167.5 -16.5q-31 -14 -77 -59t-95.5 -98.5t-94.5 -104.5t-73 -82q-6 -96 -8.5 -225t-3.5 -265.5t-1 -272.5zM631 2245q104 53 227 82.5t262 29.5q12 -37 30.5 -93t43.5 -119.5t54.5 -127t64.5 -116.5 q-63 -29 -147.5 -43.5t-151.5 -18.5q-47 31 -96.5 78t-97.5 101.5t-95 112t-94 114.5zM802 616q-1 86 0 181.5t4 178.5t9 145.5t19 84.5q53 25 103 36t102.5 16.5t107.5 6.5t119 3q14 -115 19 -230.5t5 -225.5t-4 -211t-6 -191q-37 -29 -96.5 -49.5t-127 -28.5t-134 -2 t-115.5 28q0 33 -2 102.5t-3 155.5z" />
<glyph unicode="&#xd3;" horiz-adv-x="2109" d="M96 603q0 136 1 272.5t3 265.5t9 225q29 31 73.5 82t94 104.5t95.5 98.5t77 59q74 8 168 16.5t199.5 14.5t218 12t221 5t210 -7t183.5 -20q45 -37 90 -85.5t87 -103.5t81 -111.5t71 -107.5q6 -98 12.5 -244.5t9.5 -297t2 -278t-11 -188.5q-72 -90 -136.5 -183 t-142.5 -179q-76 -12 -180.5 -20.5t-224 -13.5t-247.5 -5t-253 2t-240.5 10t-210.5 17q-31 33 -68.5 84t-74.5 110.5t-67.5 116.5t-47.5 102q-2 111 -2 247zM791 1888q37 53 66.5 116.5t54 127t43 120t30.5 93.5q137 0 260.5 -30t227.5 -83q-45 -57 -93.5 -114.5 t-96.5 -111.5t-97 -101t-96 -78q-68 4 -151 18.5t-148 42.5zM802 616q1 -86 3 -155.5t2 -102.5q49 -23 115.5 -28.5t134 2.5t127 28.5t96.5 49.5q2 90 6 191t4 211t-5 225.5t-19 230.5q-63 -2 -118.5 -3t-108 -6.5t-102.5 -16.5t-103 -36q-12 -23 -18.5 -85t-9.5 -145 t-4 -178.5t0 -181.5z" />
<glyph unicode="&#xd4;" horiz-adv-x="2109" d="M96 603q0 136 1 272.5t3 265.5t9 225q29 31 73.5 82t94 104.5t95.5 98.5t77 59q74 8 168 16.5t199.5 14.5t218 12t221 5t210 -7t183.5 -20q45 -37 90 -85.5t87 -103.5t81 -111.5t71 -107.5q6 -98 12.5 -244.5t9.5 -297t2 -278t-11 -188.5q-72 -90 -136.5 -183 t-142.5 -179q-76 -12 -180.5 -20.5t-224 -13.5t-247.5 -5t-253 2t-240.5 10t-210.5 17q-31 33 -68.5 84t-74.5 110.5t-67.5 116.5t-47.5 102q-2 111 -2 247zM520 1855q20 53 50 118t66 132.5t76 135t79 126.5q39 4 105.5 6.5t137 4.5t133 0t93.5 -4q31 -53 69.5 -119 t78.5 -132.5t79 -129t72 -113.5q-43 -4 -97.5 -10t-104.5 -11.5t-88 -8.5t-48 1q-14 27 -35 60t-41.5 64.5t-39 59t-28.5 42.5q-4 4 -12 16t-21 12q-18 0 -30.5 -14t-16.5 -23q-33 -49 -70.5 -107t-62.5 -116q-57 -4 -113.5 -5t-103.5 1t-81 7t-46 7zM802 616 q1 -86 3 -155.5t2 -102.5q49 -23 115.5 -28.5t134 2.5t127 28.5t96.5 49.5q2 90 6 191t4 211t-5 225.5t-19 230.5q-63 -2 -118.5 -3t-108 -6.5t-102.5 -16.5t-103 -36q-12 -23 -18.5 -85t-9.5 -145t-4 -178.5t0 -181.5z" />
<glyph unicode="&#xd5;" horiz-adv-x="2109" d="M96 603q0 136 1 272.5t3 265.5t9 225q29 31 73.5 82t94 104.5t95.5 98.5t77 59q74 8 168 16.5t199.5 14.5t218 12t221 5t210 -7t183.5 -20q45 -37 90 -85.5t87 -103.5t81 -111.5t71 -107.5q6 -98 12.5 -244.5t9.5 -297t2 -278t-11 -188.5q-72 -90 -136.5 -183 t-142.5 -179q-76 -12 -180.5 -20.5t-224 -13.5t-247.5 -5t-253 2t-240.5 10t-210.5 17q-31 33 -68.5 84t-74.5 110.5t-67.5 116.5t-47.5 102q-2 111 -2 247zM500 1964q29 49 65.5 104.5t79.5 105.5t90 92t92 58q47 20 99.5 9t110 -36.5t116.5 -59t123 -58.5q43 -14 84 3.5 t76 43.5q39 33 75 80q51 -23 97 -56.5t75 -74.5q-20 -25 -69 -85t-108.5 -121.5t-123 -106.5t-112.5 -43q-55 4 -126 28.5t-137.5 53t-119.5 48t-74 13.5q-27 -10 -66.5 -47t-72.5 -76q-135 55 -174 125zM802 616q1 -86 3 -155.5t2 -102.5q49 -23 115.5 -28.5t134 2.5 t127 28.5t96.5 49.5q2 90 6 191t4 211t-5 225.5t-19 230.5q-63 -2 -118.5 -3t-108 -6.5t-102.5 -16.5t-103 -36q-12 -23 -18.5 -85t-9.5 -145t-4 -178.5t0 -181.5z" />
<glyph unicode="&#xd6;" horiz-adv-x="2109" d="M96 603q0 -136 2 -247q16 -45 47 -102t68 -116.5t75 -111t68 -83.5q94 -8 210 -16.5t241 -10.5t253 -2t247.5 5t224 13.5t180.5 20.5q78 86 142.5 179t136.5 183q10 61 11 188.5t-2 278t-9 297t-13 244.5q-33 51 -71.5 107.5t-80.5 111.5t-87 103.5t-90 85.5 q-82 14 -183.5 20t-210 7t-221 -5t-218 -12t-200 -14.5t-167.5 -16.5q-31 -14 -77 -59t-95.5 -98.5t-94.5 -104.5t-73 -82q-6 -96 -8.5 -225t-3.5 -265.5t-1 -272.5zM497 2023q1 45 5 88t8 72q6 43 31.5 74t59.5 52.5t69 33.5t55 16q18 4 44 1t52.5 -13t50 -22.5t41.5 -24.5 q23 -84 35 -176.5t2 -184.5q-10 -27 -45 -50t-81 -38.5t-97 -22.5t-97 -6t-79 13t-41 37t-11 65.5t-2 85.5zM802 616q-1 86 0 181.5t4 178.5t9 145.5t19 84.5q53 25 103 36t102.5 16.5t107.5 6.5t119 3q14 -115 19 -230.5t5 -225.5t-4 -211t-6 -191q-37 -29 -96.5 -49.5 t-127 -28.5t-134 -2t-115.5 28q0 33 -2 102.5t-3 155.5zM1165 2036q2 43 5.5 85t7.5 66q6 41 29.5 70t54 48t62.5 31.5t52 18.5q35 8 87.5 -12.5t84.5 -44.5q23 -78 33 -166t2 -176q-10 -27 -42 -47.5t-74 -35.5t-90 -22.5t-89 -5.5t-71.5 13.5t-38.5 33.5q-8 23 -11.5 62 t-1.5 82z" />
<glyph unicode="&#xd8;" horiz-adv-x="2109" d="M91 695.5q-1 138.5 0 279.5t3 274t8 234q31 29 76 82t94.5 108.5t95.5 100.5t76 63q78 6 177.5 15.5t210 16.5t228.5 12t230 5q16 27 33.5 55.5t36.5 55.5q96 10 191.5 6t175 -15.5t137 -23.5t78.5 -18q-35 -57 -72 -118t-74 -124q53 -63 99.5 -134t86.5 -134 q4 -66 9.5 -158t8.5 -193.5t5 -206t2 -197.5t-3 -167t-9 -115q-72 -94 -136.5 -189t-142.5 -185q-70 -12 -160 -20.5t-194.5 -13.5t-217 -6t-226.5 -1q-18 -41 -37 -80t-35 -80q-96 -10 -189.5 -11t-172 4t-135 13t-77.5 16q18 43 38 88.5t38 85.5q-33 35 -70.5 87.5 t-72.5 112t-64.5 118.5t-46.5 102q-2 117 -3 255.5zM803 1006q47 92 93 181t95 177q-41 -6 -80 -17.5t-80 -31.5q-14 -27 -20 -113t-8 -196zM1124 426q47 12 88 29.5t68 42.5q2 59 4 123.5t4 136.5q-41 -84 -82 -166t-82 -166z" />
<glyph unicode="&#xd9;" horiz-adv-x="1994" d="M122 1016q1 -127 4 -247t5 -224.5t2 -173.5q14 -37 43 -89.5t64.5 -105.5t71.5 -101t65 -75q137 -12 302 -12t332 5t322.5 12t272.5 9q35 39 72.5 90.5t73.5 102.5t64.5 101t43.5 93q-4 125 -4.5 286t2 332t6.5 340t6 312q-172 -4 -334 -3t-326 -34q-2 -121 -2 -261 t1 -287.5t3 -292t2 -277.5q-35 -33 -91 -49t-116.5 -21.5t-120 2t-100.5 23.5q-8 131 -15 261t-8 270.5t3 295t18 332.5q-174 20 -327.5 17.5t-317.5 -23.5q-8 -55 -12 -151.5t-5 -213t0 -243.5zM522 2159q213 106 488 112q12 -39 30.5 -94t43 -118.5t54 -127t66.5 -116.5 q-33 -16 -70.5 -25.5t-77.5 -17t-79 -12.5t-72 -7q-47 31 -96 78t-97 99t-96.5 112t-93.5 117z" />
<glyph unicode="&#xda;" horiz-adv-x="1994" d="M122 1016q-1 127 0 243.5t5 213t12 151.5q164 20 317.5 23.5t327.5 -17.5q-14 -178 -18 -332.5t-3 -295t8 -270.5t15 -261q41 -16 100.5 -23.5t120 -2t117 21.5t90.5 49q0 133 -2 277.5t-3 292t-1 287.5t2 261q164 35 326 34t334 3q-2 -143 -6 -312t-6.5 -340t-2.5 -332 t5 -286q-14 -43 -43 -93t-65 -101t-74 -102.5t-72 -90.5q-117 -2 -272.5 -9t-322.5 -12t-332 -5t-302 12q-29 27 -65 75t-71.5 101t-64.5 105.5t-43 89.5q0 70 -2 174t-5 224t-4 247zM811 1798q37 55 66.5 118.5t54 126t43 118t31.5 96.5q137 -4 260 -33t227 -82 q-92 -115 -189.5 -227.5t-193.5 -179.5q-33 2 -72 7t-78.5 14t-77.5 18.5t-71 23.5z" />
<glyph unicode="&#xdb;" horiz-adv-x="1994" d="M122 1016q-1 127 0 243.5t5 213t12 151.5q164 20 317.5 23.5t327.5 -17.5q-14 -178 -18 -332.5t-3 -295t8 -270.5t15 -261q41 -16 100.5 -23.5t120 -2t117 21.5t90.5 49q0 133 -2 277.5t-3 292t-1 287.5t2 261q164 35 326 34t334 3q-2 -143 -6 -312t-6.5 -340t-2.5 -332 t5 -286q-14 -43 -43 -93t-65 -101t-74 -102.5t-72 -90.5q-117 -2 -272.5 -9t-322.5 -12t-332 -5t-302 12q-29 27 -65 75t-71.5 101t-64.5 105.5t-43 89.5q0 70 -2 174t-5 224t-4 247zM479 1772q20 55 50 119.5t65 132t75 135t79 127.5q39 4 105.5 7t137 3t133 -1t95.5 -1 q31 -55 69.5 -122t78.5 -132.5t79 -129t72 -114.5q-43 -2 -97.5 -8t-105.5 -11t-88 -7.5t-47 -0.5q-14 27 -36 61t-42.5 65.5t-39 57t-28.5 40.5q-4 6 -11 19t-19 11q-20 0 -31.5 -15t-16.5 -21q-33 -49 -71.5 -108.5t-61.5 -117.5q-57 -4 -113.5 -4t-103.5 2t-80.5 6 t-46.5 7z" />
<glyph unicode="&#xdc;" horiz-adv-x="1994" d="M122 1016q1 -127 4 -247t5 -224.5t2 -173.5q14 -37 43 -89.5t64.5 -105.5t71.5 -101t65 -75q137 -12 302 -12t332 5t322.5 12t272.5 9q35 39 72.5 90.5t73.5 102.5t64.5 101t43.5 93q-4 125 -4.5 286t2 332t6.5 340t6 312q-172 -4 -334 -3t-326 -34q-2 -121 -2 -261 t1 -287.5t3 -292t2 -277.5q-35 -33 -91 -49t-116.5 -21.5t-120 2t-100.5 23.5q-8 131 -15 261t-8 270.5t3 295t18 332.5q-174 20 -327.5 17.5t-317.5 -23.5q-8 -55 -12 -151.5t-5 -213t0 -243.5zM457 1980.5q2 47.5 6 90.5t6 69q6 43 32.5 74t60.5 52.5t69 33.5t55 18 q18 4 44 0t51.5 -13t50 -21.5t42.5 -24.5q23 -86 35 -177.5t2 -185.5q-16 -43 -81.5 -71.5t-141.5 -39.5t-140.5 -1t-78.5 45q-8 25 -11 64.5t-1 87zM1126 1994q2 42 5.5 83t7.5 65q6 43 29.5 71t54 49.5t62.5 32.5t52 15q35 10 87.5 -11.5t84.5 -41.5q23 -80 33 -168 t2 -176q-10 -29 -42 -49.5t-74 -34.5t-90 -20.5t-89 -5.5t-71.5 13.5t-38.5 34.5q-8 20 -11.5 60.5t-1.5 82.5z" />
<glyph unicode="&#xdd;" horiz-adv-x="1880" d="M74 1686q78 4 177 11t191.5 13t161 9t86.5 -3q12 -49 46 -118.5t72 -138t70.5 -127t43.5 -85.5q2 -4 11 -18.5t21.5 -28.5t25.5 -25.5t26 -11.5q35 -2 57 23.5t31 38.5q63 119 120.5 244.5t128.5 244.5q104 8 199.5 6t171.5 -8t129 -13t76 -13q-74 -106 -155 -237.5 t-166 -272t-170 -279.5t-164 -260q-4 -168 -8.5 -326.5t-10.5 -296.5q-70 -12 -145.5 -16t-152.5 -4t-151.5 4t-142.5 4q0 164 -5 328t-9 329q-45 51 -100.5 133t-112.5 175.5t-114.5 197t-104.5 198.5t-83 180t-50 143zM760 1815q37 55 66.5 118.5t54 126t43 118.5t30.5 93 q137 0 260.5 -28.5t227.5 -83.5q-45 -55 -93.5 -114.5t-96.5 -113t-97 -99.5t-96 -79q-68 6 -151 20.5t-148 41.5z" />
<glyph unicode="&#xdf;" horiz-adv-x="1998" d="M155 940q1 197 4 375t9 323.5t12 229.5q125 18 267.5 32.5t286 21.5t279.5 8t252.5 -4t203.5 -13t130 -21q41 -25 77 -66.5t66 -96t51.5 -116t31.5 -126.5q-18 -63 -54 -129t-80 -122t-94.5 -100t-99.5 -69q35 -18 97.5 -49t129 -77t125.5 -109.5t88 -141.5 q4 -45 -12 -104.5t-49 -125t-79 -131t-99 -120.5q-47 -31 -138.5 -53.5t-200 -39t-220 -26.5t-197.5 -12q-8 33 -16 68.5t-12.5 78.5t-2.5 95.5t13 115.5q51 6 102 14.5t92 18.5q43 35 67.5 75t34 82t4.5 78.5t-22 63.5q-29 12 -83 21.5t-115.5 12.5t-120 1t-92.5 -15 q-6 -25 -8.5 -82t-1.5 -133.5t4 -168t7.5 -183.5t11.5 -179t15 -155q-84 0 -164 -3t-157.5 -5t-156.5 1t-161 20q-10 123 -16 292.5t-8 360t-1 387.5zM770 1252.5q2 -50.5 8 -60.5q18 -23 63.5 -23t97.5 8.5t101.5 20.5t73.5 21q12 29 19.5 67.5t9.5 78.5t-3.5 77.5 t-17.5 70.5q-18 27 -58 38.5t-87 13.5t-91 -4.5t-69 -14.5q-18 -16 -28.5 -68.5t-15.5 -113.5t-3 -111.5z" />
<glyph unicode="&#xe0;" horiz-adv-x="1708" d="M63 317q4 133 37 264.5t80 221.5q49 31 140.5 58.5t202 54t231 49t231.5 41.5q-6 25 -12 56.5t-12 43.5q-47 29 -131.5 43t-183.5 18t-201.5 3t-184.5 -1q-2 49 2 105.5t13.5 109t22.5 92.5t32 58q139 14 285.5 22.5t294 4t290.5 -24.5t277 -57q39 -49 64.5 -148.5 t41.5 -228.5t23.5 -276.5t8.5 -290t-3 -271.5t-10 -219q-72 -20 -178.5 -38.5t-229.5 -32t-255 -22.5t-254 -12t-225.5 2t-170.5 17q-27 37 -60.5 83t-65.5 95t-58.5 96.5t-41.5 83.5zM487 1938q104 53 227 83t261 30q12 -37 30.5 -93.5t43 -119t54 -127t66.5 -117.5 q-33 -12 -70.5 -23.5t-77.5 -18.5t-79 -12.5t-72 -7.5q-96 66 -193.5 179.5t-189.5 226.5zM688 458q2 -38 9.5 -75t17.5 -66q47 -20 124.5 -15t188.5 15q-2 92 -3 176.5t-5 172.5q-82 -16 -157 -25.5t-150 -46.5q-14 -27 -20.5 -62.5t-4.5 -73.5z" />
<glyph unicode="&#xe1;" horiz-adv-x="1708" d="M63 317q4 133 37 264.5t80 221.5q49 31 140.5 58.5t202 54t231 49t231.5 41.5q-6 25 -12 56.5t-12 43.5q-47 29 -131.5 43t-183.5 18t-201.5 3t-184.5 -1q-2 49 2 105.5t13.5 109t22.5 92.5t32 58q139 14 285.5 22.5t294 4t290.5 -24.5t277 -57q39 -49 64.5 -148.5 t41.5 -228.5t23.5 -276.5t8.5 -290t-3 -271.5t-10 -219q-72 -20 -178.5 -38.5t-229.5 -32t-255 -22.5t-254 -12t-225.5 2t-170.5 17q-27 37 -60.5 83t-65.5 95t-58.5 96.5t-41.5 83.5zM688 458q2 -38 9.5 -75t17.5 -66q47 -20 124.5 -15t188.5 15q-2 92 -3 176.5t-5 172.5 q-82 -16 -157 -25.5t-150 -46.5q-14 -27 -20.5 -62.5t-4.5 -73.5zM715 1598q35 53 64.5 117.5t54.5 127t43 118.5t31 93q139 0 262 -29.5t227 -82.5q-92 -113 -189.5 -226.5t-193.5 -179.5q-68 4 -151.5 19.5t-147.5 42.5z" />
<glyph unicode="&#xe2;" horiz-adv-x="1708" d="M63 317q4 133 37 264.5t80 221.5q49 31 140.5 58.5t202 54t231 49t231.5 41.5q-6 25 -12 56.5t-12 43.5q-47 29 -131.5 43t-183.5 18t-201.5 3t-184.5 -1q-2 49 2 105.5t13.5 109t22.5 92.5t32 58q139 14 285.5 22.5t294 4t290.5 -24.5t277 -57q39 -49 64.5 -148.5 t41.5 -228.5t23.5 -276.5t8.5 -290t-3 -271.5t-10 -219q-72 -20 -178.5 -38.5t-229.5 -32t-255 -22.5t-254 -12t-225.5 2t-170.5 17q-27 37 -60.5 83t-65.5 95t-58.5 96.5t-41.5 83.5zM416 1599q20 55 50 119.5t66 132.5t74.5 134.5t77.5 125.5q41 4 106.5 7t136.5 4 t133.5 0t94.5 -1q31 -55 70 -121.5t79 -132t78.5 -129t71.5 -114.5q-43 -2 -97 -8.5t-105.5 -11.5t-88 -7t-47.5 0q-14 27 -35.5 60.5t-42 65.5t-39 57.5t-28.5 39.5q-4 6 -11 18.5t-20 12.5q-18 0 -30.5 -15.5t-16.5 -21.5q-33 -49 -70.5 -108.5t-62.5 -116.5 q-57 -4 -113.5 -4t-103.5 2t-81 6t-46 6zM688 458q2 -38 9.5 -75t17.5 -66q47 -20 124.5 -15t188.5 15q-2 92 -3 176.5t-5 172.5q-82 -16 -157 -25.5t-150 -46.5q-14 -27 -20.5 -62.5t-4.5 -73.5z" />
<glyph unicode="&#xe3;" horiz-adv-x="1708" d="M63 317q4 133 37 264.5t80 221.5q49 31 140.5 58.5t202 54t231 49t231.5 41.5q-6 25 -12 56.5t-12 43.5q-47 29 -131.5 43t-183.5 18t-201.5 3t-184.5 -1q-2 49 2 105.5t13.5 109t22.5 92.5t32 58q139 14 285.5 22.5t294 4t290.5 -24.5t277 -57q39 -49 64.5 -148.5 t41.5 -228.5t23.5 -276.5t8.5 -290t-3 -271.5t-10 -219q-72 -20 -178.5 -38.5t-229.5 -32t-255 -22.5t-254 -12t-225.5 2t-170.5 17q-27 37 -60.5 83t-65.5 95t-58.5 96.5t-41.5 83.5zM301 1714q29 49 65.5 104t79.5 106.5t90 92.5t93 57q47 20 100 10t109.5 -35.5 t117 -58.5t121.5 -57q43 -18 85 -1t77 44q39 33 76 80q51 -20 97 -53t73 -76q-20 -25 -68.5 -85.5t-109 -123t-124 -107.5t-112.5 -43q-55 4 -126 31t-137.5 53.5t-119.5 46t-74 13.5q-27 -10 -66.5 -47t-72.5 -76q-66 27 -111 59.5t-63 65.5zM688 458q2 -38 9.5 -75 t17.5 -66q47 -20 124.5 -15t188.5 15q-2 92 -3 176.5t-5 172.5q-82 -16 -157 -25.5t-150 -46.5q-14 -27 -20.5 -62.5t-4.5 -73.5z" />
<glyph unicode="&#xe4;" horiz-adv-x="1708" d="M63 317q4 133 37 264.5t80 221.5q49 31 140.5 58.5t202 54t231 49t231.5 41.5q-6 25 -12 56.5t-12 43.5q-47 29 -131.5 43t-183.5 18t-201.5 3t-184.5 -1q-2 49 2 105.5t13.5 109t22.5 92.5t32 58q139 14 285.5 22.5t294 4t290.5 -24.5t277 -57q39 -49 64.5 -148.5 t41.5 -228.5t23.5 -276.5t8.5 -290t-3 -271.5t-10 -219q-72 -20 -178.5 -38.5t-229.5 -32t-255 -22.5t-254 -12t-225.5 2t-170.5 17q-27 37 -60.5 83t-65.5 95t-58.5 96.5t-41.5 83.5zM400 1808q1 46 5 89t8 69q6 43 32 74t59.5 52.5t68.5 33.5t57 19q18 4 44 1t51.5 -13.5 t50 -22.5t41.5 -25q23 -84 35 -176t2 -184q-10 -29 -45 -51.5t-80 -38t-97.5 -23.5t-97.5 -6t-78.5 14.5t-42.5 34.5q-8 25 -11 66t-2 87zM688 458q2 -38 9.5 -75t17.5 -66q47 -20 124.5 -15t188.5 15q-2 92 -3 176.5t-5 172.5q-82 -16 -157 -25.5t-150 -46.5 q-14 -27 -20.5 -62.5t-4.5 -73.5zM1070 1820q1 42 5 84t6 67q6 41 29.5 70.5t54.5 49t62.5 31.5t52.5 16q35 8 87 -11t85 -44q23 -80 32.5 -168t1.5 -176q-14 -39 -74.5 -66.5t-130 -39t-129 -1t-71.5 45.5q-8 23 -10 61.5t-1 80.5z" />
<glyph unicode="&#xe5;" horiz-adv-x="1708" d="M63 317q4 133 37 264.5t80 221.5q49 31 140.5 58.5t202 54t231 49t231.5 41.5q-6 25 -12 56.5t-12 43.5q-47 29 -131.5 43t-183.5 18t-201.5 3t-184.5 -1q-2 49 2 105.5t13.5 109t22.5 92.5t32 58q139 14 285.5 22.5t294 4t290.5 -24.5t277 -57q39 -49 64.5 -148.5 t41.5 -228.5t23.5 -276.5t8.5 -290t-3 -271.5t-10 -219q-72 -20 -178.5 -38.5t-229.5 -32t-255 -22.5t-254 -12t-225.5 2t-170.5 17q-27 37 -60.5 83t-65.5 95t-58.5 96.5t-41.5 83.5zM438 1865q0 50 2 95t7 72q43 23 120.5 39t171 23.5t194.5 8.5t192.5 -7.5t163 -24.5 t106.5 -41q8 -25 13 -76t7 -106.5t1 -102.5t-5 -61q-37 -25 -112.5 -41t-170 -24.5t-198 -8.5t-197.5 8.5t-168.5 25.5t-111.5 42q-6 33 -10.5 81t-4.5 98zM688 458q2 -38 9.5 -75t17.5 -66q47 -20 124.5 -15t188.5 15q-2 92 -3 176.5t-5 172.5q-82 -16 -157 -25.5 t-150 -46.5q-14 -27 -20.5 -62.5t-4.5 -73.5zM791 1851q2 -34 8 -85q27 -4 61.5 -5t70.5 -1t68 3t52 9q0 47 3 85t-16 83q-47 0 -112.5 3t-118.5 -5q-18 -53 -16 -87z" />
<glyph unicode="&#xe6;" horiz-adv-x="2736" d="M63 317q4 133 37 264.5t80 221.5q49 31 140.5 58.5t202 54t231 49t231.5 41.5q-6 25 -12 56.5t-12 43.5q-47 29 -131.5 43t-183.5 18t-201.5 3t-184.5 -1q-2 49 2 105.5t13.5 109t22.5 92.5t32 58q139 14 285.5 22.5t294 4t290.5 -24.5t277 -57q12 -14 16 -25 q90 18 190.5 32.5t202 25t197.5 16.5t177 7t139.5 -3t84.5 -16q47 -80 82 -187.5t56.5 -225.5t31.5 -241.5t6 -238.5q-66 -10 -182.5 -22.5t-254.5 -24t-284.5 -18.5t-269.5 -13q4 -37 12.5 -68t22.5 -51q31 -20 94.5 -34.5t141 -25t162.5 -17.5t160 -13t131 -12.5t77 -16.5 q2 -41 -2 -98t-13.5 -108.5t-22.5 -92.5t-32 -53q-94 0 -199.5 5t-216 14.5t-222 22.5t-220.5 32q-80 -16 -186.5 -32.5t-225 -29t-240.5 -19.5t-234.5 -9t-208 3t-158.5 17q-27 37 -60.5 83t-65.5 95t-58.5 96.5t-41.5 83.5zM688 458q2 -38 9.5 -75t17.5 -66 q47 -20 124.5 -15t188.5 15q-2 92 -3 176.5t-5 172.5q-82 -16 -157 -25.5t-150 -46.5q-14 -27 -20.5 -62.5t-4.5 -73.5zM1677 858q113 -6 212 10.5t171 36.5q4 55 -1 120t-31 114q-35 -4 -67 -5t-65.5 -4.5t-71.5 -12.5t-85 -27q-18 -59 -34.5 -106.5t-27.5 -125.5z" />
<glyph unicode="&#xe7;" horiz-adv-x="1511" d="M64.5 633.5q-5.5 111.5 5 229.5t33 223.5t54 191.5t68.5 131q240 102 502 140t545 44q16 -12 32.5 -47t29 -80t19.5 -94t5 -92q-31 -12 -113 -25.5t-176 -29t-183 -37t-136 -49.5q-29 -47 -42.5 -123t-13.5 -162t12.5 -172t32.5 -156q72 -27 150 -38t163 -15t174 -6 t183 -10q10 -51 12 -100.5t1 -92.5t-5 -76.5t-8 -56.5q-47 -10 -135 -11t-199 3q-4 -88 -19.5 -164t-45.5 -113q-68 -25 -154 -39t-176 -20t-178 -8t-158 -2q-8 8 -15 30.5t-12.5 52t-6.5 60.5t-1 53q41 4 89 8.5t94.5 11.5t85 17t61.5 25q12 20 18.5 52t10.5 71 q-82 10 -160 22.5t-145.5 26.5t-121 29.5t-85.5 31.5q-43 61 -64.5 157.5t-27 208z" />
<glyph unicode="&#xe8;" horiz-adv-x="1771" d="M78 477q-6 117 2 247t29.5 252t54.5 226.5t76 167.5q53 29 158.5 55.5t235.5 47t271.5 36t265 21.5t218 2t129.5 -19q47 -82 81.5 -188t56 -224t32 -242t6.5 -241q-66 -10 -182.5 -22t-255 -22.5t-285 -18.5t-269.5 -12q4 -37 12.5 -68t22.5 -53q31 -18 94.5 -33.5 t141.5 -25t163 -17.5t159.5 -14t131 -12.5t76.5 -14.5q2 -43 -2 -99t-13 -107.5t-22.5 -92.5t-31.5 -53q-141 0 -307 10t-334 30.5t-330 55.5t-297 80q-39 47 -60.5 139t-27.5 209zM397 1897q104 53 227 83t261 30q12 -37 30.5 -93.5t43 -119t54 -127t66.5 -117.5 q-33 -12 -70.5 -23.5t-77.5 -18.5t-79 -12.5t-72 -7.5q-96 66 -193.5 179.5t-189.5 226.5zM711 854q113 -4 212 12.5t171 34.5q4 57 -1.5 120.5t-31.5 113.5q-35 -2 -66.5 -3.5t-65.5 -5.5t-72 -12t-85 -29q-18 -59 -34.5 -105t-26.5 -126z" />
<glyph unicode="&#xe9;" horiz-adv-x="1771" d="M78 477q-6 117 2 247t29.5 252t54.5 226.5t76 167.5q53 29 158.5 55.5t235.5 47t271.5 36t265 21.5t218 2t129.5 -19q47 -82 81.5 -188t56 -224t32 -242t6.5 -241q-66 -10 -182.5 -22t-255 -22.5t-285 -18.5t-269.5 -12q4 -37 12.5 -68t22.5 -53q31 -18 94.5 -33.5 t141.5 -25t163 -17.5t159.5 -14t131 -12.5t76.5 -14.5q2 -43 -2 -99t-13 -107.5t-22.5 -92.5t-31.5 -53q-141 0 -307 10t-334 30.5t-330 55.5t-297 80q-39 47 -60.5 139t-27.5 209zM711 854q113 -4 212 12.5t171 34.5q4 57 -1.5 120.5t-31.5 113.5q-35 -2 -66.5 -3.5 t-65.5 -5.5t-72 -12t-85 -29q-18 -59 -34.5 -105t-26.5 -126zM747 1555q35 53 64.5 117.5t54.5 127t43 118.5t31 93q139 0 262 -29.5t227 -82.5q-92 -113 -189.5 -226.5t-193.5 -179.5q-68 4 -151.5 19.5t-147.5 42.5z" />
<glyph unicode="&#xea;" horiz-adv-x="1771" d="M78 477q-6 117 2 247t29.5 252t54.5 226.5t76 167.5q53 29 158.5 55.5t235.5 47t271.5 36t265 21.5t218 2t129.5 -19q47 -82 81.5 -188t56 -224t32 -242t6.5 -241q-66 -10 -182.5 -22t-255 -22.5t-285 -18.5t-269.5 -12q4 -37 12.5 -68t22.5 -53q31 -18 94.5 -33.5 t141.5 -25t163 -17.5t159.5 -14t131 -12.5t76.5 -14.5q2 -43 -2 -99t-13 -107.5t-22.5 -92.5t-31.5 -53q-141 0 -307 10t-334 30.5t-330 55.5t-297 80q-39 47 -60.5 139t-27.5 209zM387 1526q20 55 50 119.5t66 132.5t74.5 134.5t77.5 125.5q41 4 106.5 7t136.5 4t133.5 0 t94.5 -1q31 -55 70 -121.5t79 -132t78.5 -129t71.5 -114.5q-43 -2 -97 -8.5t-105.5 -11.5t-88 -7t-47.5 0q-14 27 -35.5 60.5t-42 65.5t-39 57.5t-28.5 39.5q-4 6 -11 18.5t-20 12.5q-18 0 -30.5 -15.5t-16.5 -21.5q-33 -49 -70.5 -108.5t-62.5 -116.5q-57 -4 -113.5 -4 t-103.5 2t-81 6t-46 6zM711 854q113 -4 212 12.5t171 34.5q4 57 -1.5 120.5t-31.5 113.5q-35 -2 -66.5 -3.5t-65.5 -5.5t-72 -12t-85 -29q-18 -59 -34.5 -105t-26.5 -126z" />
<glyph unicode="&#xeb;" horiz-adv-x="1771" d="M78 477q-6 117 2 247t29.5 252t54.5 226.5t76 167.5q53 29 158.5 55.5t235.5 47t271.5 36t265 21.5t218 2t129.5 -19q47 -82 81.5 -188t56 -224t32 -242t6.5 -241q-66 -10 -182.5 -22t-255 -22.5t-285 -18.5t-269.5 -12q4 -37 12.5 -68t22.5 -53q31 -18 94.5 -33.5 t141.5 -25t163 -17.5t159.5 -14t131 -12.5t76.5 -14.5q2 -43 -2 -99t-13 -107.5t-22.5 -92.5t-31.5 -53q-141 0 -307 10t-334 30.5t-330 55.5t-297 80q-39 47 -60.5 139t-27.5 209zM398 1742q1 46 5 89t8 69q6 43 32 74t59.5 52.5t68.5 33.5t57 19q18 4 44 1t51.5 -13.5 t50 -22.5t41.5 -25q23 -84 35 -176t2 -184q-10 -29 -45 -51.5t-80 -38t-97.5 -23.5t-97.5 -6t-78.5 14.5t-42.5 34.5q-8 25 -11 66t-2 87zM711 854q113 -4 212 12.5t171 34.5q4 57 -1.5 120.5t-31.5 113.5q-35 -2 -66.5 -3.5t-65.5 -5.5t-72 -12t-85 -29q-18 -59 -34.5 -105 t-26.5 -126zM1068 1754q1 42 5 84t6 67q6 41 29.5 70.5t54.5 49t62.5 31.5t52.5 16q35 8 87 -11t85 -44q23 -80 32.5 -168t1.5 -176q-14 -39 -74.5 -66.5t-130 -39t-129 -1t-71.5 45.5q-8 23 -10 61.5t-1 80.5z" />
<glyph unicode="&#xec;" horiz-adv-x="806" d="M-4 1958q104 53 227 83t261 30q12 -37 30.5 -93.5t43 -119t54 -127t66.5 -117.5q-33 -12 -70.5 -23.5t-77.5 -18.5t-79 -12.5t-72 -7.5q-96 66 -193.5 179.5t-189.5 226.5zM144 750.5q-1 195.5 1 381t9 334.5q61 12 128.5 18.5t136 9.5t135.5 3h126q0 -354 -12.5 -724 t-30.5 -734q-23 -12 -88.5 -19.5t-139 -12.5t-142 -5t-97.5 2q-12 168 -18.5 359.5t-7.5 387z" />
<glyph unicode="&#xed;" horiz-adv-x="806" d="M144 750.5q-1 195.5 1 381t9 334.5q61 12 128.5 18.5t136 9.5t135.5 3h126q0 -354 -12.5 -724t-30.5 -734q-23 -12 -88.5 -19.5t-139 -12.5t-142 -5t-97.5 2q-12 168 -18.5 359.5t-7.5 387zM164 1592q35 53 64.5 117.5t54.5 127t43 118.5t31 93q139 0 262 -29.5 t227 -82.5q-92 -113 -189.5 -226.5t-193.5 -179.5q-68 4 -151.5 19.5t-147.5 42.5z" />
<glyph unicode="&#xee;" horiz-adv-x="806" d="M-12 1653q16 53 40.5 115.5t54.5 127t63.5 129t66.5 119.5q33 6 88 8t113.5 3.5t112 0t79.5 -3.5q27 -51 58.5 -113.5t65.5 -128t66.5 -126t59.5 -109.5q-37 -2 -82 -7t-87 -10t-73.5 -7t-40.5 0q-12 27 -29.5 57.5t-34.5 61t-32.5 57t-23.5 41.5q-4 4 -10.5 15t-16.5 11 q-16 0 -25.5 -14t-13.5 -20q-29 -49 -60.5 -105.5t-52.5 -109.5q-49 -6 -96 -6.5t-86 3t-66.5 6.5t-37.5 5zM144 750.5q-1 195.5 1 381t9 334.5q61 12 128.5 18.5t136 9.5t135.5 3h126q0 -354 -12.5 -724t-30.5 -734q-23 -12 -88.5 -19.5t-139 -12.5t-142 -5t-97.5 2 q-12 168 -18.5 359.5t-7.5 387z" />
<glyph unicode="&#xef;" horiz-adv-x="806" d="M-38 1804q1 37 4 71t5 56q6 33 27.5 57.5t48.5 42t54.5 27.5t45.5 15q16 4 36 1t41.5 -11.5t41 -18.5t33.5 -21q18 -66 28.5 -139t2.5 -147q-8 -23 -36 -41.5t-66 -29.5t-80 -18.5t-78.5 -5t-63 11.5t-35.5 29q-6 20 -8 52t-1 69zM144 750.5q1 -195.5 7.5 -387 t18.5 -359.5q29 -2 97.5 -2t142 5t139 12.5t88.5 19.5q18 365 30.5 734.5t12.5 723.5h-126t-135.5 -3t-136 -9t-128.5 -19q-6 -150 -8.5 -335t-1.5 -380.5zM505 1812.5q1 34.5 4 68.5t5 52q4 33 23.5 56.5t44 39t50 25.5t42.5 14q29 8 71.5 -9t67.5 -36q18 -63 26.5 -132.5 t2.5 -141.5q-12 -31 -60.5 -53.5t-104.5 -31.5t-104.5 -1t-58.5 35q-6 18 -8 49t-1 65.5z" />
<glyph unicode="&#xf1;" horiz-adv-x="1904" d="M106 956.5q0 141.5 2.5 270.5t6.5 225q10 10 63 19.5t130 19.5t167 17.5t174 12.5t153.5 5t102.5 -6q59 -166 132 -326t145 -320q6 -14 20.5 -23t30.5 -6t30.5 16t22.5 40q2 10 5 79t5 160t5.5 182t5.5 142q117 27 235.5 35t237.5 0q4 -360 2 -723.5t-13 -722.5 q-59 -8 -141 -17t-177 -19.5t-197.5 -16.5t-204.5 -8q-100 147 -181.5 308t-152.5 327q-8 18 -25.5 27.5t-36 6t-34 -17.5t-19.5 -45q-14 -123 -17 -267.5t7 -318.5q-111 -29 -222.5 -33t-232.5 15q-8 61 -14 166.5t-9 236.5t-4.5 274.5t-1.5 285zM354 1641q29 49 65.5 104 t79.5 106.5t90 92.5t93 57q47 20 100 10t109.5 -35.5t117 -58.5t121.5 -57q43 -18 85 -1t77 44q39 33 76 80q51 -20 97 -53t73 -76q-20 -25 -68.5 -85.5t-109 -123t-124 -107.5t-112.5 -43q-55 4 -126 31t-137.5 53.5t-119.5 46t-74 13.5q-27 -10 -66.5 -47t-72.5 -76 q-66 27 -111 59.5t-63 65.5z" />
<glyph unicode="&#xf2;" horiz-adv-x="1802" d="M82 550v231.5t3 224t7 190.5q25 25 64 68t81 87t80.5 81.5t65.5 54.5q94 6 226 17.5t274.5 17.5t281 4t244.5 -23q78 -61 150.5 -159.5t132.5 -184.5q6 -84 11 -208t7 -251t1 -234.5t-9 -158.5q-59 -74 -115.5 -152.5t-122.5 -152.5q-98 -18 -246.5 -26.5t-311.5 -8.5 t-322.5 6.5t-280.5 20.5q-27 27 -58.5 69.5t-62 92t-57.5 98.5t-41 86q-2 94 -2 210zM393 1897q104 53 227 83t261 30q12 -37 30.5 -93.5t43 -119t54 -127t66.5 -117.5q-33 -12 -70.5 -23.5t-77.5 -18.5t-79 -12.5t-72 -7.5q-96 66 -193.5 179.5t-189.5 226.5zM686 573.5 q0 -73.5 2 -131t2 -86.5q43 -20 99.5 -25t114 1t108.5 24t82 43q4 154 8 341.5t-21 383.5q-53 -2 -101 -3t-92 -5t-87 -13t-88 -30q-10 -20 -15.5 -72.5t-8.5 -123t-3 -150.5v-153.5z" />
<glyph unicode="&#xf3;" horiz-adv-x="1802" d="M82 550v231.5t3 224t7 190.5q25 25 64 68t81 87t80.5 81.5t65.5 54.5q94 6 226 17.5t274.5 17.5t281 4t244.5 -23q78 -61 150.5 -159.5t132.5 -184.5q6 -84 11 -208t7 -251t1 -234.5t-9 -158.5q-59 -74 -115.5 -152.5t-122.5 -152.5q-98 -18 -246.5 -26.5t-311.5 -8.5 t-322.5 6.5t-280.5 20.5q-27 27 -58.5 69.5t-62 92t-57.5 98.5t-41 86q-2 94 -2 210zM686 573.5q0 -73.5 2 -131t2 -86.5q43 -20 99.5 -25t114 1t108.5 24t82 43q4 154 8 341.5t-21 383.5q-53 -2 -101 -3t-92 -5t-87 -13t-88 -30q-10 -20 -15.5 -72.5t-8.5 -123t-3 -150.5 v-153.5zM774 1573q35 53 64.5 117.5t54.5 127t43 118.5t31 93q139 0 262 -29.5t227 -82.5q-92 -113 -189.5 -226.5t-193.5 -179.5q-68 4 -151.5 19.5t-147.5 42.5z" />
<glyph unicode="&#xf4;" horiz-adv-x="1802" d="M82 550v231.5t3 224t7 190.5q25 25 64 68t81 87t80.5 81.5t65.5 54.5q94 6 226 17.5t274.5 17.5t281 4t244.5 -23q78 -61 150.5 -159.5t132.5 -184.5q6 -84 11 -208t7 -251t1 -234.5t-9 -158.5q-59 -74 -115.5 -152.5t-122.5 -152.5q-98 -18 -246.5 -26.5t-311.5 -8.5 t-322.5 6.5t-280.5 20.5q-27 27 -58.5 69.5t-62 92t-57.5 98.5t-41 86q-2 94 -2 210zM387 1558q20 55 50 119.5t66 132.5t74.5 134.5t77.5 125.5q41 4 106.5 7t136.5 4t133.5 0t94.5 -1q31 -55 70 -121.5t79 -132t78.5 -129t71.5 -114.5q-43 -2 -97 -8.5t-105.5 -11.5 t-88 -7t-47.5 0q-14 27 -35.5 60.5t-42 65.5t-39 57.5t-28.5 39.5q-4 6 -11 18.5t-20 12.5q-18 0 -30.5 -15.5t-16.5 -21.5q-33 -49 -70.5 -108.5t-62.5 -116.5q-57 -4 -113.5 -4t-103.5 2t-81 6t-46 6zM686 573.5q0 -73.5 2 -131t2 -86.5q43 -20 99.5 -25t114 1t108.5 24 t82 43q4 154 8 341.5t-21 383.5q-53 -2 -101 -3t-92 -5t-87 -13t-88 -30q-10 -20 -15.5 -72.5t-8.5 -123t-3 -150.5v-153.5z" />
<glyph unicode="&#xf5;" horiz-adv-x="1802" d="M82 550v231.5t3 224t7 190.5q25 25 64 68t81 87t80.5 81.5t65.5 54.5q94 6 226 17.5t274.5 17.5t281 4t244.5 -23q78 -61 150.5 -159.5t132.5 -184.5q6 -84 11 -208t7 -251t1 -234.5t-9 -158.5q-59 -74 -115.5 -152.5t-122.5 -152.5q-98 -18 -246.5 -26.5t-311.5 -8.5 t-322.5 6.5t-280.5 20.5q-27 27 -58.5 69.5t-62 92t-57.5 98.5t-41 86q-2 94 -2 210zM305 1671q29 49 65.5 104t79.5 106.5t90 92.5t93 57q47 20 100 10t109.5 -35.5t117 -58.5t121.5 -57q43 -18 85 -1t77 44q39 33 76 80q51 -20 97 -53t73 -76q-20 -25 -68.5 -85.5 t-109 -123t-124 -107.5t-112.5 -43q-55 4 -126 31t-137.5 53.5t-119.5 46t-74 13.5q-27 -10 -66.5 -47t-72.5 -76q-66 27 -111 59.5t-63 65.5zM686 573.5q0 -73.5 2 -131t2 -86.5q43 -20 99.5 -25t114 1t108.5 24t82 43q4 154 8 341.5t-21 383.5q-53 -2 -101 -3t-92 -5 t-87 -13t-88 -30q-10 -20 -15.5 -72.5t-8.5 -123t-3 -150.5v-153.5z" />
<glyph unicode="&#xf6;" horiz-adv-x="1802" d="M82 550v231.5t3 224t7 190.5q25 25 64 68t81 87t80.5 81.5t65.5 54.5q94 6 226 17.5t274.5 17.5t281 4t244.5 -23q78 -61 150.5 -159.5t132.5 -184.5q6 -84 11 -208t7 -251t1 -234.5t-9 -158.5q-59 -74 -115.5 -152.5t-122.5 -152.5q-98 -18 -246.5 -26.5t-311.5 -8.5 t-322.5 6.5t-280.5 20.5q-27 27 -58.5 69.5t-62 92t-57.5 98.5t-41 86q-2 94 -2 210zM374 1742q1 46 5 89t8 69q6 43 32 74t59.5 52.5t68.5 33.5t57 19q18 4 44 1t51.5 -13.5t50 -22.5t41.5 -25q23 -84 35 -176t2 -184q-10 -29 -45 -51.5t-80 -38t-97.5 -23.5t-97.5 -6 t-78.5 14.5t-42.5 34.5q-8 25 -11 66t-2 87zM686 573.5q0 -73.5 2 -131t2 -86.5q43 -20 99.5 -25t114 1t108.5 24t82 43q4 154 8 341.5t-21 383.5q-53 -2 -101 -3t-92 -5t-87 -13t-88 -30q-10 -20 -15.5 -72.5t-8.5 -123t-3 -150.5v-153.5zM1044 1754q1 42 5 84t6 67 q6 41 29.5 70.5t54.5 49t62.5 31.5t52.5 16q35 8 87 -11t85 -44q23 -80 32.5 -168t1.5 -176q-14 -39 -74.5 -66.5t-130 -39t-129 -1t-71.5 45.5q-8 23 -10 61.5t-1 80.5z" />
<glyph unicode="&#xf7;" horiz-adv-x="1105" d="M111 894q-2 -67 3 -135.5t19 -129.5q104 14 214 19t220.5 8t221.5 7.5t215 10.5q6 37 7 96t-1 122.5t-7.5 124t-11.5 97.5q-41 6 -107.5 8t-147.5 2t-168 -1t-168 -2t-149.5 -5t-111.5 -6q-10 -37 -18 -93t-10 -123zM320.5 208q1.5 40 5.5 77t8 61q6 37 35.5 63.5 t66.5 45t75 30t62 15.5q20 6 48 2t57 -12.5t55.5 -18.5t44.5 -22q27 -72 40 -153t3 -163q-12 -25 -50 -44t-88 -32.5t-107.5 -19.5t-107.5 -5t-87 12t-47 32q-10 20 -12.5 56t-1 76zM325 1456q1 41 5 82t8 66q6 39 33.5 68.5t62.5 49t71 30.5t58 15q20 6 46 2t53.5 -12 t53 -19.5t44.5 -23.5q25 -78 37 -164t2 -172q-10 -29 -46 -49t-84 -34.5t-102.5 -22.5t-101.5 -5t-82 14t-45 32q-10 23 -12 62.5t-1 80.5z" />
<glyph unicode="&#xf8;" horiz-adv-x="1802" d="M82 574.5v231.5t3 224.5t7 190.5q25 25 64 67.5t81 86.5t80.5 82t65.5 54q61 4 140 11.5t168 13.5t183.5 10t186.5 4q23 41 44 83t46 83q74 8 146.5 4t134 -12t105.5 -19.5t60 -17.5q-29 -49 -57.5 -102t-56.5 -111q59 -61 111.5 -136t97.5 -138q6 -84 11 -208t7 -251 t1 -234.5t-9 -158.5q-59 -74 -115.5 -153t-122.5 -152q-55 -10 -129.5 -16.5t-158.5 -10.5t-177.5 -5t-185.5 -1q-16 -37 -29.5 -71t-27.5 -68q-74 -10 -145.5 -10.5t-132 4t-103.5 11.5t-60 11q14 35 27.5 70.5t26.5 70.5q-16 2 -33 3t-33 3q-27 27 -58.5 70t-62 92 t-57.5 98.5t-41 86.5q-2 94 -2 209.5zM686 786q41 90 81 176.5t81 172.5q-68 -8 -135 -37q-6 -14 -11.5 -44t-8.5 -72t-5 -92t-2 -104zM971 369q37 8 68.5 22.5t54.5 32.5q2 57 4 119t4 125q-35 -76 -68 -150t-63 -149z" />
<glyph unicode="&#xf9;" d="M110 1117.5q1 103.5 4 189.5t11 137q147 18 285.5 21t296.5 -15q-12 -158 -16.5 -295t-3.5 -263t7 -241.5t15 -230.5q37 -14 90 -20.5t107.5 -3.5t104.5 19.5t83 43.5q0 119 -2 248t-3.5 259t-1.5 255t3 231q147 29 293 29t300 4q-2 -127 -6 -276.5t-6 -302t-2 -295 t4 -255.5q-12 -37 -37.5 -81t-58.5 -91t-67.5 -91t-65.5 -79q-104 -2 -243.5 -8t-290 -11t-299 -5t-273.5 10q-25 25 -57.5 67t-64.5 89t-57.5 94t-37.5 82q0 61 -2 153.5t-4 199t-4 218t-1 215zM395 1835q104 53 227 83t261 30q12 -37 30.5 -93.5t43 -119t54 -127 t66.5 -117.5q-33 -12 -70.5 -23.5t-77.5 -18.5t-79 -12.5t-72 -7.5q-96 66 -193.5 179.5t-189.5 226.5z" />
<glyph unicode="&#xfa;" d="M110 1117.5q1 103.5 4 189.5t11 137q147 18 285.5 21t296.5 -15q-12 -158 -16.5 -295t-3.5 -263t7 -241.5t15 -230.5q37 -14 90 -20.5t107.5 -3.5t104.5 19.5t83 43.5q0 119 -2 248t-3.5 259t-1.5 255t3 231q147 29 293 29t300 4q-2 -127 -6 -276.5t-6 -302t-2 -295 t4 -255.5q-12 -37 -37.5 -81t-58.5 -91t-67.5 -91t-65.5 -79q-104 -2 -243.5 -8t-290 -11t-299 -5t-273.5 10q-25 25 -57.5 67t-64.5 89t-57.5 94t-37.5 82q0 61 -2 153.5t-4 199t-4 218t-1 215zM710 1497q35 53 64.5 117.5t54.5 127t43 118.5t31 93q139 0 262 -29.5 t227 -82.5q-92 -113 -189.5 -226.5t-193.5 -179.5q-68 4 -151.5 19.5t-147.5 42.5z" />
<glyph unicode="&#xfb;" d="M110 1117.5q1 103.5 4 189.5t11 137q147 18 285.5 21t296.5 -15q-12 -158 -16.5 -295t-3.5 -263t7 -241.5t15 -230.5q37 -14 90 -20.5t107.5 -3.5t104.5 19.5t83 43.5q0 119 -2 248t-3.5 259t-1.5 255t3 231q147 29 293 29t300 4q-2 -127 -6 -276.5t-6 -302t-2 -295 t4 -255.5q-12 -37 -37.5 -81t-58.5 -91t-67.5 -91t-65.5 -79q-104 -2 -243.5 -8t-290 -11t-299 -5t-273.5 10q-25 25 -57.5 67t-64.5 89t-57.5 94t-37.5 82q0 61 -2 153.5t-4 199t-4 218t-1 215zM393 1497q20 55 50 119.5t66 132.5t74.5 134.5t77.5 125.5q41 4 106.5 7 t136.5 4t133.5 0t94.5 -1q31 -55 70 -121.5t79 -132t78.5 -129t71.5 -114.5q-43 -2 -97 -8.5t-105.5 -11.5t-88 -7t-47.5 0q-14 27 -35.5 60.5t-42 65.5t-39 57.5t-28.5 39.5q-4 6 -11 18.5t-20 12.5q-18 0 -30.5 -15.5t-16.5 -21.5q-33 -49 -70.5 -108.5t-62.5 -116.5 q-57 -4 -113.5 -4t-103.5 2t-81 6t-46 6z" />
<glyph unicode="&#xfc;" d="M110 1117.5q1 103.5 4 189.5t11 137q147 18 285.5 21t296.5 -15q-12 -158 -16.5 -295t-3.5 -263t7 -241.5t15 -230.5q37 -14 90 -20.5t107.5 -3.5t104.5 19.5t83 43.5q0 119 -2 248t-3.5 259t-1.5 255t3 231q147 29 293 29t300 4q-2 -127 -6 -276.5t-6 -302t-2 -295 t4 -255.5q-12 -37 -37.5 -81t-58.5 -91t-67.5 -91t-65.5 -79q-104 -2 -243.5 -8t-290 -11t-299 -5t-273.5 10q-25 25 -57.5 67t-64.5 89t-57.5 94t-37.5 82q0 61 -2 153.5t-4 199t-4 218t-1 215zM355 1695q1 46 5 89t8 69q6 43 32 74t59.5 52.5t68.5 33.5t57 19q18 4 44 1 t51.5 -13.5t50 -22.5t41.5 -25q23 -84 35 -176t2 -184q-10 -29 -45 -51.5t-80 -38t-97.5 -23.5t-97.5 -6t-78.5 14.5t-42.5 34.5q-8 25 -11 66t-2 87zM1025 1707q1 42 5 84t6 67q6 41 29.5 70.5t54.5 49t62.5 31.5t52.5 16q35 8 87 -11t85 -44q23 -80 32.5 -168t1.5 -176 q-14 -39 -74.5 -66.5t-130 -39t-129 -1t-71.5 45.5q-8 23 -10 61.5t-1 80.5z" />
<glyph unicode="&#xfd;" d="M66 1497q72 6 160.5 12.5t171.5 11.5t145.5 7t77.5 -2q12 -43 42.5 -105.5t64.5 -124t62.5 -112.5t38.5 -74q2 -6 10.5 -18.5t19.5 -25.5t23.5 -22.5t22.5 -9.5q31 0 51.5 21.5t26.5 34.5q57 104 109.5 216.5t115.5 215.5q96 8 181.5 7t153 -6t115.5 -12.5t68 -13.5 q-66 -92 -138 -210t-149 -242.5t-154 -247.5t-148 -230q-4 -154 -8.5 -294t-8.5 -259q-61 -12 -129.5 -16t-137.5 -4t-136.5 4t-128.5 4q0 147 -4 291.5t-9 292.5q-41 47 -90 118.5t-101 154.5t-103.5 175t-95.5 178t-74.5 160t-44.5 125zM727 1452q35 53 64.5 117.5 t54.5 127t43 118.5t31 93q139 0 262 -29.5t227 -82.5q-92 -113 -189.5 -226.5t-193.5 -179.5q-68 4 -151.5 19.5t-147.5 42.5z" />
<glyph unicode="&#xff;" d="M66 1497q72 6 160.5 12.5t171.5 11.5t145.5 7t77.5 -2q12 -43 42.5 -105.5t64.5 -124t62.5 -112.5t38.5 -74q2 -6 10.5 -18.5t19.5 -25.5t23.5 -22.5t22.5 -9.5q31 0 51.5 21.5t26.5 34.5q57 104 109.5 216.5t115.5 215.5q96 8 181.5 7t153 -6t115.5 -12.5t68 -13.5 q-66 -92 -138 -210t-149 -242.5t-154 -247.5t-148 -230q-4 -154 -8.5 -294t-8.5 -259q-61 -12 -129.5 -16t-137.5 -4t-136.5 4t-128.5 4q0 147 -4 291.5t-9 292.5q-41 47 -90 118.5t-101 154.5t-103.5 175t-95.5 178t-74.5 160t-44.5 125zM349 1758q1 46 5 89t8 69 q6 43 32 74t59.5 52.5t68.5 33.5t57 19q18 4 44 1t51.5 -13.5t50 -22.5t41.5 -25q23 -84 35 -176t2 -184q-10 -29 -45 -51.5t-80 -38t-97.5 -23.5t-97.5 -6t-78.5 14.5t-42.5 34.5q-8 25 -11 66t-2 87zM1019 1770q1 42 5 84t6 67q6 41 29.5 70.5t54.5 49t62.5 31.5t52.5 16 q35 8 87 -11t85 -44q23 -80 32.5 -168t1.5 -176q-14 -39 -74.5 -66.5t-130 -39t-129 -1t-71.5 45.5q-8 23 -10 61.5t-1 80.5z" />
<glyph unicode="&#x152;" horiz-adv-x="2785" d="M95 682.5q-1 151.5 0 304t3 294.5t8 251q29 31 74 89t94.5 116.5t95.5 109.5t76 68q100 10 237.5 16t287 8.5t301 2.5t278.5 -3q145 -2 298 -3t300.5 -1t283.5 -2t247 -6q12 -33 16 -83t5 -104t-1 -106.5t-4 -89.5q-156 -8 -310.5 -4t-309.5 -10q-18 -25 -29.5 -74 t-14.5 -107.5t3 -113.5t20 -92q6 -2 43 -2t91.5 1t119 1h124.5t111.5 -1t77.5 -5q8 -74 13.5 -160t-4.5 -158q-70 -8 -143.5 -9t-147.5 -2t-146.5 -5t-142.5 -19q-14 -29 -19.5 -80t-3 -106t7.5 -107.5t11 -84.5q45 -14 128 -16.5t176 -0.5t182 4t147 -4q16 -94 18 -199.5 t-22 -199.5q-125 -12 -245 -18.5t-239.5 -8.5t-241.5 -4t-249 -10q-80 -4 -184.5 -9.5t-223 -9.5t-245.5 -5t-250 0t-237 7.5t-206 18.5q-31 35 -68.5 92t-74.5 121.5t-66.5 129t-46.5 114.5q-2 123 -3 274.5zM801 698.5q0 -96.5 2 -173t2 -113.5q49 -25 115.5 -33t134 1 t127 32.5t96.5 56.5q2 102 6 214t4 233.5t-5 248.5t-19 256q-63 -2 -118.5 -4t-108 -6t-102.5 -18.5t-104 -40.5q-10 -25 -17 -93.5t-10 -160.5t-3 -197.5v-202z" />
<glyph unicode="&#x153;" horiz-adv-x="2846" d="M82 552v231.5t3 225t7 189.5q25 25 64 68t81 88t80.5 83t65.5 52q94 8 226 18.5t274.5 16.5t281 4t244.5 -23q20 -14 38.5 -31.5t37.5 -35.5q88 18 193.5 34.5t215 28.5t215 20.5t195.5 11.5t155.5 -2t94.5 -18q49 -82 84 -188t56.5 -224t31.5 -242t6 -241 q-66 -10 -182.5 -22t-256 -22.5t-284.5 -18.5t-270 -12q4 -37 12 -68t23 -53q31 -18 94 -33.5t141 -25t163 -17.5t159.5 -14t131 -12.5t77.5 -14.5q2 -43 -2.5 -99t-13.5 -107.5t-22.5 -92.5t-31.5 -53q-106 0 -226 6t-245 17.5t-251 30t-247 42.5l-37 -45 q-98 -16 -246.5 -25.5t-311.5 -9.5t-322.5 6.5t-280.5 22.5q-27 27 -58.5 70t-62 92t-57.5 98t-41 86q-2 92 -2 208zM686 577.5q0 -73.5 2 -132t2 -87.5q43 -20 99.5 -24t114 2t108.5 24t82 43q4 152 8 340.5t-21 384.5q-53 -4 -101 -5t-92 -4t-87 -13t-88 -31 q-10 -18 -15.5 -71.5t-8.5 -123t-3 -149.5v-153.5zM1747 854q113 -4 212 12.5t171 34.5q4 57 -1 120.5t-32 113.5q-35 -2 -66.5 -3.5t-65.5 -5.5t-72 -12t-85 -29q-16 -59 -33.5 -105t-27.5 -126z" />
<glyph unicode="&#x178;" horiz-adv-x="1880" d="M74 1686q14 -57 50 -142.5t83 -180.5t104.5 -198.5t114.5 -197t112.5 -175t100.5 -133.5q4 -166 9 -329.5t5 -327.5q68 0 142.5 -4t151.5 -4t153 4t145 16q6 137 10.5 296t8.5 327q80 121 164.5 260t169.5 279.5t166 272t155 237.5q-23 6 -76 13t-129 13t-171 8t-200 -6 q-72 -119 -129 -245t-120 -244q-8 -12 -31 -38t-57 -24q-12 0 -25.5 11.5t-26 25.5t-21.5 28.5t-11 18.5q-10 27 -43 85.5t-71 127t-72 138t-46 118.5q-18 6 -86.5 3t-161 -9t-191.5 -13t-177 -11zM396 2008q1 46 5.5 89t8.5 70q6 43 32.5 73.5t60.5 52t68.5 34t55.5 16.5 q18 6 43.5 2t51.5 -14.5t50.5 -22.5t40.5 -24q23 -82 35 -174.5t4 -186.5q-16 -41 -81.5 -70.5t-141.5 -41t-140.5 -1t-78.5 47.5q-8 25 -11.5 64.5t-2.5 85.5zM1066 2019q1 43 5 85t6 67q6 43 29.5 70.5t54.5 47t62.5 32t52.5 18.5q18 4 40.5 1t47.5 -12.5t47.5 -21.5 t36.5 -25q23 -78 33 -165t2 -177q-10 -27 -41 -47t-74 -35.5t-90 -22.5t-89 -4t-73 13t-39 33t-10 61.5t-1 81.5z" />
<glyph unicode="&#x2c6;" horiz-adv-x="1323" d="M170 1112q20 55 50 119.5t66 132.5t74.5 134.5t77.5 125.5q41 4 106.5 7t136.5 4t133.5 0t94.5 -1q31 -55 70 -121.5t79 -132t78.5 -129t71.5 -114.5q-43 -2 -97 -8.5t-105.5 -11.5t-88 -7t-47.5 0q-14 27 -35.5 60.5t-42 65.5t-39 57.5t-28.5 39.5q-4 6 -11 18.5 t-20 12.5q-18 0 -30.5 -15.5t-16.5 -21.5q-33 -49 -70.5 -108.5t-62.5 -116.5q-57 -4 -113.5 -4t-103.5 2t-81 6t-46 6z" />
<glyph unicode="&#x2dc;" horiz-adv-x="1314" d="M78 1268q29 49 65.5 104t79.5 106.5t90 92.5t93 57q47 20 100 10t109.5 -35.5t117 -58.5t121.5 -57q43 -18 85 -1t77 44q39 33 76 80q51 -20 97 -53t73 -76q-20 -25 -68.5 -85.5t-109 -123t-124 -107.5t-112.5 -43q-55 4 -126 31t-137.5 53.5t-119.5 46t-74 13.5 q-27 -10 -66.5 -47t-72.5 -76q-66 27 -111 59.5t-63 65.5z" />
<glyph unicode="&#x2000;" horiz-adv-x="1189" />
<glyph unicode="&#x2001;" horiz-adv-x="2379" />
<glyph unicode="&#x2002;" horiz-adv-x="1189" />
<glyph unicode="&#x2003;" horiz-adv-x="2379" />
<glyph unicode="&#x2004;" horiz-adv-x="793" />
<glyph unicode="&#x2005;" horiz-adv-x="594" />
<glyph unicode="&#x2006;" horiz-adv-x="396" />
<glyph unicode="&#x2007;" horiz-adv-x="396" />
<glyph unicode="&#x2008;" horiz-adv-x="297" />
<glyph unicode="&#x2009;" horiz-adv-x="475" />
<glyph unicode="&#x200a;" horiz-adv-x="132" />
<glyph unicode="&#x2010;" horiz-adv-x="819" d="M108.5 762.5q2.5 66.5 7.5 123t11 93.5q43 6 122 9t165 6t163.5 0t118.5 -9q4 -37 7.5 -97.5t4.5 -125t-0.5 -122.5t-5.5 -95q-141 -18 -290.5 -19.5t-288.5 -27.5q-10 61 -13.5 129.5t-1 135z" />
<glyph unicode="&#x2011;" horiz-adv-x="819" d="M108.5 762.5q2.5 66.5 7.5 123t11 93.5q43 6 122 9t165 6t163.5 0t118.5 -9q4 -37 7.5 -97.5t4.5 -125t-0.5 -122.5t-5.5 -95q-141 -18 -290.5 -19.5t-288.5 -27.5q-10 61 -13.5 129.5t-1 135z" />
<glyph unicode="&#x2012;" horiz-adv-x="819" d="M108.5 762.5q2.5 66.5 7.5 123t11 93.5q43 6 122 9t165 6t163.5 0t118.5 -9q4 -37 7.5 -97.5t4.5 -125t-0.5 -122.5t-5.5 -95q-141 -18 -290.5 -19.5t-288.5 -27.5q-10 61 -13.5 129.5t-1 135z" />
<glyph unicode="&#x2013;" horiz-adv-x="1126" d="M111 762.5q2 66.5 10 123t18 93.5q43 2 111.5 6t149.5 5t168 2t168 1t147.5 -2t107.5 -6q6 -37 11.5 -97.5t7.5 -125t1 -122.5t-7 -95q-104 -8 -215 -11.5t-221.5 -7.5t-220 -9t-214.5 -19q-14 61 -19 129.5t-3 135z" />
<glyph unicode="&#x2014;" horiz-adv-x="1425" d="M114 762.5q3 66.5 13 123t25 93.5q57 2 149 6t200.5 5t224.5 2t222.5 1t195.5 -2t144 -6q8 -37 14.5 -97.5t9.5 -125t2 -122.5t-11 -95q-139 -8 -286 -11.5t-295.5 -7.5t-293.5 -9t-285 -19q-20 61 -26 129.5t-3 135z" />
<glyph unicode="&#x2018;" horiz-adv-x="753" d="M94 1526q98 115 211 184t234 98q16 -98 31.5 -198.5t26.5 -197.5t16 -185t-1 -162q-53 -51 -124.5 -104.5t-141.5 -77.5q-20 86 -53 178t-70 178t-70.5 161t-58.5 126z" />
<glyph unicode="&#x2019;" horiz-adv-x="753" d="M80 1049q35 84 63.5 182t53 195.5t43 183.5t30.5 145q129 -6 244 -53t213 -133q-43 -90 -89 -179.5t-93 -172t-93 -152.5t-94 -119q-63 8 -141 34t-137 69z" />
<glyph unicode="&#x201a;" horiz-adv-x="753" d="M80 25q35 84 63.5 182t53 195.5t43 183.5t30.5 145q129 -6 244 -53t213 -133q-43 -90 -89 -179.5t-93 -172t-93 -152.5t-94 -119q-63 8 -141 34t-137 69z" />
<glyph unicode="&#x201c;" horiz-adv-x="1183" d="M59 1448q78 102 173 163.5t206 84.5q29 -94 57.5 -189.5t52 -187.5t41 -177t21.5 -157q-41 -47 -102.5 -93t-122.5 -67q-31 84 -75 172t-90 172t-89 157t-72 122zM596 1577q92 96 195.5 147.5t214.5 63.5q10 -98 21 -199.5t17.5 -198t7.5 -183.5t-8 -158 q-47 -41 -114.5 -84t-130.5 -56q-14 88 -41 184.5t-56.5 185.5t-58.5 167t-47 131z" />
<glyph unicode="&#x201d;" horiz-adv-x="1183" d="M111 1055q20 88 34.5 190.5t23.5 201.5t15 188t11 151q228 30 423 -105q-29 -92 -58.5 -189t-60 -186t-63.5 -167t-67 -135q-55 -2 -127 7t-131 44zM549 965q35 78 65.5 171t56 185t46 175t35.5 138q244 1 426 -153q-43 -84 -89.5 -170t-93.5 -165t-93 -147.5t-91 -117.5 q-59 4 -133 24.5t-129 59.5z" />
<glyph unicode="&#x201e;" horiz-adv-x="1224" d="M117 72q20 88 34.5 188t23.5 199.5t15.5 188.5t10.5 151q115 18 221.5 -8.5t202.5 -92.5q-29 -94 -58.5 -191t-61.5 -185.5t-63.5 -167t-66.5 -136.5q-57 -4 -129 7.5t-129 46.5zM565 61q35 78 66 171.5t57.5 185.5t46 174t33.5 137q123 2 229.5 -38t198.5 -116 q-45 -84 -91 -168.5t-93 -164.5t-93.5 -147.5t-89.5 -117.5q-59 4 -133.5 25t-130.5 59z" />
<glyph unicode="&#x2022;" horiz-adv-x="905" d="M145 699.5q2 52.5 8.5 101.5t10.5 82q8 49 44 86t82 61.5t93 37.5t78 22q25 4 59.5 0.5t70.5 -14.5t68.5 -26.5t57.5 -29.5q33 -96 48 -202.5t3 -215.5q-14 -35 -61.5 -60.5t-109.5 -44t-134 -26.5t-134.5 -6t-107.5 17.5t-57 41.5q-12 27 -16.5 75t-2.5 100.5z" />
<glyph unicode="&#x2026;" horiz-adv-x="2334" d="M158 125q2 43 6 83t6 64q6 41 32.5 69t60.5 47.5t69 31.5t57 18q18 4 44 1t51.5 -12t50 -20.5t43.5 -23.5q23 -78 34.5 -164t1.5 -174q-10 -25 -44.5 -46.5t-81 -35.5t-98.5 -21.5t-98 -5t-79 13.5t-43 34q-8 23 -11 60.5t-1 80.5zM868 164q2 43 6.5 84t6.5 65 q6 39 32.5 67t60.5 48.5t68.5 32.5t57.5 16q18 4 43.5 0t51.5 -13t50.5 -20.5t42.5 -23.5q23 -78 35 -164t2 -172q-10 -27 -45 -48.5t-81 -34.5t-98 -20.5t-98.5 -5.5t-79 13.5t-42.5 34.5q-8 23 -11.5 60.5t-1.5 80.5zM1597 135q2 43 6.5 83t6.5 65q6 39 32.5 67.5t60.5 48 t68.5 31.5t57.5 19q18 4 43.5 -0.5t51.5 -12.5t50.5 -19t42.5 -24q23 -78 35 -164t2 -174q-10 -25 -45 -46t-81 -35.5t-98 -21.5t-98 -5t-79 13t-43 34q-8 20 -11.5 59t-1.5 82z" />
<glyph unicode="&#x202f;" horiz-adv-x="475" />
<glyph unicode="&#x2039;" horiz-adv-x="1130" d="M98 874q129 207 243 408t234 412q82 6 163 3t149.5 -10.5t117 -17.5t66.5 -14q-61 -117 -119.5 -217.5t-115 -192.5t-111.5 -178t-109 -174q45 -84 100.5 -182.5t112 -199.5t111.5 -196.5t100 -171.5q-61 -8 -138 -16t-148.5 -16.5t-125 -11.5t-67.5 1 q-131 193 -246.5 384.5t-216.5 389.5z" />
<glyph unicode="&#x203a;" horiz-adv-x="1130" d="M98 143q59 117 117.5 217.5t116 192.5t112 179t107.5 177q-45 82 -99.5 180.5t-110.5 200t-111.5 196.5t-100.5 173q61 4 138 14t148.5 17.5t125 10.5t67.5 -1q131 -193 247 -384.5t216 -391.5q-129 -207 -242.5 -404.5t-234.5 -413.5q-82 -6 -163 -3t-149.5 11.5 t-117 16.5t-66.5 12z" />
<glyph unicode="&#x205f;" horiz-adv-x="594" />
<glyph unicode="&#x20ac;" horiz-adv-x="1708" d="M96 677q0 50 10.5 93t26.5 68q23 0 50.5 1t58.5 1q0 33 1 64.5t3 66.5q-29 -4 -54.5 -5t-54.5 -1q-25 43 -29 94t4.5 100t25 92t32.5 68q25 0 53.5 1t61.5 1q18 111 44.5 201t61.5 153q55 35 156.5 67t224.5 56.5t256 43t250 26.5t206 5t126 -24q4 -27 11 -63.5t12 -83.5 t6 -103.5t-9 -121.5q-98 -10 -189 -15.5t-175 -12.5t-164 -24.5t-156 -54.5q-2 -10 -4 -19.5t-6 -21.5q168 0 315.5 -3t233.5 -7q10 -25 18 -72t12.5 -98t2.5 -96t-13 -74q-154 -4 -309.5 -4h-310.5q-4 -35 -6 -68t-5 -67q98 0 192.5 -1t178.5 -2t153.5 -4.5t117.5 -5.5 q10 -25 12 -71.5t0 -96t-9.5 -94.5t-17.5 -71q-154 -6 -305.5 -8.5t-304.5 -2.5q8 -29 18 -53q33 -25 94.5 -39t136 -21.5t155.5 -10.5t152 -6t125 -8t77 -17q2 -51 -2.5 -108.5t-13.5 -108t-23.5 -90t-32.5 -54.5q-150 2 -306.5 7.5t-314 22.5t-311 50t-295.5 92 q-35 49 -57.5 134t-34.5 196q-29 0 -56.5 -1t-56.5 -5q-27 53 -38 108.5t-11 105.5z" />
<glyph unicode="&#x2122;" horiz-adv-x="1945" d="M78 1558.5q6 61.5 12 135.5q78 10 166 16t180 6t182.5 -4t167.5 -12q8 -72 11 -133t-11 -129q-23 -4 -50 -3t-56 4t-54.5 5t-41.5 -2q-8 -158 -15.5 -323t-5.5 -326q-20 -14 -54 -22.5t-70 -9.5t-71.5 2t-64.5 7q-6 29 -10 117t-5 192.5t-2 202.5t-1 150q-45 14 -105.5 9 t-95.5 -16q-12 72 -6 133.5zM831 743q-2 109 5.5 241t17.5 264t21.5 246t17.5 181q94 8 189.5 11.5t185.5 3.5q2 -14 9 -63.5t15 -108t16.5 -110.5t12.5 -73q8 -39 23.5 -37t23.5 37q10 49 32.5 151.5t45.5 207.5q96 10 189.5 9t179.5 -7q12 -233 24 -463t35 -463 q-63 -12 -128 -18.5t-134 8.5q-10 98 -18.5 195.5t-16.5 197.5q0 10 -10.5 12t-14.5 -4q-12 -39 -26.5 -93t-27.5 -112.5t-26.5 -111.5t-23.5 -94q-59 -4 -127 -8.5t-127 8.5q-27 98 -53.5 193t-50.5 196q-4 12 -16.5 16t-14.5 -41q-4 -94 -9.5 -186t-9.5 -185 q-49 -12 -99 -10t-110 10z" />
<glyph unicode="&#x25fc;" horiz-adv-x="1550" d="M0 0v1550h1550v-1550h-1550z" />
<glyph unicode="&#xfb01;" horiz-adv-x="2375" d="M108.5 1025q2.5 54 7.5 100t11 75q41 4 125 7t182 3q4 111 12.5 211.5t20.5 183.5t29.5 141t40.5 89q133 49 244.5 74.5t220 38t223 14.5t254.5 4q18 -12 31.5 -49t22.5 -84t13 -100.5t2 -94.5q-115 -8 -237.5 -34.5t-216.5 -87.5q-18 -33 -30.5 -89.5t-21.5 -177.5 q57 -10 106.5 -12t96.5 -2t95.5 1t99.5 -3q12 -53 16 -94t3 -82t-9 -82t-20 -92q-74 -10 -118 -13.5t-83 -7.5t-83 -10t-118 -21q-2 -102 -2 -223v-233.5t1 -207.5t3 -144q-66 -14 -143.5 -22.5t-156.5 -12.5t-151.5 -3t-127.5 9q-4 53 -8.5 142t-8.5 199.5t-6 237.5t-2 261 q-84 -4 -162 -8.5t-141 -14.5q-10 49 -13.5 104.5t-1 109.5zM1685 1708q2 39 7 76t9 57q6 37 40 63.5t77 45t87 28t71 15.5q23 4 54.5 0t64 -12.5t64.5 -18.5t52 -22q29 -70 43 -147.5t4 -155.5q-12 -25 -56 -45.5t-101.5 -33t-123 -19.5t-122.5 -4t-99 12.5t-55 29.5 q-12 23 -15 57.5t-1 73.5zM1700 680q-3 350 10 655q61 12 128.5 18.5t136 9.5t135.5 3h126q0 -178 -3 -340t-9 -322.5t-13.5 -325.5t-17.5 -347q-23 -12 -88.5 -19.5t-139 -12.5t-142 -5t-97.5 2q-23 334 -26 684z" />
<glyph unicode="&#xfb02;" horiz-adv-x="2519" d="M108.5 1025q2.5 54 7.5 100t11 75q41 4 125 7t182 3q4 111 12.5 211.5t20.5 183.5t29.5 141t40.5 89q133 49 244.5 74.5t220 38t223 14.5t254.5 4q18 -12 31.5 -49t22.5 -84t13 -100.5t2 -94.5q-115 -8 -237.5 -34.5t-216.5 -87.5q-18 -33 -30.5 -89.5t-21.5 -177.5 q57 -10 106.5 -12t96.5 -2t95.5 1t99.5 -3q12 -53 16 -94t3 -82t-9 -82t-20 -92q-74 -10 -118 -13.5t-83 -7.5t-83 -10t-118 -21q-2 -102 -2 -223v-233.5t1 -207.5t3 -144q-66 -14 -143.5 -22.5t-156.5 -12.5t-151.5 -3t-127.5 9q-4 53 -8.5 142t-8.5 199.5t-6 237.5t-2 261 q-84 -4 -162 -8.5t-141 -14.5q-10 49 -13.5 104.5t-1 109.5zM1767 1601.5q1 151.5 7 245.5q16 6 59 13.5t101.5 11.5t125 5t128 2t111.5 -1t75 -4q-2 -96 -4 -262t-3 -358.5t-1 -397.5v-380v-303v-169q-70 -8 -116 -13t-101.5 -6t-134 3t-216.5 10q-2 80 -6 222t-8 316.5 t-9 366t-7 369.5t-1 329.5z" />
</font>
</defs>
</svg>
