<svg version="1.1" id="Elixir" xmlns="http://www.w3.org/2000/svg" xmlns:xlink="http://www.w3.org/1999/xlink" width="120px" height="120px" viewBox="0 0 120 120" xml:space="preserve">
<g>
	<path fill-rule="evenodd" clip-rule="evenodd" fill="#D770AD" d="M95.092,3.009c0.611,2.382,1.193,4.479,1.688,6.597
		c3.241,13.857,6.547,27.697,9.646,41.584c1.188,5.315,2.164,10.709,2.746,16.118c1.149,10.631-1.533,20.408-7.711,29.12
		c-7.721,10.882-18.34,17.43-31.375,19.891c-14.578,2.754-28.144,0.022-40.287-8.616c-9.715-6.911-16.061-16.21-18.36-28.009
		c-2.252-11.566,0.077-22.285,6.488-32.138c5.951-9.15,13.889-16.27,22.899-22.269C51.802,17.98,63.748,12.694,76.24,8.625
		C82.429,6.609,88.718,4.898,95.092,3.009z M84.629,20.33c-2.195,0.581-4.332,1.117-6.451,1.715
		c-10.076,2.842-19.806,6.53-28.798,11.973c-6.738,4.077-12.762,8.979-17.484,15.366c-3.972,5.365-6.36,11.302-6.466,18.021
		c-0.151,9.396,3.419,17.249,10.319,23.534c13.287,12.105,34.214,12.399,47.828,0.65c7.502-6.478,11.426-14.729,10.98-24.715
		c-0.172-3.831-0.912-7.67-1.723-11.436c-1.942-9.016-4.068-17.994-6.15-26.982C86.061,25.767,85.332,23.1,84.629,20.33z"/>
	<path fill-rule="evenodd" clip-rule="evenodd" fill="#D770AD" d="M88.076,14.442c0.488,1.905,0.955,3.583,1.352,5.278
		c2.591,11.086,5.236,22.158,7.716,33.267c0.95,4.253,1.731,8.569,2.198,12.894c0.919,8.506-1.229,16.328-6.169,23.298
		c-6.178,8.704-14.674,13.942-25.103,15.911c-11.661,2.203-22.514,0.02-32.229-6.894C28.07,92.67,22.993,85.229,21.154,75.789
		c-1.802-9.252,0.062-17.827,5.19-25.708c4.761-7.321,11.111-13.016,18.319-17.815c8.781-5.846,18.339-10.075,28.333-13.33
		C77.947,17.323,82.977,15.953,88.076,14.442z M79.707,28.299c-1.756,0.464-3.467,0.895-5.161,1.373
		c-8.062,2.274-15.845,5.224-23.04,9.579c-5.391,3.262-10.209,7.183-13.987,12.292c-3.177,4.292-5.088,9.041-5.172,14.418
		c-0.121,7.516,2.735,13.799,8.255,18.825c10.63,9.685,27.373,9.919,38.263,0.521c6.001-5.182,9.14-11.784,8.783-19.771
		c-0.138-3.066-0.729-6.136-1.378-9.148c-1.554-7.213-3.254-14.396-4.92-21.585C80.851,32.649,80.27,30.516,79.707,28.299z"/>
	<path fill-rule="evenodd" clip-rule="evenodd" fill="#EC87C0" d="M84.629,20.33c0.703,2.771,1.432,5.437,2.055,8.127
		c2.082,8.988,4.208,17.966,6.15,26.982c0.811,3.765,1.551,7.604,1.723,11.436c0.445,9.985-3.479,18.237-10.98,24.715
		c-13.613,11.749-34.541,11.455-47.828-0.65c-6.9-6.285-10.47-14.138-10.319-23.534c0.106-6.719,2.494-12.656,6.466-18.021
		c4.722-6.387,10.746-11.289,17.484-15.366c8.992-5.442,18.722-9.131,28.798-11.973C80.297,21.446,82.434,20.91,84.629,20.33z"/>
</g>
</svg>
