<svg version="1.1" xmlns="http://www.w3.org/2000/svg" xmlns:xlink="http://www.w3.org/1999/xlink" width="120px" height="120px" viewBox="0 0 120 120" xml:space="preserve">
<g>
	<path fill-rule="evenodd" clip-rule="evenodd" fill="#8CC152" d="M12.516,59.934c0-9.251,0.005-18.503-0.012-27.754
		c0-0.521,0.142-0.851,0.673-1.169c15.416-9.24,30.817-18.499,46.211-27.768c0.5-0.303,0.821-0.335,1.349-0.018
		c15.412,9.287,30.838,18.556,46.274,27.814c0.46,0.277,0.636,0.554,0.636,1.042c-0.014,18.622-0.014,37.245,0,55.867
		c0,0.489-0.188,0.762-0.643,1.037c-15.436,9.258-30.862,18.529-46.277,27.811c-0.473,0.283-0.78,0.318-1.28,0.02
		c-15.436-9.298-30.884-18.583-46.342-27.853c-0.48-0.288-0.597-0.591-0.597-1.059C12.519,78.58,12.516,69.258,12.516,59.934z
		 M60.181,18.922c-0.159,0.083-0.259,0.126-0.349,0.179c-11.15,6.702-22.301,13.408-33.464,20.095
		c-0.447,0.267-0.481,0.57-0.481,0.962c0.007,13.269,0.007,26.538-0.008,39.807c-0.002,0.51,0.166,0.81,0.657,1.104
		c7.363,4.401,14.712,8.826,22.064,13.242c3.843,2.312,7.689,4.619,11.536,6.927c0.166-0.087,0.311-0.158,0.445-0.24
		c11.106-6.672,22.213-13.351,33.332-20.007c0.478-0.284,0.515-0.604,0.515-1.021c-0.007-13.244-0.01-26.491,0.007-39.736
		c0.005-0.535-0.169-0.85-0.687-1.159c-6.307-3.761-12.59-7.545-18.879-11.325C69.983,24.813,65.098,21.878,60.181,18.922z"/>
	<path fill-rule="evenodd" clip-rule="evenodd" fill="#8CC152" d="M22.027,59.949c0-7.4,0.004-14.802-0.01-22.204
		c0-0.417,0.113-0.68,0.538-0.935c12.333-7.391,24.655-14.797,36.968-22.212c0.402-0.243,0.659-0.27,1.082-0.015
		c12.33,7.43,24.669,14.846,37.018,22.252c0.368,0.222,0.508,0.443,0.508,0.833c-0.011,14.896-0.011,29.795,0,44.692
		c0,0.393-0.15,0.611-0.513,0.83c-12.35,7.406-24.689,14.823-37.022,22.25c-0.378,0.225-0.625,0.255-1.024,0.012
		c-12.349-7.436-24.708-14.862-37.075-22.28c-0.384-0.229-0.478-0.47-0.478-0.845C22.03,74.867,22.027,67.408,22.027,59.949z
		 M60.161,27.141c-0.128,0.066-0.207,0.101-0.279,0.143C50.96,32.644,42.04,38.009,33.109,43.359
		c-0.357,0.213-0.385,0.456-0.385,0.771c0.005,10.614,0.005,21.229-0.006,31.845c-0.002,0.408,0.132,0.647,0.526,0.883
		c5.889,3.52,11.769,7.061,17.651,10.594c3.074,1.85,6.152,3.695,9.228,5.541c0.134-0.07,0.248-0.125,0.357-0.191
		c8.886-5.338,17.771-10.68,26.666-16.004c0.382-0.229,0.413-0.484,0.411-0.818c-0.005-10.596-0.007-21.194,0.008-31.789
		c0.001-0.429-0.137-0.681-0.551-0.926c-5.044-3.009-10.071-6.037-15.104-9.061C68.003,31.853,64.094,29.506,60.161,27.141z"/>
	<path fill-rule="evenodd" clip-rule="evenodd" fill="#A0D468" d="M60.181,18.922c4.917,2.956,9.802,5.891,14.688,8.827
		c6.289,3.779,12.572,7.563,18.879,11.325c0.518,0.309,0.691,0.624,0.687,1.159c-0.017,13.245-0.014,26.492-0.007,39.736
		c0,0.418-0.037,0.737-0.515,1.021c-11.118,6.656-22.226,13.335-33.332,20.007c-0.134,0.082-0.28,0.153-0.445,0.24
		c-3.847-2.308-7.693-4.615-11.536-6.927c-7.353-4.416-14.702-8.841-22.064-13.242c-0.491-0.294-0.659-0.594-0.657-1.104
		c0.015-13.27,0.015-26.538,0.008-39.807c0-0.392,0.034-0.695,0.481-0.962c11.164-6.687,22.314-13.393,33.464-20.095
		C59.922,19.049,60.022,19.005,60.181,18.922z"/>
</g>
</svg>
