<svg version="1.1" id="Coin" xmlns="http://www.w3.org/2000/svg" xmlns:xlink="http://www.w3.org/1999/xlink" width="120px" height="120px" viewBox="0 0 120 120" xml:space="preserve">
<g>
	<path fill-rule="evenodd" clip-rule="evenodd" fill="#FCBB42" d="M3.002,60.019C3.034,28.505,28.604,2.971,60.093,3.002
		c31.518,0.034,57.047,25.598,57.016,57.094c-0.031,31.546-25.654,57.097-57.175,57.014C28.447,117.027,2.971,91.479,3.002,60.019z
		 M59.903,101.022c22.635,0.048,41.043-18.278,41.119-40.937c0.071-22.666-18.285-41.106-40.979-41.161
		c-22.631-0.052-41.044,18.279-41.117,40.938C18.851,82.527,37.213,100.973,59.903,101.022z"/>
	<path fill-rule="evenodd" clip-rule="evenodd" fill="#FCBB42" d="M14.413,60.026c0.025-25.212,20.481-45.638,45.672-45.613
		c25.215,0.026,45.637,20.478,45.612,45.675c-0.025,25.236-20.522,45.678-45.739,45.611C34.769,105.631,14.388,85.194,14.413,60.026
		z M59.933,92.83c18.108,0.037,32.835-14.625,32.895-32.75c0.057-18.133-14.627-32.885-32.783-32.929
		C41.94,27.109,27.21,41.774,27.151,59.9C27.092,78.034,41.781,92.789,59.933,92.83z"/>
	<path fill-rule="evenodd" clip-rule="evenodd" fill="#FFCE54" d="M59.903,101.022c-22.689-0.05-41.052-18.495-40.977-41.16
		c0.073-22.658,18.486-40.99,41.117-40.938c22.693,0.054,41.05,18.495,40.979,41.161C100.946,82.744,82.538,101.07,59.903,101.022z"
		/>
</g>
</svg>
