<?xml version="1.0" encoding="utf-8"?>
<!-- Generator: Adobe Illustrator 16.0.4, SVG Export Plug-In . SVG Version: 6.00 Build 0)  -->
<!DOCTYPE svg PUBLIC "-//W3C//DTD SVG 1.1//EN" "http://www.w3.org/Graphics/SVG/1.1/DTD/svg11.dtd">
<svg version="1.1" id="Elixir" xmlns="http://www.w3.org/2000/svg" xmlns:xlink="http://www.w3.org/1999/xlink" x="0px" y="0px"
	 width="120px" height="120px" viewBox="0 0 120 120" enable-background="new 0 0 120 120" xml:space="preserve">
<g>
	<path fill="#573963" d="M95.092,3.009c0.611,2.382,1.193,4.479,1.688,6.597c3.242,13.857,6.548,27.697,9.646,41.584
		c1.188,5.315,2.164,10.708,2.746,16.119c1.148,10.631-1.533,20.407-7.711,29.119c-7.721,10.883-18.34,17.43-31.375,19.891
		c-14.578,2.755-28.144,0.022-40.287-8.615c-9.715-6.911-16.061-16.21-18.36-28.01c-2.252-11.565,0.077-22.284,6.488-32.137
		c5.951-9.15,13.889-16.27,22.899-22.269C51.802,17.98,63.748,12.694,76.24,8.625C82.43,6.609,88.718,4.898,95.092,3.009z
		 M84.629,20.33c-2.195,0.581-4.332,1.117-6.451,1.715c-10.076,2.842-19.806,6.53-28.798,11.973
		c-6.738,4.077-12.762,8.979-17.484,15.366c-3.972,5.365-6.36,11.302-6.466,18.021c-0.151,9.396,3.419,17.25,10.319,23.535
		c13.287,12.104,34.214,12.398,47.828,0.649c7.502-6.478,11.426-14.729,10.979-24.715c-0.172-3.831-0.912-7.67-1.723-11.436
		c-1.941-9.016-4.068-17.994-6.15-26.982C86.061,25.767,85.332,23.1,84.629,20.33z"/>
	<path fill="#573963" d="M88.076,14.442c0.488,1.905,0.955,3.583,1.352,5.278c2.592,11.086,5.236,22.158,7.717,33.267
		c0.949,4.253,1.73,8.57,2.197,12.894c0.919,8.506-1.229,16.328-6.169,23.299c-6.178,8.703-14.674,13.941-25.103,15.91
		c-11.661,2.203-22.514,0.02-32.229-6.895C28.07,92.67,22.993,85.229,21.154,75.789c-1.802-9.252,0.062-17.827,5.19-25.708
		c4.761-7.321,11.111-13.016,18.319-17.815c8.781-5.846,18.339-10.075,28.333-13.33C77.947,17.323,82.977,15.953,88.076,14.442z
		 M79.707,28.299c-1.756,0.464-3.467,0.895-5.161,1.373c-8.062,2.274-15.845,5.224-23.04,9.579
		c-5.391,3.262-10.209,7.183-13.987,12.292c-3.177,4.292-5.088,9.041-5.172,14.418c-0.121,7.516,2.735,13.799,8.255,18.825
		c10.63,9.685,27.373,9.919,38.263,0.521c6.001-5.182,9.14-11.783,8.783-19.771c-0.139-3.065-0.729-6.136-1.379-9.148
		c-1.554-7.213-3.254-14.396-4.92-21.585C80.852,32.649,80.27,30.516,79.707,28.299z"/>
	<path fill="#765784" d="M84.629,20.33c0.703,2.771,1.432,5.437,2.055,8.127c2.082,8.988,4.209,17.966,6.15,26.982
		c0.811,3.765,1.551,7.604,1.723,11.436c0.445,9.984-3.479,18.236-10.979,24.715c-13.613,11.749-34.541,11.455-47.828-0.65
		c-6.9-6.285-10.47-14.138-10.319-23.533c0.106-6.719,2.494-12.656,6.466-18.021c4.722-6.387,10.746-11.289,17.484-15.366
		c8.992-5.442,18.722-9.131,28.798-11.973C80.297,21.446,82.434,20.91,84.629,20.33z"/>
</g>
</svg>
