<?xml version="1.0" encoding="utf-8"?>
<!-- Generator: Adobe Illustrator 21.0.2, SVG Export Plug-In . SVG Version: 6.00 Build 0)  -->
<svg version="1.1" id="Capa_1" xmlns="http://www.w3.org/2000/svg" xmlns:xlink="http://www.w3.org/1999/xlink" x="0px" y="0px"
	 viewBox="0 0 95 95" style="enable-background:new 0 0 95 95;" xml:space="preserve">
<g id="_x31_z1Xw9_1_">
	<g>
		<path d="M75.1,47.5c0,13.5,0,26.9,0,40.4c0,4.6-2.5,7.1-7.1,7.1c-13.8,0-27.6,0-41.4,0c-4,0-6.7-2.6-6.7-6.6c0-27.3,0-54.6,0-82
			c0-3.8,2.7-6.5,6.5-6.5c14.1,0,28.2,0,42.3,0c3.9,0,6.5,2.7,6.5,6.6C75.2,20.3,75.1,33.9,75.1,47.5z M24.7,46.6
			c0,11.4,0,22.8,0,34.2c0,1.5,0.4,1.9,1.9,1.9c13.9-0.1,27.7-0.1,41.6,0c1.7,0,2.1-0.5,2.1-2.1c0-22.6,0-45.3,0-67.9
			c0-1.7-0.5-2.1-2.2-2.1c-13.8,0.1-27.6,0.1-41.4,0c-1.7,0-2.1,0.6-2.1,2.2C24.7,24,24.7,35.3,24.7,46.6z M47.5,85.6
			c-1.7,0-3.1,1.3-3,2.9c0,1.5,1.4,2.8,3,2.8c1.6,0,3.1-1.4,3-2.9C50.5,86.9,49.1,85.6,47.5,85.6z M54.6,5.9c0-0.2,0-0.4,0-0.5
			c-4.7,0-9.4,0-14.1,0c0,0.2,0,0.4,0,0.5C45.1,5.9,49.8,5.9,54.6,5.9z"/>
	</g>
</g>
</svg>
