<?xml version="1.0" encoding="utf-8"?>
<!-- Generator: Adobe Illustrator 21.0.2, SVG Export Plug-In . SVG Version: 6.00 Build 0)  -->
<svg version="1.1" id="Capa_1" xmlns="http://www.w3.org/2000/svg" xmlns:xlink="http://www.w3.org/1999/xlink" x="0px" y="0px"
	 viewBox="0 0 95 95" style="enable-background:new 0 0 95 95;" xml:space="preserve">
<g id="inbtXX_1_">
	<g>
		<path d="M0,53.4c0-10.7,0-21.3,0-32c0-4.4,2.4-6.7,6.8-6.7c5.6,0,11.2,0,16.9,0c3.8,0,6.5,2.7,6.6,6.6c0,4.3,0,8.6,0,12.9
			c0,17.1,0,34.3,0,51.4c0,2.8-1.2,4.8-3.7,6c-0.7,0.3-1.6,0.4-2.5,0.4c-5.8,0-11.7-0.2-17.5,0.1C2.9,92.3,0,89.1,0,85.5
			C0.1,74.8,0,64.1,0,53.4z M15,38.4c1.6,0,3.2,0,4.8,0c4,0,3.9,0,4-3.9c0-1.5-0.5-1.8-1.9-1.8c-3.8,0.1-7.5,0-11.3,0
			c-4.8,0.1-3.9-0.8-4.1,4.2c0,1.1,0.3,1.5,1.5,1.5C10.3,38.4,12.7,38.4,15,38.4z M23.6,20.9c-5.7,0-11.3,0-17.1,0
			c0,1.4,0.1,2.6,0,3.7c-0.1,1.4,0.5,1.8,1.8,1.8c3.5-0.1,7,0,10.5,0c5.2,0,5.2,0,4.9-5.2C23.7,21.1,23.7,21.1,23.6,20.9z M12,70.6
			c0-1.4-1.2-2.5-2.7-2.5c-1.4,0-2.7,1.3-2.8,2.7c0,1.4,1.3,2.7,2.7,2.7C10.7,73.6,11.9,72.3,12,70.6z"/>
		<path d="M88.5,9.4c-0.9,0-1.6,0-2.3,0c-24,0-48.1,0-72.1,0c-2.6,0-3-0.6-1.8-2.9c1.1-2.3,3-3.6,5.6-3.6c23.7,0,47.4,0,71.1,0
			c3.5,0,6,2.6,6,6.1c0,17.7,0,35.5,0,53.2c0,3.5-2.7,6.1-6.2,6.1c-17.1,0-34.2,0-51.3,0c-1.6,0-2-0.5-2-2c0.1-2.7,0.1-5.5,0-8.3
			c-0.1-1.5,0.5-1.8,1.9-1.8c16.3,0,32.6,0,48.9,0c2.3,0,2.3,0,2.3-2.2c0-14.2,0-28.3,0-42.5C88.5,10.9,88.5,10.3,88.5,9.4z
			 M53.5,64.8c1.3,0,2.9-1.5,2.9-2.9c0-1.2-1.4-2.5-2.8-2.6c-1.4,0-2.8,1.3-2.9,2.7C50.7,63.4,52,64.8,53.5,64.8z"/>
		<path d="M53.3,86.2c-4.5,0-8.9,0-13.4,0c-1.2,0-1.7-0.4-1.5-1.6c0.4-2.6,2.1-4,4.4-4.7c1.3-0.4,1.5-1,1.5-2.2c0-4.2,0-4.2,4.3-4.2
			c4,0,8,0,12,0c1.3,0,1.9,0.4,1.8,1.8c0,0.2,0,0.5,0,0.7c-0.2,2-0.2,3.8,2.6,4.4c1.8,0.4,2.9,2.1,3.2,4.1c0.2,1.4-0.2,1.7-1.5,1.7
			C62.3,86.1,57.8,86.2,53.3,86.2z"/>
	</g>
</g>
</svg>
