<?xml version="1.0" encoding="utf-8"?>
<!-- Generator: Adobe Illustrator 21.0.2, SVG Export Plug-In . SVG Version: 6.00 Build 0)  -->
<svg version="1.1" id="Capa_1" xmlns="http://www.w3.org/2000/svg" xmlns:xlink="http://www.w3.org/1999/xlink" x="0px" y="0px"
	 viewBox="0 0 65 65.5" style="enable-background:new 0 0 65 65.5;" xml:space="preserve">
<style type="text/css">
	.st0{fill:#FFFFFF;}
</style>
<g id="kXCCGo.tif">
	<g>
		<path class="st0" d="M34.3,0c-1.3,0-2.7,0-4,0c-0.4,0.1-0.8,0.2-1.3,0.2c-1.1,0.1-2.2,0.2-3.3,0.4C20.2,1.8,15.2,4.2,10.9,8
			C6.3,12,3,17,1.1,22.8c-0.3,0.8-0.4,1.7-0.7,2.6c9.9,1.2,19.6,2.4,29.3,3.6c0-0.1,0.1-0.2,0.1-0.3c-3.2-3.2-6.5-6.4-9.6-9.5
			c2.5-2.5,4.8-4.8,7.2-7.2c5.6,7.1,11.3,14.2,16.9,21.2c-6.7,6.7-13.3,13.4-20,20.1c-2.3-1.9-4.7-3.8-7.2-5.8
			c3.8-3.8,7.6-7.5,11.3-11.3c-9.4,0.8-18.8,1.5-28.3,2.3c0.1,0.5,0.1,0.9,0.2,1.3c2,8.4,6.6,15.1,13.7,20c4.4,3,9.1,4.9,14.4,5.2
			c2.8,0.2,5.6,0.2,8.4-0.1c3.8-0.4,7.3-1.8,10.7-3.7c5.1-2.8,9.2-6.7,12.3-11.7c4.6-7.6,5.8-15.7,3.9-24.3
			c-1.2-5.3-3.7-10.1-7.3-14.2C51.5,5.5,45.4,1.9,38,0.6C36.7,0.3,35.5,0.2,34.3,0z"/>
	</g>
</g>
</svg>
