<?xml version="1.0" encoding="utf-8"?>
<!-- Generator: Adobe Illustrator 21.0.2, SVG Export Plug-In . SVG Version: 6.00 Build 0)  -->
<svg version="1.1" id="Capa_1" xmlns="http://www.w3.org/2000/svg" xmlns:xlink="http://www.w3.org/1999/xlink" x="0px" y="0px"
	 viewBox="0 0 65 65.5" style="enable-background:new 0 0 65 65.5;" xml:space="preserve">
<style type="text/css">
	.st0{fill:#FFFFFF;}
</style>
<g id="kXCCGo.tif">
	<g>
		<path class="st0" d="M30.5,0c1.3,0,2.7,0,4,0c0.4,0.1,0.8,0.2,1.3,0.2C36.9,0.4,38,0.4,39,0.6C44.6,1.8,49.6,4.2,53.9,8
			c4.6,4,7.9,9,9.8,14.8c0.3,0.8,0.4,1.7,0.7,2.6C54.5,26.6,44.8,27.8,35,29c0-0.1-0.1-0.2-0.1-0.3c3.2-3.2,6.5-6.4,9.6-9.5
			c-2.5-2.5-4.8-4.8-7.2-7.2C31.7,19.1,26,26.2,20.4,33.3c6.7,6.7,13.3,13.4,20,20.1c2.3-1.9,4.7-3.8,7.2-5.8
			c-3.8-3.8-7.6-7.5-11.3-11.3c9.4,0.8,18.8,1.5,28.3,2.3c-0.1,0.5-0.1,0.9-0.2,1.3c-2,8.4-6.6,15.1-13.7,20
			c-4.4,3-9.1,4.9-14.4,5.2c-2.8,0.2-5.6,0.2-8.4-0.1c-3.8-0.4-7.3-1.8-10.7-3.7C12.1,58.4,8,54.5,4.9,49.6C0.3,42-0.9,33.8,1,25.3
			c1.2-5.3,3.7-10.1,7.3-14.2c5-5.6,11.1-9.2,18.5-10.5C28,0.3,29.3,0.2,30.5,0z"/>
	</g>
</g>
</svg>
